SplineFontDB: 3.0
FontName: Exo-Medium
FullName: Exo Medium
FamilyName: Exo
Weight: Medium
Copyright: Copyright (c) 2011 Natanael Gama (exo@ndiscovered.com), with Reserved Font Name "Exo"
Version: 1.00
ItalicAngle: 0
UnderlinePosition: -50
UnderlineWidth: 50
Ascent: 800
Descent: 200
sfntRevision: 0x00010000
LayerCount: 2
Layer: 0 0 "Back"  1
Layer: 1 0 "Fore"  0
NeedsXUIDChange: 1
XUID: [1021 762 1116966003 1150422]
FSType: 8
OS2Version: 0
OS2_WeightWidthSlopeOnly: 0
OS2_UseTypoMetrics: 1
CreationTime: 1317847027
ModificationTime: 1324988055
PfmFamily: 33
TTFWeight: 500
TTFWidth: 5
LineGap: 90
VLineGap: 0
OS2TypoAscent: 0
OS2TypoAOffset: 1
OS2TypoDescent: 0
OS2TypoDOffset: 1
OS2TypoLinegap: 90
OS2WinAscent: 0
OS2WinAOffset: 1
OS2WinDescent: 0
OS2WinDOffset: 1
HheadAscent: 0
HheadAOffset: 1
HheadDescent: 0
HheadDOffset: 1
OS2Vendor: 'PfEd'
Lookup: 4 0 0 "'ordn' Ordinals lookup 21"  {"'ordn' Ordinals lookup 21-1"  } ['ordn' ('DFLT' <'dflt' > 'grek' <'dflt' > 'latn' <'dflt' > ) ]
Lookup: 1 0 0 "'smcp' Lowercase to Small Capitals lookup 16"  {"'smcp' Lowercase to Small Capitals lookup 16-1" ("smcp" ) } ['smcp' ('DFLT' <'dflt' > 'grek' <'dflt' > 'latn' <'FRA ' 'dflt' > ) ]
Lookup: 1 0 0 "'c2sc' Capitals to Small Capitals in Latin lookup 17"  {"'c2sc' Capitals to Small Capitals in Latin lookup 17 subtable" ("smcp" ) } ['c2sc' ('latn' <'dflt' > ) ]
Lookup: 4 0 0 "'dlig' Discretionary Ligatures lookup 14"  {"'dlig' Discretionary Ligatures lookup 14-1"  } ['dlig' ('DFLT' <'dflt' > 'grek' <'dflt' > 'latn' <'dflt' > ) ]
Lookup: 4 0 1 "'liga' Standard Ligatures lookup 15"  {"'liga' Standard Ligatures lookup 15-1"  } ['liga' ('DFLT' <'dflt' > 'grek' <'dflt' > 'latn' <'FRA ' 'dflt' > ) ]
Lookup: 1 0 0 "'frac' Diagonal Fractions lookup 13"  {"'frac' Diagonal Fractions lookup 13-1"  } ['frac' ('DFLT' <'dflt' > 'grek' <'dflt' > 'latn' <'FRA ' 'dflt' > ) ]

StartChar: a
Encoding: 97 97 0
Width: 519
VWidth: 0
Flags: HW
LayerCount: 2
Fore
SplineSet
129.3 137.6 m 2
 129.3 90.65 154 78.5 185.75 78.5 c 0
 259.9 78.5 380.45 126.8 380.45 126.8 c 1
 380.45 257.35 l 1
 183.95 243 l 2
 142.6 239.15 129.3 210.6 129.3 181 c 2
 129.3 137.6 l 2
37.3 128.55 m 2
 37.3 186.55 l 2
 37.3 265.8 85.05 323 176.45 323 c 2
 176.45 323 380.45 322 380.45 323 c 2
 380.45 323 381.45 380 380.45 381 c 1
 380.45 440.8 349.95 458.5 301.45 458.5 c 0
 236.5 458.5 136.9 452.6 54.45 446.65 c 1
 54.45 509.5 l 1
 125.15 531.45 209.8 540.15 308.8 541 c 0
 400.35 541.85 472.45 498.35 472.45 382.5 c 2
 472.45 0 l 1
 402.3 0 l 1
 380.45 62.5 l 1
 377.4 59.35 263.25 -6.45 174.95 -6 c 0
 94 -5.25 37.3 47.9 37.3 128.55 c 2
EndSplineSet
AlternateSubs2: "'salt' Access All Alternates in Latin lookup 4-1" a.salt
Substitution2: "'smcp' Lowercase to Small Capitals lookup 16-1" a.smcp
EndChar

StartChar: z
Encoding: 122 122 1
Width: 460
VWidth: 0
Flags: HW
LayerCount: 2
Fore
SplineSet
28.05 445 m 1
 28.05 531 l 1
 433.05 531 l 1
 433.05 445 l 1
 164.5 87 l 1
 433.05 87 l 1
 434.05 86 433.05 1 433.05 1 c 1
 43.05 1 l 1
 43.05 86.7 l 1
 318.25 445 l 1
 28.05 445 l 1
EndSplineSet
Substitution2: "'smcp' Lowercase to Small Capitals lookup 16-1" z.smcp
EndChar

StartChar: e
Encoding: 101 101 2
Width: 525
VWidth: 0
Flags: HW
HStem: -5 84.35<168.377 454.116> 220.5 80.5<138.7 388.922> 452 83<171.16 378.097>
VStem: 46.7 92<108.283 220.5 301 415.33> 395.7 92<309.054 434.552>
LayerCount: 2
Fore
SplineSet
138.7 301 m 1
 337.8 301 l 2
 377.75 301 395.7 316.55 395.7 347.45 c 0
 395.7 442.1 378.55 452 281.65 452 c 0
 179.3 452 138.4 450.1 138.7 301 c 1
46.7 268 m 0
 46.7 502.6 113.5 535 278.7 535 c 0
 411.5 535 487.7 521.5 487.7 345.5 c 0
 487.7 263.7 443.7 220.5 347.7 220.5 c 2
 138.7 220.5 l 1
 138.7 103.45 165.3 79.35 242.7 79.35 c 0
 331.7 79.35 402.7 78.5 477.7 89.5 c 1
 477.7 23 l 1
 398.35 -1.35 304.7 -5 221.7 -5 c 0
 86.7 -5 46.7 63.6 46.7 268 c 0
EndSplineSet
Substitution2: "'smcp' Lowercase to Small Capitals lookup 16-1" e.smcp
EndChar

StartChar: o
Encoding: 111 111 3
Width: 565
VWidth: 0
Flags: HW
HStem: -5 84.5<182.019 384.987> 451.5 84.5<182.377 385.224>
VStem: 46.7 92<129.509 402.321> 427.2 92<126.559 404.116>
LayerCount: 2
Fore
SplineSet
138.7 258 m 0
 138.7 91.8 187.75 79.5 282.95 79.5 c 0
 383 79.5 427.2 92.6 427.2 258 c 0
 427.2 436.75 390.8 451.5 282.95 451.5 c 0
 178.9 451.5 138.7 437.45 138.7 258 c 0
46.7 258 m 0
 46.7 475 107.45 536 282.95 536 c 0
 463 536 519.2 469 519.2 258 c 0
 519.2 61 463.75 -5 282.95 -5 c 0
 102.75 -5 46.7 68 46.7 258 c 0
EndSplineSet
Substitution2: "'smcp' Lowercase to Small Capitals lookup 16-1" o.smcp
EndChar

StartChar: c
Encoding: 99 99 5
Width: 498
VWidth: 0
Flags: HW
LayerCount: 2
Fore
SplineSet
46.7 266 m 0
 46.7 494.4 119.7 536 221.7 536 c 0
 273.7 536 379.4 525.7 454.2 508.5 c 1
 454.2 445.5 l 1
 454.2 445.5 327.05 451.5 238.05 451.5 c 0
 176.85 451.5 138.7 442.45 138.7 262.3 c 0
 138.7 113.95 166.05 79.5 238.05 79.5 c 0
 330.05 79.5 461.2 90.05 461.2 90.05 c 1
 461.2 25.35 l 1
 381.1 -2.15 304.7 -4 221.7 -5 c 1
 122.7 -5 46.7 36.75 46.7 266 c 0
EndSplineSet
Substitution2: "'smcp' Lowercase to Small Capitals lookup 16-1" c.smcp
EndChar

StartChar: d
Encoding: 100 100 6
Width: 554
VWidth: 0
Flags: HW
LayerCount: 2
Fore
SplineSet
138.7 264.5 m 0
 138.7 137.65 171.55 80.45 231.15 80.45 c 0
 302.95 80.45 360.1 101.6 407.5 122.85 c 1
 407.5 430.9 l 1
 347.35 447.85 300.35 455.25 231.15 455.25 c 0
 172.55 455.25 138.7 420 138.7 264.5 c 0
46.7 263 m 0
 46.7 408.15 71.3 539 221.25 539 c 0
 266.25 539 347.85 525.45 407.65 500.5 c 1
 407.65 785 l 1
 498.8 785 l 1
 498.8 0 l 1
 428.85 0 l 1
 407.5 57.5 l 1
 379.55 36.4 287.9 -6 221.25 -6 c 0
 80.15 -6 46.7 129.15 46.7 263 c 0
EndSplineSet
AlternateSubs2: "'salt' Access All Alternates in Latin lookup 4-1" d.salt
Substitution2: "'smcp' Lowercase to Small Capitals lookup 16-1" d.smcp
EndChar

StartChar: A
Encoding: 65 65 7
Width: 676
VWidth: 0
Flags: HW
HStem: 0 21G<42 155.68 543.119 654> 0 21G<42 155.68 543.119 654> 192.6 87.65<241.15 461.4> 712 20G<297.814 409.128>
DStem2: 42 0 149.2 0 0.338128 0.9411<36.2473 238.602 331.081 669.398> 402.25 732 353.15 599.5 0.325224 -0.945637<109.328 446.428 538.404 538.404>
LayerCount: 2
Fore
SplineSet
241.15 280.25 m 1
 461.4 280.25 l 1
 353.15 599.5 l 1
 241.15 280.25 l 1
42 0 m 1
 305 732 l 1
 402.25 732 l 1
 654 0 l 1
 549.35 0 l 1
 489.35 192.6 l 1
 211.6 192.6 l 1
 149.2 0 l 1
 42 0 l 1
EndSplineSet
Substitution2: "'c2sc' Capitals to Small Capitals in Latin lookup 17 subtable" a.smcp
EndChar

StartChar: p
Encoding: 112 112 8
Width: 554
VWidth: 0
Flags: HW
LayerCount: 2
Fore
SplineSet
146.55 100.1 m 1
 206.7 83.15 254.55 75.75 323.75 75.75 c 0
 382.35 75.75 416.2 111 416.2 266.5 c 0
 416.2 393.35 383.35 450.55 323.75 450.55 c 0
 251.95 450.55 193.95 429.4 146.55 408.15 c 1
 146.55 100.1 l 1
56.1 -270 m 1
 56.1 531 l 1
 126.05 531 l 1
 146.55 473.5 l 1
 174.5 494.6 267 537 333.65 537 c 0
 474.75 537 508.2 400.2 508.2 268 c 0
 508.2 127.2 483.6 -8 333.65 -8 c 0
 288.65 -8 206.2 5.55 146.4 30.5 c 1
 146.4 -270 l 1
 56.1 -270 l 1
EndSplineSet
AlternateSubs2: "'salt' Access All Alternates in Latin lookup 4-1" p.salt
Substitution2: "'smcp' Lowercase to Small Capitals lookup 16-1" p.smcp
EndChar

StartChar: b
Encoding: 98 98 9
Width: 554
VWidth: 0
Flags: HW
HStem: -6 86.45<232.257 375.832> 455.25 83.75<195.188 379.518>
VStem: 56.1 91.3<113.95 436.122 500.5 785> 416.2 92<130.664 413.124>
LayerCount: 2
Fore
SplineSet
147.4 122.85 m 1
 194.8 101.6 251.95 80.45 323.75 80.45 c 0
 383.35 80.45 416.2 137.65 416.2 264.5 c 0
 416.2 420 382.35 455.25 323.75 455.25 c 0
 254.55 455.25 207.55 447.85 147.4 430.9 c 1
 147.4 122.85 l 1
56.1 0 m 1
 56.1 785 l 1
 146.4 785 l 1
 146.4 500.5 l 1
 206.2 525.45 288.65 539 333.65 539 c 0
 483.6 539 508.2 406.95 508.2 263 c 0
 508.2 130.35 474.75 -6 333.65 -6 c 0
 267 -6 175.35 36.4 147.4 57.5 c 1
 126.05 0 l 1
 56.1 0 l 1
EndSplineSet
AlternateSubs2: "'salt' Access All Alternates in Latin lookup 4-1" b.salt
Substitution2: "'smcp' Lowercase to Small Capitals lookup 16-1" b.smcp
EndChar

StartChar: q
Encoding: 113 113 10
Width: 555
VWidth: 0
Flags: HW
LayerCount: 2
Fore
SplineSet
138.7 269.05 m 0
 138.7 178.3 136.05 73.9 240.75 73.9 c 0
 306.65 73.9 334.7 77.9 407.05 98 c 1
 407.05 454 l 1
 241.05 454 l 2
 141.4 454 138.7 331.6 138.7 269.05 c 0
46.7 268 m 0
 46.7 440.8 108.55 537 233.55 537 c 0
 339.55 537 451 518.75 499.05 512.05 c 1
 499.05 -270 l 1
 407.05 -270 l 1
 407.05 29 l 1
 349.35 2.55 278.55 -10 233.55 -10 c 0
 80.55 -10 46.7 104.9 46.7 268 c 0
EndSplineSet
Substitution2: "'smcp' Lowercase to Small Capitals lookup 16-1" q.smcp
EndChar

StartChar: n
Encoding: 110 110 11
Width: 545
VWidth: 0
Flags: HW
HStem: 0 21G<56.1 148.1 407.1 499.1> 0 21G<56.1 148.1 407.1 499.1> 455.5 84.5<233.894 384.053> 511 20G<56.1 132.369>
VStem: 56.1 92<0 412.536> 407.1 92<0 431.409>
LayerCount: 2
Fore
SplineSet
56.1 0 m 1
 56.1 531 l 1
 124.6 531 l 1
 148.1 470.5 l 1
 204.9 504.9 255.6 540 336.6 540 c 0
 447.4 540 499.1 457.1 499.1 365.5 c 2
 499.1 0 l 1
 407.1 0 l 1
 407.1 366.1 l 2
 407.1 428.5 372.3 455.5 325.65 455.5 c 0
 252.1 455.5 215.35 437 148.1 401.5 c 1
 148.1 0 l 1
 56.1 0 l 1
EndSplineSet
AlternateSubs2: "'salt' Access All Alternates in Latin lookup 4-1" n.salt
Substitution2: "'smcp' Lowercase to Small Capitals lookup 16-1" n.smcp
EndChar

StartChar: i
Encoding: 105 105 12
Width: 205
VWidth: 0
Flags: HW
HStem: 0 21G<55.35 147.35> 0 21G<55.35 147.35> 511 20G<55.35 147.35> 592.05 111.45<46.8465 158.39>
VStem: 46.7 111.85<592.154 703.428> 55.35 92<0 531>
LayerCount: 2
Fore
SplineSet
55.35 0 m 1
 55.35 531 l 1
 147.35 531 l 1
 147.35 0 l 1
 55.35 0 l 1
46.7 615.05 m 2
 46.7 678.5 l 2
 46.7 693.5 54.7 703.5 70.7 703.5 c 2
 135.7 703.5 l 2
 150.7 703.5 158.55 692.5 158.55 678.5 c 2
 158.55 615.05 l 2
 158.55 600.05 149.7 592.05 135.7 592.05 c 2
 70.7 592.05 l 2
 56.7 592.05 46.7 601.05 46.7 615.05 c 2
EndSplineSet
Substitution2: "'smcp' Lowercase to Small Capitals lookup 16-1" i.smcp
EndChar

StartChar: h
Encoding: 104 104 13
Width: 545
VWidth: 0
Flags: HW
LayerCount: 2
Fore
SplineSet
56.1 0 m 1
 56.1 783.7 l 1
 147.95 783.7 l 1
 147.95 470.5 l 1
 204.3 504.6 255.6 540 336.6 540 c 0
 447.4 540 499.1 457.1 499.1 365.5 c 2
 499.1 0 l 1
 407.1 0 l 1
 407.1 366.1 l 2
 407.1 428.5 373.15 455.5 325.65 455.5 c 0
 252.1 455.5 215.35 437 148.1 401.5 c 1
 148.1 0 l 1
 56.1 0 l 1
EndSplineSet
Substitution2: "'smcp' Lowercase to Small Capitals lookup 16-1" h.smcp
EndChar

StartChar: u
Encoding: 117 117 14
Width: 545
VWidth: 0
Flags: HW
LayerCount: 2
Fore
SplineSet
46.7 165.5 m 2
 46.7 531 l 1
 138.7 531 l 1
 138.7 164.9 l 2
 138.7 102.5 173.5 75.5 220.15 75.5 c 0
 293.7 75.5 330.45 94 397.7 129.5 c 1
 397.7 531 l 1
 489.7 531 l 1
 489.7 0 l 1
 421.2 0 l 1
 397.7 60.5 l 1
 338.95 26.4 290.2 -9 209.2 -9 c 0
 98.4 -9 46.7 73.9 46.7 165.5 c 2
EndSplineSet
AlternateSubs2: "'salt' Access All Alternates in Latin lookup 4-1" u.salt
Substitution2: "'smcp' Lowercase to Small Capitals lookup 16-1" u.smcp
EndChar

StartChar: r
Encoding: 114 114 15
Width: 423
VWidth: 0
Flags: HW
HStem: 0 21G<56.1 148.1> 0 21G<56.1 148.1> 444.45 92.4<235.117 402.996>
VStem: 56.1 92<0 398.618> 56.1 70<509.682 531>
LayerCount: 2
Fore
SplineSet
56.1 0 m 1
 56.1 531 l 1
 126.1 531 l 1
 148.1 464 l 1
 202.5 499.15 256 536.85 333.65 536.85 c 0
 361 536.85 391 535.15 403.6 529.3 c 1
 403.6 439.35 l 1
 391 441.9 358.15 444.45 328.85 444.45 c 0
 254.85 444.45 213.55 426.6 148.1 386.15 c 1
 148.1 0 l 1
 56.1 0 l 1
EndSplineSet
AlternateSubs2: "'salt' Access All Alternates in Latin lookup 4-1" r.salt
Substitution2: "'smcp' Lowercase to Small Capitals lookup 16-1" r.smcp
EndChar

StartChar: m
Encoding: 109 109 16
Width: 891
VWidth: 0
Flags: HW
LayerCount: 2
Fore
SplineSet
56.1 0 m 1
 56.1 531 l 1
 124.6 531 l 1
 148.1 468.8 l 1
 205.35 503.5 251.35 537.45 330.65 537.45 c 0
 396.4 537.45 452.4 509.35 475.1 462 c 1
 525.9 502.75 595.6 537.45 682.8 537.45 c 0
 781.7 537.45 845.3 465.6 845.3 362.1 c 2
 845.3 0 l 1
 753.3 0 l 1
 753.3 362.7 l 2
 753.3 419.15 719.35 452.95 671.85 452.95 c 0
 599.75 452.95 552.05 440.7 493.85 400.85 c 0
 493.85 399.65 494 365.15 494 363.8 c 2
 494 0 l 1
 402 0 l 1
 402 362.7 l 2
 402 419.15 367.2 452.95 319.7 452.95 c 0
 248.7 452.95 215.35 435.3 148.1 399.8 c 1
 148.1 0 l 1
 56.1 0 l 1
EndSplineSet
AlternateSubs2: "'salt' Access All Alternates in Latin lookup 4-1" m.salt
Substitution2: "'smcp' Lowercase to Small Capitals lookup 16-1" m.smcp
EndChar

StartChar: f
Encoding: 102 102 17
Width: 401
VWidth: 0
Flags: HW
LayerCount: 2
Fore
SplineSet
18.65 448 m 1
 18.65 514 l 1
 111.9 531 l 1
 111.9 630 l 2
 111.9 694.05 124.05 786 244.05 786 c 0
 293.05 786 334.9 777.75 382.4 762 c 1
 382.4 703.7 l 1
 381.4 703.7 266.9 704.7 266.9 704.7 c 2
 205 705.7 203.9 671.1 203.9 621 c 2
 203.9 531 l 1
 344.4 531 l 1
 344.4 448 l 1
 203.9 448 l 1
 203.9 0 l 1
 111.9 0 l 1
 111.9 448 l 1
 18.65 448 l 1
EndSplineSet
AlternateSubs2: "'salt' Access All Alternates in Latin lookup 4-1" f.salt
Substitution2: "'smcp' Lowercase to Small Capitals lookup 16-1" f.smcp
EndChar

StartChar: l
Encoding: 108 108 18
Width: 303
VWidth: 0
Flags: HW
HStem: 0 62<199.112 285.1> 763 20G<56.1 148.1>
VStem: 56.1 92<104.606 783>
LayerCount: 2
Fore
SplineSet
56.1 189 m 2
 56.1 783 l 1
 148.1 783 l 1
 148.1 195 l 2
 148.1 110.7 169.9 91.6 202.1 83 c 2
 202.1 83 278.1 62 285.1 62 c 1
 285.1 0 l 1
 189.6 0 l 2
 109.9 0 56.1 48 56.1 189 c 2
EndSplineSet
Substitution2: "'smcp' Lowercase to Small Capitals lookup 16-1" l.smcp
EndChar

StartChar: j
Encoding: 106 106 19
Width: 224
VWidth: 0
Flags: HW
LayerCount: 2
Fore
SplineSet
65.75 -270 m 1
 65.75 531 l 1
 157.75 531 l 1
 157.75 -4 l 1
 158.75 -90 156.75 -190.3 128.75 -270 c 1
 65.75 -270 l 1
56.1 615.05 m 2
 56.1 678.5 l 2
 56.1 693.5 64.1 703.5 80.1 703.5 c 2
 145.1 703.5 l 2
 160.1 703.5 168.1 692.5 168.1 678.5 c 2
 168.1 615.05 l 2
 168.1 600.05 159.1 592.05 145.1 592.05 c 2
 80.1 592.05 l 2
 66.1 592.05 56.1 601.05 56.1 615.05 c 2
EndSplineSet
Substitution2: "'smcp' Lowercase to Small Capitals lookup 16-1" j.smcp
EndChar

StartChar: t
Encoding: 116 116 20
Width: 379
VWidth: 0
Flags: HW
HStem: 0.7 62<256.913 342.9> 449 83<206.05 351.15> 449 62<18.65 50.45>
VStem: 114.05 92<105.564 449> 133.55 72.5<626.872 680>
LayerCount: 2
Fore
SplineSet
18.65 449 m 1
 18.65 511 l 1
 114.05 532 l 1
 133.55 680 l 1
 206.05 680 l 1
 206.05 532 l 1
 351.15 532 l 1
 351.15 449 l 1
 206.05 449 l 1
 206.05 196 l 2
 206.05 111.4 227.7 92.3 259.9 83.7 c 2
 259.9 83.7 335.9 62.7 342.9 62.7 c 1
 342.9 0.7 l 1
 245.6 0.7 l 2
 168.15 0.7 114.05 49 114.05 190 c 2
 114.05 449 l 1
 18.65 449 l 1
EndSplineSet
AlternateSubs2: "'salt' Access All Alternates in Latin lookup 4-1" t.salt
Substitution2: "'smcp' Lowercase to Small Capitals lookup 16-1" t.smcp
EndChar

StartChar: s
Encoding: 115 115 21
Width: 506
VWidth: 0
Flags: HW
HStem: -5 85.55<89.9713 369.187> 16.7 63.85<59.3 288.637> 220.85 86.9<134.182 371.772> 451.45 84.55<135.789 426.097> 451.45 65.55<211.708 442.45>
VStem: 37.3 92<315.696 443.908> 377.3 92<89.0762 213.532>
LayerCount: 2
Fore
SplineSet
37.3 355 m 2
 37.3 401 l 2
 37.3 483 72.3 536 175.3 536 c 0
 240.95 536 393.45 527.1 442.45 517 c 1
 442.45 451.45 l 1
 187 451.45 l 2
 130.65 451.45 129.3 430.2 129.3 398.6 c 2
 129.3 358.6 l 2
 129.3 309.45 153.75 307.75 187 307.75 c 2
 336.3 307.75 l 2
 427.2 307.75 469.3 252.1 469.3 176.5 c 2
 469.3 126 l 2
 469.3 17 403.3 -5 339.3 -5 c 0
 276.2 -5 97 7.15 59.3 16.7 c 1
 59.3 80.55 l 1
 327 80.55 l 2
 329.55 80.55 377.3 76.5 377.3 129 c 2
 377.3 171.4 l 2
 377.3 202.95 366.8 220.85 327 220.85 c 2
 178.3 220.85 l 2
 84.3 220.85 37.3 252 37.3 355 c 2
EndSplineSet
Substitution2: "'smcp' Lowercase to Small Capitals lookup 16-1" s.smcp
EndChar

StartChar: k
Encoding: 107 107 22
Width: 515
VWidth: 0
Flags: HW
LayerCount: 2
Fore
SplineSet
56.1 0 m 1
 56.1 782 l 1
 148.1 782 l 1
 148.1 345 l 1
 185.1 345 l 1
 373.85 531 l 1
 497.1 531 l 1
 271.15 303.5 l 1
 497.1 0 l 1
 384.85 0 l 1
 185.1 262 l 1
 148.1 262 l 1
 148.1 0 l 1
 56.1 0 l 1
EndSplineSet
Substitution2: "'smcp' Lowercase to Small Capitals lookup 16-1" k.smcp
EndChar

StartChar: g
Encoding: 103 103 23
Width: 555
VWidth: 0
Flags: HW
LayerCount: 2
Fore
SplineSet
138.15 344 m 0
 138.15 295 153.15 233.5 222.65 233.5 c 2
 309.25 233.5 l 2
 381.9 233.5 399.85 296.7 398.15 344 c 0
 395.6 409.957 379.15 448.5 308.25 448.5 c 2
 228.15 448.5 l 2
 153.05 448.5 138.15 394.8 138.15 344 c 0
135.8 -111.35 m 2
 135.8 -178.8 180.5 -185.5 215.5 -185.5 c 2
 347.2 -185.5 l 2
 403.8 -185.5 417.8 -154.75 417.8 -112.1 c 2
 417.8 -59.35 l 2
 417.8 -17 406.87 3.98603 354.15 4.1 c 2
 180.05 4.1 l 2
 152.193 4.1 135.8 10.9 135.8 10.9 c 1
 135.8 -111.35 l 2
44.55 111.55 m 0
 44.55 146.95 62.7 188.2 104.3 197.7 c 1
 60.3 225.7 46.15 291 46.15 344 c 0
 46.15 471 111.7 533 222.15 533 c 2
 537.15 533 l 1
 537.15 469.5 l 1
 462.15 451.5 l 1
 472.7 430.2 490.15 409.95 490.15 339.5 c 0
 490.15 275 464.75 149 320.65 149 c 2
 173.65 149 l 2
 157.65 149 132.8 146.05 132.8 120.8 c 0
 132.8 95.55 151.463 88.75 173.65 88.75 c 2
 373 88.75 l 2
 459.26 88.75 509.65 35.1 509.65 -54.5 c 2
 509.65 -116 l 2
 509.65 -180.5 486.15 -270 355.15 -270 c 2
 205.15 -270 l 2
 111.15 -270 43.65 -220.3 43.65 -116 c 2
 43.65 -35.8 l 1
 85.45 24.7 l 1
 57.45 43.5 44.55 78.1 44.55 111.55 c 0
EndSplineSet
AlternateSubs2: "'salt' Access All Alternates in Latin lookup 4-1" g.salt
Substitution2: "'smcp' Lowercase to Small Capitals lookup 16-1" g.smcp
EndChar

StartChar: v
Encoding: 118 118 24
Width: 543
VWidth: 0
Flags: HW
HStem: 0 21G<213.571 325.514> 0 21G<213.571 325.514> 511 20G<18.65 125.886 417.943 525.15>
DStem2: 118.4 531 18.65 531 0.356401 -0.934333<0 434.571> 270.75 124 317.7 0 0.363893 0.931441<0 435.427>
LayerCount: 2
Fore
SplineSet
18.65 531 m 1
 118.4 531 l 1
 270.75 124 l 1
 425.55 531 l 1
 525.15 531 l 1
 317.7 0 l 1
 221.2 0 l 1
 18.65 531 l 1
EndSplineSet
Substitution2: "'smcp' Lowercase to Small Capitals lookup 16-1" v.smcp
EndChar

StartChar: w
Encoding: 119 119 25
Width: 807
VWidth: 0
Flags: HW
LayerCount: 2
Fore
SplineSet
18.65 531 m 1
 118.4 531 l 1
 261.6 124 l 1
 387.9 531 l 1
 484.1 531 l 1
 434.75 368.35 l 1
 543.1 124 l 1
 689.5 531 l 1
 789.4 531 l 1
 594.95 0 l 1
 498.45 0 l 1
 390.95 241.55 l 1
 311.3 0 l 1
 209.7 0 l 1
 18.65 531 l 1
EndSplineSet
Substitution2: "'smcp' Lowercase to Small Capitals lookup 16-1" w.smcp
EndChar

StartChar: y
Encoding: 121 121 26
Width: 560
VWidth: 0
Flags: HW
LayerCount: 2
Fore
SplineSet
19.65 531 m 1
 118.65 531 l 1
 237.45 127.85 l 2
 253.736 74.4677 298.45 89 300 88.85 c 1
 439.55 531 l 1
 539.65 531 l 1
 319.3 -168 l 1
 244.9 -270 l 1
 184.2 -270 l 1
 272.95 0 l 1
 237.55 0 173.65 11.6 142.6 116.9 c 2
 19.65 531 l 1
EndSplineSet
Substitution2: "'smcp' Lowercase to Small Capitals lookup 16-1" y.smcp
EndChar

StartChar: x
Encoding: 120 120 27
Width: 537
VWidth: 0
Flags: HW
HStem: 0 21G<22.5 149.522 387.678 506.7> 0 21G<22.5 149.522 387.678 506.7> 511 20G<22.5 149.193 387.621 514.7>
DStem2: 135.5 531 22.5 531 0.581151 -0.813796<0 232.281 354.978 586.828> 22.5 0 135.5 0 0.581151 0.813796<65.6701 297.52 418.067 652.498>
LayerCount: 2
Fore
SplineSet
22.5 0 m 1
 212.1 266 l 1
 22.5 531 l 1
 135.5 531 l 1
 266.75 339.3 l 1
 401.7 531 l 1
 514.7 531 l 1
 322.95 263 l 1
 506.7 0 l 1
 401.7 0 l 1
 268.6 189.85 l 1
 135.5 0 l 1
 22.5 0 l 1
EndSplineSet
AlternateSubs2: "'salt' Access All Alternates in Latin lookup 4-1" x.salt
Substitution2: "'smcp' Lowercase to Small Capitals lookup 16-1" x.smcp
EndChar

StartChar: V
Encoding: 86 86 28
Width: 674
VWidth: 0
Flags: HW
LayerCount: 2
Fore
SplineSet
42 732 m 1
 141.45 732 l 1
 341.5 136 l 1
 551.55 732 l 1
 651 732 l 1
 389.5 0 l 1
 291.5 0 l 1
 42 732 l 1
EndSplineSet
Substitution2: "'c2sc' Capitals to Small Capitals in Latin lookup 17 subtable" v.smcp
EndChar

StartChar: W
Encoding: 87 87 29
Width: 970
VWidth: 0
Flags: HW
LayerCount: 2
Fore
SplineSet
42 732 m 1
 141.45 732 l 1
 340.65 145.35 l 1
 508.15 732 l 1
 610.15 732 l 1
 546.8 510.3 l 1
 675.15 140.25 l 1
 847.75 732 l 1
 947.2 732 l 1
 725.7 0 l 1
 627.7 0 l 1
 501.2 353.75 l 1
 389.5 0 l 1
 291.5 0 l 1
 42 732 l 1
EndSplineSet
Substitution2: "'c2sc' Capitals to Small Capitals in Latin lookup 17 subtable" w.smcp
EndChar

StartChar: C
Encoding: 67 67 30
Width: 576
VWidth: 0
Flags: HW
LayerCount: 2
Fore
SplineSet
51.4 368 m 0
 51.4 602 97.75 740 296.75 740 c 0
 362.55 740 471.35 728.6 543.75 712.75 c 1
 543.75 639.95 l 1
 542.75 639.95 399.4 651 305.75 651 c 0
 186.9 651 143.4 603.15 143.4 366 c 0
 143.4 202 177.7 83 305.9 83 c 0
 410.9 83 543.75 90.3 543.75 90.3 c 1
 543.75 17.5 l 1
 474.95 2.55 363.15 -6.45 296.75 -6 c 0
 111.75 -5.55 51.4 148.35 51.4 368 c 0
EndSplineSet
Substitution2: "'c2sc' Capitals to Small Capitals in Latin lookup 17 subtable" c.smcp
EndChar

StartChar: D
Encoding: 68 68 31
Width: 658
VWidth: 0
Flags: HW
HStem: 0 90.05<166.75 430.207> 644.5 87.5<166.75 431.981>
VStem: 74.75 92<90.05 644.5> 523.75 92<212.635 533.869>
LayerCount: 2
Fore
SplineSet
166.75 90.05 m 1
 354.4 90.05 l 2
 475.15 90.05 523.75 211.95 523.75 364 c 0
 523.75 573.05 460.05 644.5 354.4 644.5 c 2
 166.75 644.5 l 1
 166.75 90.05 l 1
74.75 0 m 1
 74.75 732 l 1
 357.4 732 l 2
 578.5 732 615.75 521.55 615.75 363 c 0
 615.75 183.5 546.5 0 357.4 0 c 2
 74.75 0 l 1
EndSplineSet
Substitution2: "'c2sc' Capitals to Small Capitals in Latin lookup 17 subtable" d.smcp
EndChar

StartChar: O
Encoding: 79 79 32
Width: 674
VWidth: 0
Flags: HW
HStem: -4 89<225.604 463.268> 648 89<224.273 472.291>
VStem: 60.8 92<172.936 556.47> 540.8 92<176.435 556.17>
LayerCount: 2
Fore
SplineSet
152.8 361 m 0
 152.8 119.6 198.65 85 347.65 85 c 0
 493.15 85 540.8 126.1 540.8 361 c 0
 540.8 640.65 476.9 648 347.65 648 c 0
 221.4 648 152.8 642 152.8 361 c 0
60.8 361 m 0
 60.8 704 179.65 737 347.65 737 c 0
 520.65 737 632.8 704 632.8 361 c 0
 632.8 38 527.65 -4 347.65 -4 c 0
 167.65 -4 60.8 28 60.8 361 c 0
EndSplineSet
Substitution2: "'c2sc' Capitals to Small Capitals in Latin lookup 17 subtable" o.smcp
EndChar

StartChar: S
Encoding: 83 83 33
Width: 585
VWidth: 0
Flags: HW
LayerCount: 2
Fore
SplineSet
60.8 491.75 m 2
 60.8 557 l 2
 60.8 702 146.8 737.55 258.8 738 c 0
 326.05 738.6 474.4 720.95 517.8 712.65 c 1
 517.8 639 l 1
 453.8 643.45 279.2 649 269.3 649 c 0
 201.7 651.55 152.8 645.3 152.8 554 c 2
 152.8 496.25 l 2
 152.8 414.25 189.4 405.75 248.5 405.75 c 2
 383.3 405.75 l 2
 519.15 405.75 543.95 309.45 543.95 227.75 c 2
 543.95 165 l 2
 543.95 16.4 440.8 -8 341.8 -8 c 0
 272.1 -8 137.05 6.45 82.95 18.35 c 1
 82.95 92 l 1
 122.95 88 241.3 81 334.3 81 c 0
 375.6 81 451.95 84.35 451.95 163.65 c 2
 451.95 223.85 l 2
 451.95 276.65 436.15 313.75 374.3 313.75 c 2
 241.8 313.75 l 2
 77.3 313.75 60.8 413.3 60.8 491.75 c 2
EndSplineSet
Substitution2: "'c2sc' Capitals to Small Capitals in Latin lookup 17 subtable" s.smcp
EndChar

StartChar: G
Encoding: 71 71 34
Width: 614
VWidth: 0
Flags: HW
LayerCount: 2
Fore
SplineSet
51.4 370 m 0
 51.4 573.45 87.75 740 286.75 740 c 0
 354.8 740 468.5 728.1 548.25 711.5 c 1
 548.25 639 l 1
 542.25 639 398.95 652.5 295.75 652.5 c 0
 169.6 652.5 143.4 564.15 143.4 368 c 0
 143.4 154.7 179.15 85.45 296.9 83.75 c 0
 370.8 82.9 470.9 129.75 470.9 129.75 c 1
 470.9 311 l 1
 320.75 311 l 1
 320.75 371.5 l 1
 361.5 384.45 416.15 396.5 494.9 396.5 c 0
 515.9 396.5 538.9 395.5 562.9 393.5 c 1
 562.9 0 l 1
 494.75 0 l 1
 472.9 49 l 1
 436.4 25.6 377.9 -4.25 289.4 -5 c 0
 82.4 -8.65 51.4 158.9 51.4 370 c 0
EndSplineSet
Substitution2: "'c2sc' Capitals to Small Capitals in Latin lookup 17 subtable" g.smcp
EndChar

StartChar: Q
Encoding: 81 81 35
Width: 674
VWidth: 0
Flags: HW
HStem: -144.25 89<374.363 538.35> -4 89<224.287 461.919> 648 89<222.297 471.046>
VStem: 60.8 92<170.294 556.47> 540.8 92<176.454 556.17>
LayerCount: 2
Fore
SplineSet
312.35 -33 m 1
 371.85 -33 l 1
 425.45 -79.55 480.05 -74.9 538.35 -55.25 c 1
 538.35 -144.25 l 1
 458.55 -169.9 326.1 -140.65 312.35 -33 c 1
152.8 361 m 0
 152.8 119.6 196.95 85 345.95 85 c 0
 491.45 85 540.8 126.1 540.8 361 c 0
 540.8 640.65 475.2 648 345.95 648 c 0
 219.7 648 152.8 642 152.8 361 c 0
60.8 361 m 0
 60.8 704 174.55 737 345.95 737 c 0
 518.95 737 632.8 704 632.8 361 c 0
 632.8 38 525.95 -3.7 345.95 -4 c 0
 165.95 -4 60.8 28 60.8 361 c 0
EndSplineSet
Substitution2: "'c2sc' Capitals to Small Capitals in Latin lookup 17 subtable" q.smcp
EndChar

StartChar: M
Encoding: 77 77 36
Width: 813
VWidth: 0
Flags: HW
HStem: 0 21G<51.4 144.39 352.207 462.197 669.34 762.5> 0 21G<51.4 144.39 352.207 462.197 669.34 762.5> 712 20G<102.466 237.144 570.812 704.674>
DStem2: 51.4 0 142.95 0 0.0715376 0.997438<6.54926 576.169> 231.1 732 183.85 568.15 0.289257 -0.957251<143.178 605.17> 406.15 152.7 456.25 0 0.282422 0.95929<0 460.402> 703.05 732 625.2 568.15 0.0809493 -0.996718<157.01 726.999>
LayerCount: 2
Fore
SplineSet
51.4 0 m 1
 103.9 732 l 1
 231.1 732 l 1
 406.15 152.7 l 1
 576.7 732 l 1
 703.05 732 l 1
 762.5 0 l 1
 670.95 0 l 1
 625.2 568.15 l 1
 456.25 0 l 1
 358.35 0 l 1
 183.85 568.15 l 1
 142.95 0 l 1
 51.4 0 l 1
EndSplineSet
AlternateSubs2: "'salt' Access All Alternates in Latin lookup 4-1" M.salt
Substitution2: "'c2sc' Capitals to Small Capitals in Latin lookup 17 subtable" m.smcp
EndChar

StartChar: I
Encoding: 73 73 37
Width: 222
VWidth: 0
Flags: HW
HStem: 0 21G<74.75 166.75> 0 21G<74.75 166.75> 712 20G<74.75 166.75>
VStem: 74.75 92<0 732>
LayerCount: 2
Fore
SplineSet
74.75 0 m 1
 74.75 732 l 1
 166.75 732 l 1
 166.75 0 l 1
 74.75 0 l 1
EndSplineSet
Substitution2: "'c2sc' Capitals to Small Capitals in Latin lookup 17 subtable" i.smcp
EndChar

StartChar: J
Encoding: 74 74 38
Width: 358
VWidth: 0
Flags: HW
LayerCount: 2
Fore
SplineSet
32.75 21.6 m 1
 36.15 90.6 l 1
 114.8 75.3 209.6 51.95 210.45 181.65 c 2
 210.45 732 l 1
 302.45 732 l 1
 302.45 165 l 2
 302.45 118 300.15 50 250.15 18 c 0
 197.15 -16 84.75 -12.4 32.75 21.6 c 1
EndSplineSet
Substitution2: "'c2sc' Capitals to Small Capitals in Latin lookup 17 subtable" j.smcp
EndChar

StartChar: H
Encoding: 72 72 39
Width: 637
VWidth: 0
Flags: HW
LayerCount: 2
Fore
SplineSet
74.75 0 m 1
 74.75 732 l 1
 166.75 732 l 1
 166.75 398.5 l 1
 489.75 398.5 l 1
 489.75 732 l 1
 581.75 732 l 1
 581.75 0 l 1
 489.75 0 l 1
 489.75 309.5 l 1
 166.75 309.5 l 1
 166.75 0 l 1
 74.75 0 l 1
EndSplineSet
Substitution2: "'c2sc' Capitals to Small Capitals in Latin lookup 17 subtable" h.smcp
EndChar

StartChar: E
Encoding: 69 69 40
Width: 567
VWidth: 0
Flags: HW
HStem: 14 72.75<287.242 526.65> 315.35 94.3<166 386.104> 325.2 74.3<265.046 485.15> 642.25 89.75<171.456 463.777> 642.25 73.75<291.717 526.65>
VStem: 74 92<93.2274 315.35 409.65 636.442>
LayerCount: 2
Fore
SplineSet
74 128.7 m 2
 74 596 l 2
 74 701.916 141.445 734.55 209 732 c 2
 209 732 509.1 718.4 526.65 716 c 1
 526.65 642.25 l 1
 218 642.25 l 2
 166 642.25 166 613.25 166 586.25 c 2
 166 409.65 l 1
 485.15 399.5 l 1
 485.15 325.2 l 1
 166 315.35 l 1
 166 138.75 l 2
 166.85 85.75 199 86.75 228 86.75 c 2
 526.65 86.75 l 1
 526.65 14 l 1
 511.2 11.9 219 -3 219 -3 c 2
 153.195 -6.7 74 9.7 74 128.7 c 2
EndSplineSet
Substitution2: "'c2sc' Capitals to Small Capitals in Latin lookup 17 subtable" e.smcp
EndChar

StartChar: L
Encoding: 76 76 41
Width: 552
VWidth: 0
Flags: HW
HStem: 0 89<173.224 519.75> 712 20G<74.75 166.75>
VStem: 74.75 92<96.7472 732>
LayerCount: 2
Fore
SplineSet
74.75 130.5 m 2
 74.75 732 l 1
 166.75 732 l 1
 166.75 141 l 2
 166.75 88 199.75 89 228.75 89 c 2
 519.75 89 l 1
 519.75 0 l 1
 215.25 0 l 2
 145.5 0 74.75 17.5 74.75 130.5 c 2
EndSplineSet
Substitution2: "'c2sc' Capitals to Small Capitals in Latin lookup 17 subtable" l.smcp
EndChar

StartChar: F
Encoding: 70 70 42
Width: 567
VWidth: 0
Flags: HW
LayerCount: 2
Fore
SplineSet
74 0 m 1
 74 595.4 l 2
 74 699.25 139.345 734.7 209 732 c 2
 209 732 509.1 718.4 526.65 716 c 1
 526.65 642.25 l 1
 218 642.25 l 2
 166 642.25 166 613.25 166 586.25 c 2
 166 409.65 l 1
 485.15 399.5 l 1
 485.15 325.2 l 1
 166 315.35 l 1
 166 0 l 1
 74 0 l 1
EndSplineSet
Substitution2: "'c2sc' Capitals to Small Capitals in Latin lookup 17 subtable" f.smcp
EndChar

StartChar: K
Encoding: 75 75 43
Width: 601
VWidth: 0
Flags: HW
LayerCount: 2
Fore
SplineSet
74.75 0 m 1
 74.75 732 l 1
 165.25 732 l 1
 165.25 410 l 1
 240.95 410 l 1
 458.8 732 l 1
 568.75 732 l 1
 324.4 366.55 l 1
 568.75 0 l 1
 458.8 0 l 1
 240.95 322.5 l 1
 166.25 322.5 l 1
 166.25 0 l 1
 74.75 0 l 1
EndSplineSet
Substitution2: "'c2sc' Capitals to Small Capitals in Latin lookup 17 subtable" k.smcp
EndChar

StartChar: T
Encoding: 84 84 44
Width: 582
VWidth: 0
Flags: HW
HStem: 0 21G<250.75 342.75> 0 21G<250.75 342.75> 643 89<41.25 250.75 342.75 558.25>
VStem: 250.75 92<0 643>
LayerCount: 2
Fore
SplineSet
41.25 643 m 1
 41.25 732 l 1
 558.25 732 l 1
 558.25 643 l 1
 342.75 643 l 1
 342.75 0 l 1
 250.75 0 l 1
 250.75 643 l 1
 41.25 643 l 1
EndSplineSet
Substitution2: "'c2sc' Capitals to Small Capitals in Latin lookup 17 subtable" t.smcp
EndChar

StartChar: P
Encoding: 80 80 45
Width: 586
VWidth: 0
Flags: HW
HStem: 0 21G<57.6 149.6> 0 21G<57.6 149.6> 290.5 87.5<149.952 419.359> 310.5 67.5<149.6 380.798> 643.5 88.5<149.6 417.771>
VStem: 57.6 92<0 310.5 378 643.5> 452 93<409.615 606.451>
LayerCount: 2
Fore
SplineSet
149.6 378 m 1
 359.35 378 l 2
 409.25 378 452 395.1 452 515.8 c 1
 450.3 634.65 394.35 643.5 359.35 643.5 c 2
 149.6 643.5 l 1
 149.6 378 l 1
57.6 0 m 1
 57.6 732 l 1
 362.35 732 l 2
 444.8 732 545 700.2 545 516.25 c 0
 545 303.35 439.05 289.45 362.35 290.5 c 0
 322.35 290.95 154.6 307.5 149.6 310.5 c 1
 149.6 0 l 1
 57.6 0 l 1
EndSplineSet
Substitution2: "'c2sc' Capitals to Small Capitals in Latin lookup 17 subtable" p.smcp
EndChar

StartChar: R
Encoding: 82 82 46
Width: 596
VWidth: 0
Flags: HW
HStem: 0 21G<57.6 149.6 463.702 574.75> 0 21G<57.6 149.6 463.702 574.75> 307 78<149.75 239.1> 643.5 88.5<149.75 425.434>
VStem: 57.6 92<0 307 385 643.5> 456.1 93<409.107 611.597>
DStem2: 424.95 298.25 328.6 293 0.448831 -0.893617<0 288.357>
LayerCount: 2
Fore
SplineSet
149.75 385 m 1
 368.1 385 l 2
 414.85 385 456.1 388.9 456.1 509.75 c 0
 456.1 627.7 412.1 643.5 368.1 643.5 c 2
 149.75 643.5 l 1
 149.75 385 l 1
57.6 0 m 1
 57.6 732 l 1
 371.85 732 l 2
 472.1 732 549.1 678.15 549.1 509.75 c 0
 549.1 322.15 456.4 304.65 424.95 298.25 c 1
 574.75 0 l 1
 473.6 0 l 1
 328.6 293 l 1
 149.6 307 l 1
 149.6 0 l 1
 57.6 0 l 1
EndSplineSet
Substitution2: "'c2sc' Capitals to Small Capitals in Latin lookup 17 subtable" r.smcp
EndChar

StartChar: U
Encoding: 85 85 47
Width: 673
VWidth: 0
Flags: HW
LayerCount: 2
Fore
SplineSet
74.75 320 m 2
 74.75 732 l 1
 166.75 732 l 1
 166.75 320 l 2
 166.75 87.45 235.05 84 348.75 84 c 0
 446.25 84 524.75 94.85 524.75 320 c 2
 524.75 732 l 1
 617.75 732 l 1
 617.75 320 l 2
 617.75 -3 469.75 -5 348.75 -5 c 0
 212.75 -5 74.75 -13 74.75 320 c 2
EndSplineSet
Substitution2: "'c2sc' Capitals to Small Capitals in Latin lookup 17 subtable" u.smcp
EndChar

StartChar: B
Encoding: 66 66 48
Width: 598
VWidth: 0
Flags: HW
LayerCount: 2
Fore
SplineSet
167.6 426 m 1
 359.9 426 l 2
 428.15 426 465.25 463.45 465.25 537.35 c 0
 465.25 626.4 407.4 644.5 359.9 644.5 c 2
 167.6 644.5 l 1
 167.6 426 l 1
167.6 87.5 m 1
 361.4 87.5 l 2
 407.9 87.5 470.75 102.45 470.75 210.2 c 0
 470.75 278.65 438.65 340 361.4 340 c 2
 167.6 340 l 1
 167.6 87.5 l 1
74.75 0 m 1
 74.75 732 l 1
 362.15 732 l 2
 509.65 732 556.65 628.8 556.65 540.5 c 0
 556.65 468.3 533.55 399.6 462.4 380 c 1
 511.05 369.7 562.75 315.3 562.75 207 c 0
 562.75 95.7 516.9 0 362.9 0 c 2
 74.75 0 l 1
EndSplineSet
Substitution2: "'c2sc' Capitals to Small Capitals in Latin lookup 17 subtable" b.smcp
EndChar

StartChar: N
Encoding: 78 78 49
Width: 679
VWidth: 0
Flags: HW
HStem: 0 21G<74.75 167.75 518.594 623.6> 0 21G<74.75 167.75 518.594 623.6> 712 20G<74.75 181.686 531.6 623.6>
VStem: 74.75 93<0 559.5> 531.6 92<171 732>
DStem2: 168.75 732 167.75 559.5 0.543093 -0.839673<144.3 668.118>
LayerCount: 2
Fore
SplineSet
74.75 0 m 1
 74.75 732 l 1
 168.75 732 l 1
 531.6 171 l 1
 531.6 732 l 1
 623.6 732 l 1
 623.6 0 l 1
 531.6 0 l 1
 167.75 559.5 l 1
 167.75 0 l 1
 74.75 0 l 1
EndSplineSet
AlternateSubs2: "'salt' Access All Alternates in Latin lookup 4-1" N.salt
Substitution2: "'c2sc' Capitals to Small Capitals in Latin lookup 17 subtable" n.smcp
EndChar

StartChar: X
Encoding: 88 88 50
Width: 608
VWidth: 0
Flags: HW
HStem: 0 21G<45 157.484 467.52 580.1> 0 21G<45 157.484 467.52 580.1> 712 20G<42 154.682 472.185 585.1>
DStem2: 143.1 732 42 732 0.512597 -0.858629<0 336.705 464.985 800.698> 45 0 146.1 0 0.514323 0.857596<51.9981 386.979 515.104 853.549>
LayerCount: 2
Fore
SplineSet
42 732 m 1
 143.1 732 l 1
 311.85 440.6 l 1
 484 732 l 1
 585.1 732 l 1
 368.05 369.8 l 1
 580.1 0 l 1
 479 0 l 1
 311.85 291.2 l 1
 146.1 0 l 1
 45 0 l 1
 255.5 369.8 l 1
 42 732 l 1
EndSplineSet
AlternateSubs2: "'salt' Access All Alternates in Latin lookup 4-1" X.salt
Substitution2: "'c2sc' Capitals to Small Capitals in Latin lookup 17 subtable" x.smcp
EndChar

StartChar: Z
Encoding: 90 90 51
Width: 561
VWidth: 0
Flags: HW
LayerCount: 2
Fore
SplineSet
32.75 0 m 1
 32.75 89 l 1
 412.25 643 l 1
 32.75 643 l 1
 32.75 732 l 1
 528.75 732 l 1
 528.75 643 l 1
 153.75 89 l 1
 528.75 89 l 1
 528.75 0 l 1
 32.75 0 l 1
EndSplineSet
Substitution2: "'c2sc' Capitals to Small Capitals in Latin lookup 17 subtable" z.smcp
EndChar

StartChar: Y
Encoding: 89 89 52
Width: 637
VWidth: 0
Flags: HW
LayerCount: 2
Fore
SplineSet
42 732 m 1
 142.5 732 l 1
 318.9 357 l 1
 513.5 732 l 1
 614 732 l 1
 364.3 251 l 1
 364.3 0 l 1
 272.3 0 l 1
 272.3 251 l 1
 42 732 l 1
EndSplineSet
Substitution2: "'c2sc' Capitals to Small Capitals in Latin lookup 17 subtable" y.smcp
EndChar

StartChar: Agrave
Encoding: 192 192 53
Width: 676
VWidth: 0
Flags: HW
LayerCount: 2
Fore
SplineSet
186.125 931.5 m 1
 288.625 931.5 l 1
 391.125 797 l 1
 316.125 797 l 1
 186.125 931.5 l 1
241.15 280.25 m 1
 461.4 280.25 l 1
 353.15 599.5 l 1
 241.15 280.25 l 1
42 0 m 1
 305 732 l 1
 402.25 732 l 1
 654 0 l 1
 549.35 0 l 1
 489.35 192.6 l 1
 211.6 192.6 l 1
 149.2 0 l 1
 42 0 l 1
EndSplineSet
Substitution2: "'c2sc' Capitals to Small Capitals in Latin lookup 17 subtable" agrave.smcp
EndChar

StartChar: Aacute
Encoding: 193 193 54
Width: 676
VWidth: 0
Flags: HW
LayerCount: 2
Fore
SplineSet
316.125 797 m 1
 418.625 931.5 l 1
 521.125 931.5 l 1
 391.125 797 l 1
 316.125 797 l 1
241.15 280.25 m 1
 461.4 280.25 l 1
 353.15 599.5 l 1
 241.15 280.25 l 1
42 0 m 1
 305 732 l 1
 402.25 732 l 1
 654 0 l 1
 549.35 0 l 1
 489.35 192.6 l 1
 211.6 192.6 l 1
 149.2 0 l 1
 42 0 l 1
EndSplineSet
Substitution2: "'c2sc' Capitals to Small Capitals in Latin lookup 17 subtable" aacute.smcp
EndChar

StartChar: Acircumflex
Encoding: 194 194 55
Width: 676
VWidth: 0
Flags: HW
LayerCount: 2
Fore
SplineSet
205.375 797 m 1
 319.825 928.5 l 1
 399.825 928.5 l 1
 501.875 797 l 1
 424.875 797 l 1
 357.175 865 l 1
 283.375 797 l 1
 205.375 797 l 1
241.15 280.25 m 1
 461.4 280.25 l 1
 353.15 599.5 l 1
 241.15 280.25 l 1
42 0 m 1
 305 732 l 1
 402.25 732 l 1
 654 0 l 1
 549.35 0 l 1
 489.35 192.6 l 1
 211.6 192.6 l 1
 149.2 0 l 1
 42 0 l 1
EndSplineSet
Substitution2: "'c2sc' Capitals to Small Capitals in Latin lookup 17 subtable" acircumflex.smcp
EndChar

StartChar: Atilde
Encoding: 195 195 56
Width: 676
VWidth: 0
Flags: HW
LayerCount: 2
Fore
SplineSet
183.875 841.9 m 1
 221.625 875.35 259.375 907.4 302.625 907.4 c 1
 351.725 904.85 379.675 873.25 409.475 872.4 c 0
 435.875 871.25 470.275 891.1 500.775 909 c 1
 523.375 862.2 l 1
 492.025 836 452.175 796.15 408.825 797.85 c 0
 354.775 800.4 336.925 832.85 300.475 832 c 0
 257.225 831.15 241.875 812.5 205.775 797 c 1
 183.875 841.9 l 1
241.15 280.25 m 1
 461.4 280.25 l 1
 353.15 599.5 l 1
 241.15 280.25 l 1
42 0 m 1
 305 732 l 1
 402.25 732 l 1
 654 0 l 1
 549.35 0 l 1
 489.35 192.6 l 1
 211.6 192.6 l 1
 149.2 0 l 1
 42 0 l 1
EndSplineSet
Substitution2: "'c2sc' Capitals to Small Capitals in Latin lookup 17 subtable" atilde.smcp
EndChar

StartChar: Adieresis
Encoding: 196 196 57
Width: 676
VWidth: 0
Flags: HW
LayerCount: 2
Fore
SplineSet
428.375 850.25 m 0
 428.375 879.45 452.425 902.5 481.625 902.5 c 0
 510.825 902.5 533.875 879.45 533.875 850.25 c 0
 533.875 821.05 510.825 797 481.625 797 c 0
 452.425 797 428.375 821.05 428.375 850.25 c 0
173.375 850.25 m 0
 173.375 879.45 197.425 902.5 226.625 902.5 c 0
 255.825 902.5 278.875 879.45 278.875 850.25 c 0
 278.875 821.05 255.825 797 226.625 797 c 0
 197.425 797 173.375 821.05 173.375 850.25 c 0
241.15 280.25 m 1
 461.4 280.25 l 1
 353.15 599.5 l 1
 241.15 280.25 l 1
42 0 m 1
 305 732 l 1
 402.25 732 l 1
 654 0 l 1
 549.35 0 l 1
 489.35 192.6 l 1
 211.6 192.6 l 1
 149.2 0 l 1
 42 0 l 1
EndSplineSet
Substitution2: "'c2sc' Capitals to Small Capitals in Latin lookup 17 subtable" adieresis.smcp
EndChar

StartChar: Aring
Encoding: 197 197 58
Width: 676
VWidth: 0
Flags: HW
LayerCount: 2
Fore
SplineSet
302.275 832.167 m 0
 302.275 803.817 325.775 781.317 354.125 781.317 c 0
 382.475 781.317 404.975 803.817 404.975 832.167 c 0
 404.975 860.517 382.475 884.017 354.125 884.017 c 0
 325.775 884.017 302.275 860.517 302.275 832.167 c 0
252.125 832.167 m 0
 252.125 889.167 298.125 935.167 354.125 935.167 c 0
 410.125 935.167 455.125 889.167 455.125 832.167 c 0
 455.125 781.907 420.138 740.977 373.473 732 c 1
 402.25 732 l 1
 654 0 l 1
 549.35 0 l 1
 489.35 192.6 l 1
 211.6 192.6 l 1
 149.2 0 l 1
 42 0 l 1
 305 732 l 1
 334.739 732 l 1
 287.89 740.977 252.125 781.907 252.125 832.167 c 0
241.15 280.25 m 1
 461.4 280.25 l 1
 353.15 599.5 l 1
 241.15 280.25 l 1
EndSplineSet
Substitution2: "'c2sc' Capitals to Small Capitals in Latin lookup 17 subtable" aring.smcp
EndChar

StartChar: AE
Encoding: 198 198 59
Width: 930
VWidth: 0
Flags: HW
LayerCount: 2
Fore
SplineSet
279.25 305.5 m 1
 436.65 305.5 l 1
 436.65 626.5 l 1
 279.25 305.5 l 1
28.05 0 m 1
 322 596.2 l 2
 395.35 743.35 478.55 733.05 569.95 732 c 1
 569.95 732 870.45 718.4 888 716 c 1
 888 641.4 l 1
 578.95 641.4 l 2
 530.35 641.4 530.35 614.95 528.65 587.95 c 1
 528.65 405.4 l 1
 846.5 395.25 l 1
 846.5 320.95 l 1
 528.65 311.1 l 1
 528.65 137.05 l 2
 528.65 84.05 561.65 89.3 590.65 89.3 c 2
 887.15 88.45 l 1
 887.15 12.3 l 1
 871.7 10.2 581.65 -4.7 581.65 -4.7 c 2
 515.05 -8.7 436.65 8 436.65 121 c 2
 436.65 218 l 1
 236.1 218 l 1
 129.15 0 l 1
 28.05 0 l 1
EndSplineSet
EndChar

StartChar: Ccedilla
Encoding: 199 199 60
Width: 576
VWidth: 0
Flags: HW
LayerCount: 2
Fore
SplineSet
189.5 -130.35 m 1
 240.1 -115.35 l 1
 268.1 -103.35 271.5 -74.1504 271.5 -36.1504 c 1
 346 -36.1504 l 1
 346 -138.15 323.8 -173.65 242 -173.65 c 2
 189.5 -173.65 l 1
 189.5 -130.35 l 1
51.4004 368 m 0
 51.4004 602 97.75 740 296.75 740 c 0
 362.55 740 471.35 728.6 543.75 712.75 c 1
 543.75 639.95 l 1
 542.75 639.95 399.4 651 305.75 651 c 0
 186.9 651 143.4 603.15 143.4 366 c 0
 143.4 202 177.7 83 305.9 83 c 0
 410.9 83 543.75 90.2998 543.75 90.2998 c 1
 543.75 17.5 l 1
 474.95 2.5498 363.15 -6.4502 296.75 -6 c 0
 111.75 -5.5498 51.4004 148.35 51.4004 368 c 0
EndSplineSet
Substitution2: "'c2sc' Capitals to Small Capitals in Latin lookup 17 subtable" ccedilla.smcp
EndChar

StartChar: Eth
Encoding: 208 208 61
Width: 658
VWidth: 0
Flags: HW
LayerCount: 2
Fore
SplineSet
166.75 90.05 m 1
 355.25 90.05 l 2
 476 90.05 521.2 211.95 521.2 364 c 0
 521.2 569.65 454.1 640.25 355.25 640.25 c 2
 166.75 639.4 l 1
 166.75 401.5 l 1
 298.25 401.5 l 1
 298.25 344.5 l 1
 166.75 344.5 l 1
 166.75 90.05 l 1
9.75 344.5 m 1
 9.75 401.5 l 1
 74.75 401.5 l 1
 74.75 731.15 l 2
 74.75 732 307.25 732 358.25 732 c 0
 579.35 732 615.75 521.55 615.75 363 c 0
 615.75 183.5 547.35 0 358.25 0 c 2
 74.75 0 l 1
 74.75 344.5 l 1
 9.75 344.5 l 1
EndSplineSet
Substitution2: "'c2sc' Capitals to Small Capitals in Latin lookup 17 subtable" eth.smcp
EndChar

StartChar: Egrave
Encoding: 200 200 62
Width: 567
VWidth: 0
Flags: HW
LayerCount: 2
Fore
SplineSet
172.85 927.4 m 1
 275.35 927.4 l 1
 377.85 792.9 l 1
 302.85 792.9 l 1
 172.85 927.4 l 1
74 128.7 m 2
 74 596 l 2
 74 701.916 141.445 734.55 209 732 c 2
 209 732 509.1 718.4 526.65 716 c 1
 526.65 642.25 l 1
 218 642.25 l 2
 166 642.25 166 613.25 166 586.25 c 2
 166 409.65 l 1
 485.15 399.5 l 1
 485.15 325.2 l 1
 166 315.35 l 1
 166 138.75 l 2
 166.85 85.75 199 86.75 228 86.75 c 2
 526.65 86.75 l 1
 526.65 14 l 1
 511.2 11.9004 219 -3 219 -3 c 2
 153.195 -6.7002 74 9.7002 74 128.7 c 2
EndSplineSet
Substitution2: "'c2sc' Capitals to Small Capitals in Latin lookup 17 subtable" egrave.smcp
EndChar

StartChar: Eacute
Encoding: 201 201 63
Width: 567
VWidth: 0
Flags: HW
LayerCount: 2
Fore
SplineSet
283.85 792.75 m 1
 386.35 927.25 l 1
 488.85 927.25 l 1
 358.85 792.75 l 1
 283.85 792.75 l 1
74 128.7 m 2
 74 596 l 2
 74 701.916 141.445 734.55 209 732 c 2
 209 732 509.1 718.4 526.65 716 c 1
 526.65 642.25 l 1
 218 642.25 l 2
 166 642.25 166 613.25 166 586.25 c 2
 166 409.65 l 1
 485.15 399.5 l 1
 485.15 325.2 l 1
 166 315.35 l 1
 166 138.75 l 2
 166.85 85.75 199 86.75 228 86.75 c 2
 526.65 86.75 l 1
 526.65 14 l 1
 511.2 11.9004 219 -3 219 -3 c 2
 153.195 -6.7002 74 9.7002 74 128.7 c 2
EndSplineSet
Substitution2: "'c2sc' Capitals to Small Capitals in Latin lookup 17 subtable" eacute.smcp
EndChar

StartChar: Ecircumflex
Encoding: 202 202 64
Width: 567
VWidth: 0
Flags: HW
LayerCount: 2
Fore
SplineSet
168.2 797 m 1
 282.65 928.5 l 1
 362.65 928.5 l 1
 464.7 797 l 1
 387.7 797 l 1
 320 865 l 1
 246.2 797 l 1
 168.2 797 l 1
74 128.7 m 2
 74 596 l 2
 74 701.916 141.445 734.55 209 732 c 2
 209 732 509.1 718.4 526.65 716 c 1
 526.65 642.25 l 1
 218 642.25 l 2
 166 642.25 166 613.25 166 586.25 c 2
 166 409.65 l 1
 485.15 399.5 l 1
 485.15 325.2 l 1
 166 315.35 l 1
 166 138.75 l 2
 166.85 85.75 199 86.75 228 86.75 c 2
 526.65 86.75 l 1
 526.65 14 l 1
 511.2 11.9004 219 -3 219 -3 c 2
 153.195 -6.7002 74 9.7002 74 128.7 c 2
EndSplineSet
Substitution2: "'c2sc' Capitals to Small Capitals in Latin lookup 17 subtable" ecircumflex.smcp
EndChar

StartChar: Edieresis
Encoding: 203 203 65
Width: 567
VWidth: 0
Flags: HW
LayerCount: 2
Fore
SplineSet
390.55 846 m 0
 390.55 875.2 414.6 898.25 443.8 898.25 c 0
 473 898.25 496.05 875.2 496.05 846 c 0
 496.05 816.8 473 792.75 443.8 792.75 c 0
 414.6 792.75 390.55 816.8 390.55 846 c 0
135.55 846 m 0
 135.55 875.2 159.6 898.25 188.8 898.25 c 0
 218 898.25 241.05 875.2 241.05 846 c 0
 241.05 816.8 218 792.75 188.8 792.75 c 0
 159.6 792.75 135.55 816.8 135.55 846 c 0
74 128.7 m 2
 74 596 l 2
 74 701.916 141.445 734.55 209 732 c 2
 209 732 509.1 718.4 526.65 716 c 1
 526.65 642.25 l 1
 218 642.25 l 2
 166 642.25 166 613.25 166 586.25 c 2
 166 409.65 l 1
 485.15 399.5 l 1
 485.15 325.2 l 1
 166 315.35 l 1
 166 138.75 l 2
 166.85 85.75 199 86.75 228 86.75 c 2
 526.65 86.75 l 1
 526.65 14 l 1
 511.2 11.9004 219 -3 219 -3 c 2
 153.195 -6.7002 74 9.7002 74 128.7 c 2
EndSplineSet
Substitution2: "'c2sc' Capitals to Small Capitals in Latin lookup 17 subtable" edieresis.smcp
EndChar

StartChar: Igrave
Encoding: 204 204 66
Width: 222
VWidth: 0
Flags: HW
LayerCount: 2
Fore
SplineSet
-46.75 931.5 m 1
 55.75 931.5 l 1
 158.25 797 l 1
 83.25 797 l 1
 -46.75 931.5 l 1
74.75 0 m 1
 74.75 732 l 1
 166.75 732 l 1
 166.75 0 l 1
 74.75 0 l 1
EndSplineSet
Substitution2: "'c2sc' Capitals to Small Capitals in Latin lookup 17 subtable" igrave.smcp
EndChar

StartChar: Iacute
Encoding: 205 205 67
Width: 222
VWidth: 0
Flags: HW
LayerCount: 2
Fore
SplineSet
83.25 797 m 1
 185.75 931.5 l 1
 288.25 931.5 l 1
 158.25 797 l 1
 83.25 797 l 1
74.75 0 m 1
 74.75 732 l 1
 166.75 732 l 1
 166.75 0 l 1
 74.75 0 l 1
EndSplineSet
Substitution2: "'c2sc' Capitals to Small Capitals in Latin lookup 17 subtable" iacute.smcp
EndChar

StartChar: Icircumflex
Encoding: 206 206 68
Width: 222
VWidth: 0
Flags: HW
LayerCount: 2
Fore
SplineSet
-27.5 797 m 1
 86.9502 928.5 l 1
 166.95 928.5 l 1
 269 797 l 1
 192 797 l 1
 124.3 865 l 1
 50.5 797 l 1
 -27.5 797 l 1
74.75 0 m 1
 74.75 732 l 1
 166.75 732 l 1
 166.75 0 l 1
 74.75 0 l 1
EndSplineSet
Substitution2: "'c2sc' Capitals to Small Capitals in Latin lookup 17 subtable" icircumflex.smcp
EndChar

StartChar: Idieresis
Encoding: 207 207 69
Width: 222
VWidth: 0
Flags: HW
LayerCount: 2
Fore
SplineSet
195.5 850.25 m 0
 195.5 879.45 219.55 902.5 248.75 902.5 c 0
 277.95 902.5 301 879.45 301 850.25 c 0
 301 821.05 277.95 797 248.75 797 c 0
 219.55 797 195.5 821.05 195.5 850.25 c 0
-59.5 850.25 m 0
 -59.5 879.45 -35.4502 902.5 -6.25 902.5 c 0
 22.9502 902.5 46 879.45 46 850.25 c 0
 46 821.05 22.9502 797 -6.25 797 c 0
 -35.4502 797 -59.5 821.05 -59.5 850.25 c 0
74.75 0 m 1
 74.75 732 l 1
 166.75 732 l 1
 166.75 0 l 1
 74.75 0 l 1
EndSplineSet
Substitution2: "'c2sc' Capitals to Small Capitals in Latin lookup 17 subtable" idieresis.smcp
EndChar

StartChar: Ntilde
Encoding: 209 209 70
Width: 679
VWidth: 0
Flags: HW
LayerCount: 2
Fore
SplineSet
179.425 841.9 m 1
 217.175 875.35 254.925 907.4 298.175 907.4 c 1
 347.275 904.85 375.225 873.25 405.025 872.4 c 0
 431.425 871.25 465.825 891.1 496.325 909 c 1
 518.925 862.2 l 1
 487.575 836 447.725 796.15 404.375 797.85 c 0
 350.325 800.4 332.475 832.85 296.025 832 c 0
 252.775 831.15 237.425 812.5 201.325 797 c 1
 179.425 841.9 l 1
74.75 0 m 1
 74.75 732 l 1
 168.75 732 l 1
 531.6 171 l 1
 531.6 732 l 1
 623.6 732 l 1
 623.6 0 l 1
 531.6 0 l 1
 167.75 559.5 l 1
 167.75 0 l 1
 74.75 0 l 1
EndSplineSet
AlternateSubs2: "'salt' Access All Alternates in Latin lookup 4-1" Ntilde.salt
Substitution2: "'c2sc' Capitals to Small Capitals in Latin lookup 17 subtable" ntilde.smcp
EndChar

StartChar: Ograve
Encoding: 210 210 71
Width: 674
VWidth: 0
Flags: HW
LayerCount: 2
Fore
SplineSet
180.15 931.5 m 1
 282.65 931.5 l 1
 385.15 797 l 1
 310.15 797 l 1
 180.15 931.5 l 1
152.8 361 m 0
 152.8 119.6 198.65 85 347.65 85 c 0
 493.15 85 540.8 126.1 540.8 361 c 0
 540.8 640.65 476.9 648 347.65 648 c 0
 221.4 648 152.8 642 152.8 361 c 0
60.7998 361 m 0
 60.7998 704 179.65 737 347.65 737 c 0
 520.65 737 632.8 704 632.8 361 c 0
 632.8 38 527.65 -4 347.65 -4 c 0
 167.65 -4 60.7998 28 60.7998 361 c 0
EndSplineSet
Substitution2: "'c2sc' Capitals to Small Capitals in Latin lookup 17 subtable" ograve.smcp
EndChar

StartChar: Oacute
Encoding: 211 211 72
Width: 674
VWidth: 0
Flags: HW
LayerCount: 2
Fore
SplineSet
310.15 797 m 1
 412.65 931.5 l 1
 515.15 931.5 l 1
 385.15 797 l 1
 310.15 797 l 1
152.8 361 m 0
 152.8 119.6 198.65 85 347.65 85 c 0
 493.15 85 540.8 126.1 540.8 361 c 0
 540.8 640.65 476.9 648 347.65 648 c 0
 221.4 648 152.8 642 152.8 361 c 0
60.7998 361 m 0
 60.7998 704 179.65 737 347.65 737 c 0
 520.65 737 632.8 704 632.8 361 c 0
 632.8 38 527.65 -4 347.65 -4 c 0
 167.65 -4 60.7998 28 60.7998 361 c 0
EndSplineSet
Substitution2: "'c2sc' Capitals to Small Capitals in Latin lookup 17 subtable" oacute.smcp
EndChar

StartChar: Ocircumflex
Encoding: 212 212 73
Width: 674
VWidth: 0
Flags: HW
LayerCount: 2
Fore
SplineSet
199.4 797 m 1
 313.85 928.5 l 1
 393.85 928.5 l 1
 495.9 797 l 1
 418.9 797 l 1
 351.2 865 l 1
 277.4 797 l 1
 199.4 797 l 1
152.8 361 m 0
 152.8 119.6 198.65 85 347.65 85 c 0
 493.15 85 540.8 126.1 540.8 361 c 0
 540.8 640.65 476.9 648 347.65 648 c 0
 221.4 648 152.8 642 152.8 361 c 0
60.7998 361 m 0
 60.7998 704 179.65 737 347.65 737 c 0
 520.65 737 632.8 704 632.8 361 c 0
 632.8 38 527.65 -4 347.65 -4 c 0
 167.65 -4 60.7998 28 60.7998 361 c 0
EndSplineSet
Substitution2: "'c2sc' Capitals to Small Capitals in Latin lookup 17 subtable" ocircumflex.smcp
EndChar

StartChar: Otilde
Encoding: 213 213 74
Width: 674
VWidth: 0
Flags: HW
LayerCount: 2
Fore
SplineSet
177.9 841.9 m 1
 215.65 875.35 253.4 907.4 296.65 907.4 c 1
 345.75 904.85 373.7 873.25 403.5 872.4 c 0
 429.9 871.25 464.3 891.1 494.8 909 c 1
 517.4 862.2 l 1
 486.05 836 446.2 796.15 402.85 797.85 c 0
 348.8 800.4 330.95 832.85 294.5 832 c 0
 251.25 831.15 235.9 812.5 199.8 797 c 1
 177.9 841.9 l 1
152.8 361 m 0
 152.8 119.6 198.65 85 347.65 85 c 0
 493.15 85 540.8 126.1 540.8 361 c 0
 540.8 640.65 476.9 648 347.65 648 c 0
 221.4 648 152.8 642 152.8 361 c 0
60.7998 361 m 0
 60.7998 704 179.65 737 347.65 737 c 0
 520.65 737 632.8 704 632.8 361 c 0
 632.8 38 527.65 -4 347.65 -4 c 0
 167.65 -4 60.7998 28 60.7998 361 c 0
EndSplineSet
Substitution2: "'c2sc' Capitals to Small Capitals in Latin lookup 17 subtable" otilde.smcp
EndChar

StartChar: Odieresis
Encoding: 214 214 75
Width: 674
VWidth: 0
Flags: HW
LayerCount: 2
Fore
SplineSet
422.4 850.25 m 0
 422.4 879.45 446.45 902.5 475.65 902.5 c 0
 504.85 902.5 527.9 879.45 527.9 850.25 c 0
 527.9 821.05 504.85 797 475.65 797 c 0
 446.45 797 422.4 821.05 422.4 850.25 c 0
167.4 850.25 m 0
 167.4 879.45 191.45 902.5 220.65 902.5 c 0
 249.85 902.5 272.9 879.45 272.9 850.25 c 0
 272.9 821.05 249.85 797 220.65 797 c 0
 191.45 797 167.4 821.05 167.4 850.25 c 0
152.8 361 m 0
 152.8 119.6 198.65 85 347.65 85 c 0
 493.15 85 540.8 126.1 540.8 361 c 0
 540.8 640.65 476.9 648 347.65 648 c 0
 221.4 648 152.8 642 152.8 361 c 0
60.7998 361 m 0
 60.7998 704 179.65 737 347.65 737 c 0
 520.65 737 632.8 704 632.8 361 c 0
 632.8 38 527.65 -4 347.65 -4 c 0
 167.65 -4 60.7998 28 60.7998 361 c 0
EndSplineSet
Substitution2: "'c2sc' Capitals to Small Capitals in Latin lookup 17 subtable" odieresis.smcp
EndChar

StartChar: Oslash
Encoding: 216 216 76
Width: 676
VWidth: 0
Flags: HW
LayerCount: 2
Fore
SplineSet
212.7 115.3 m 1
 243.15 91.3 286.15 85 348.15 85 c 0
 493.65 85 542.15 126.1 542.15 361 c 0
 542.15 468.9 532.65 535.35 512.5 576.95 c 1
 212.7 115.3 l 1
154.15 361 m 0
 154.15 265.3 161.8 204.2 180.65 164.65 c 1
 478.1 624.05 l 1
 446.8 647.4 403.25 648 348.15 648 c 0
 221.9 648 154.15 642 154.15 361 c 0
62.15 361 m 0
 62.15 704 176.75 737 348.15 737 c 0
 420 737 481.45 731.85 528.9 700.15 c 1
 550.05 732 l 1
 614.8 732 l 1
 569 662.5 l 1
 610.85 608.35 634.15 516.65 634.15 361 c 0
 634.15 38 528.15 -4 348.15 -4 c 0
 270.55 -4 207.35 2 159.6 34.9 c 1
 136.55 0 l 1
 71.8 0 l 1
 120.1 74.3 l 1
 82 127.45 62.15 214.85 62.15 361 c 0
EndSplineSet
Substitution2: "'c2sc' Capitals to Small Capitals in Latin lookup 17 subtable" oslash.smcp
EndChar

StartChar: Ugrave
Encoding: 217 217 77
Width: 673
VWidth: 0
Flags: HW
LayerCount: 2
Fore
SplineSet
178.75 931.5 m 1
 281.25 931.5 l 1
 383.75 797 l 1
 308.75 797 l 1
 178.75 931.5 l 1
74.75 320 m 2
 74.75 732 l 1
 166.75 732 l 1
 166.75 320 l 2
 166.75 87.4502 235.05 84 348.75 84 c 0
 446.25 84 524.75 94.8496 524.75 320 c 2
 524.75 732 l 1
 617.75 732 l 1
 617.75 320 l 2
 617.75 -3 469.75 -5 348.75 -5 c 0
 212.75 -5 74.75 -13 74.75 320 c 2
EndSplineSet
Substitution2: "'c2sc' Capitals to Small Capitals in Latin lookup 17 subtable" ugrave.smcp
EndChar

StartChar: Uacute
Encoding: 218 218 78
Width: 673
VWidth: 0
Flags: HW
LayerCount: 2
Fore
SplineSet
308.75 797 m 1
 411.25 931.5 l 1
 513.75 931.5 l 1
 383.75 797 l 1
 308.75 797 l 1
74.75 320 m 2
 74.75 732 l 1
 166.75 732 l 1
 166.75 320 l 2
 166.75 87.4502 235.05 84 348.75 84 c 0
 446.25 84 524.75 94.8496 524.75 320 c 2
 524.75 732 l 1
 617.75 732 l 1
 617.75 320 l 2
 617.75 -3 469.75 -5 348.75 -5 c 0
 212.75 -5 74.75 -13 74.75 320 c 2
EndSplineSet
Substitution2: "'c2sc' Capitals to Small Capitals in Latin lookup 17 subtable" uacute.smcp
EndChar

StartChar: Ucircumflex
Encoding: 219 219 79
Width: 673
VWidth: 0
Flags: HW
LayerCount: 2
Fore
SplineSet
198 797 m 1
 312.45 928.5 l 1
 392.45 928.5 l 1
 494.5 797 l 1
 417.5 797 l 1
 349.8 865 l 1
 276 797 l 1
 198 797 l 1
74.75 320 m 2
 74.75 732 l 1
 166.75 732 l 1
 166.75 320 l 2
 166.75 87.4502 235.05 84 348.75 84 c 0
 446.25 84 524.75 94.8496 524.75 320 c 2
 524.75 732 l 1
 617.75 732 l 1
 617.75 320 l 2
 617.75 -3 469.75 -5 348.75 -5 c 0
 212.75 -5 74.75 -13 74.75 320 c 2
EndSplineSet
Substitution2: "'c2sc' Capitals to Small Capitals in Latin lookup 17 subtable" ucircumflex.smcp
EndChar

StartChar: Udieresis
Encoding: 220 220 80
Width: 673
VWidth: 0
Flags: HW
LayerCount: 2
Fore
SplineSet
421 850.25 m 0
 421 879.45 445.05 902.5 474.25 902.5 c 0
 503.45 902.5 526.5 879.45 526.5 850.25 c 0
 526.5 821.05 503.45 797 474.25 797 c 0
 445.05 797 421 821.05 421 850.25 c 0
166 850.25 m 0
 166 879.45 190.05 902.5 219.25 902.5 c 0
 248.45 902.5 271.5 879.45 271.5 850.25 c 0
 271.5 821.05 248.45 797 219.25 797 c 0
 190.05 797 166 821.05 166 850.25 c 0
74.75 320 m 2
 74.75 732 l 1
 166.75 732 l 1
 166.75 320 l 2
 166.75 87.4502 235.05 84 348.75 84 c 0
 446.25 84 524.75 94.8496 524.75 320 c 2
 524.75 732 l 1
 617.75 732 l 1
 617.75 320 l 2
 617.75 -3 469.75 -5 348.75 -5 c 0
 212.75 -5 74.75 -13 74.75 320 c 2
EndSplineSet
Substitution2: "'c2sc' Capitals to Small Capitals in Latin lookup 17 subtable" udieresis.smcp
EndChar

StartChar: Yacute
Encoding: 221 221 81
Width: 637
VWidth: 0
Flags: HW
LayerCount: 2
Fore
SplineSet
290.5 797 m 1
 393 931.5 l 1
 495.5 931.5 l 1
 365.5 797 l 1
 290.5 797 l 1
42 732 m 1
 142.5 732 l 1
 318.9 357 l 1
 513.5 732 l 1
 614 732 l 1
 364.3 251 l 1
 364.3 0 l 1
 272.3 0 l 1
 272.3 251 l 1
 42 732 l 1
EndSplineSet
Substitution2: "'c2sc' Capitals to Small Capitals in Latin lookup 17 subtable" yacute.smcp
EndChar

StartChar: agrave
Encoding: 224 224 82
Width: 519
VWidth: 0
Flags: HW
LayerCount: 2
Fore
SplineSet
99.2246 735.5 m 1
 201.725 735.5 l 1
 304.225 601 l 1
 229.225 601 l 1
 99.2246 735.5 l 1
129.3 137.6 m 2
 129.3 90.6504 154 78.5 185.75 78.5 c 0
 259.9 78.5 380.45 126.8 380.45 126.8 c 1
 380.45 257.35 l 1
 183.95 243 l 2
 142.6 239.15 129.3 210.6 129.3 181 c 2
 129.3 137.6 l 2
37.2998 128.55 m 2
 37.2998 186.55 l 2
 37.2998 265.8 85.0498 323 176.45 323 c 2
 176.45 323 380.45 322 380.45 323 c 2
 380.45 323 381.45 380 380.45 381 c 1
 380.45 440.8 349.95 458.5 301.45 458.5 c 0
 236.5 458.5 136.9 452.6 54.4502 446.65 c 1
 54.4502 509.5 l 1
 125.15 531.45 209.8 540.15 308.8 541 c 0
 400.35 541.85 472.45 498.35 472.45 382.5 c 2
 472.45 0 l 1
 402.3 0 l 1
 380.45 62.5 l 1
 377.4 59.3496 263.25 -6.4502 174.95 -6 c 0
 94 -5.25 37.2998 47.9004 37.2998 128.55 c 2
EndSplineSet
AlternateSubs2: "'salt' Access All Alternates in Latin lookup 4-1" agrave.salt
Substitution2: "'smcp' Lowercase to Small Capitals lookup 16-1" agrave.smcp
EndChar

StartChar: aacute
Encoding: 225 225 83
Width: 519
VWidth: 0
Flags: HW
LayerCount: 2
Fore
SplineSet
224.975 601 m 1
 327.475 735.5 l 1
 429.975 735.5 l 1
 299.975 601 l 1
 224.975 601 l 1
129.3 137.6 m 2
 129.3 90.6504 154 78.5 185.75 78.5 c 0
 259.9 78.5 380.45 126.8 380.45 126.8 c 1
 380.45 257.35 l 1
 183.95 243 l 2
 142.6 239.15 129.3 210.6 129.3 181 c 2
 129.3 137.6 l 2
37.2998 128.55 m 2
 37.2998 186.55 l 2
 37.2998 265.8 85.0498 323 176.45 323 c 2
 176.45 323 380.45 322 380.45 323 c 2
 380.45 323 381.45 380 380.45 381 c 1
 380.45 440.8 349.95 458.5 301.45 458.5 c 0
 236.5 458.5 136.9 452.6 54.4502 446.65 c 1
 54.4502 509.5 l 1
 125.15 531.45 209.8 540.15 308.8 541 c 0
 400.35 541.85 472.45 498.35 472.45 382.5 c 2
 472.45 0 l 1
 402.3 0 l 1
 380.45 62.5 l 1
 377.4 59.3496 263.25 -6.4502 174.95 -6 c 0
 94 -5.25 37.2998 47.9004 37.2998 128.55 c 2
EndSplineSet
AlternateSubs2: "'salt' Access All Alternates in Latin lookup 4-1" aacute.salt
Substitution2: "'smcp' Lowercase to Small Capitals lookup 16-1" aacute.smcp
EndChar

StartChar: acircumflex
Encoding: 226 226 84
Width: 519
VWidth: 0
Flags: HW
LayerCount: 2
Fore
SplineSet
115.5 601 m 1
 229.95 732.5 l 1
 309.95 732.5 l 1
 412 601 l 1
 335 601 l 1
 267.3 669 l 1
 193.5 601 l 1
 115.5 601 l 1
129.3 137.6 m 2
 129.3 90.6504 154 78.5 185.75 78.5 c 0
 259.9 78.5 380.45 126.8 380.45 126.8 c 1
 380.45 257.35 l 1
 183.95 243 l 2
 142.6 239.15 129.3 210.6 129.3 181 c 2
 129.3 137.6 l 2
37.2998 128.55 m 2
 37.2998 186.55 l 2
 37.2998 265.8 85.0498 323 176.45 323 c 2
 176.45 323 380.45 322 380.45 323 c 2
 380.45 323 381.45 380 380.45 381 c 1
 380.45 440.8 349.95 458.5 301.45 458.5 c 0
 236.5 458.5 136.9 452.6 54.4502 446.65 c 1
 54.4502 509.5 l 1
 125.15 531.45 209.8 540.15 308.8 541 c 0
 400.35 541.85 472.45 498.35 472.45 382.5 c 2
 472.45 0 l 1
 402.3 0 l 1
 380.45 62.5 l 1
 377.4 59.3496 263.25 -6.4502 174.95 -6 c 0
 94 -5.25 37.2998 47.9004 37.2998 128.55 c 2
EndSplineSet
AlternateSubs2: "'salt' Access All Alternates in Latin lookup 4-1" acircumflex.salt
Substitution2: "'smcp' Lowercase to Small Capitals lookup 16-1" acircumflex.smcp
EndChar

StartChar: atilde
Encoding: 227 227 85
Width: 519
VWidth: 0
Flags: HW
LayerCount: 2
Fore
SplineSet
89.75 645.9 m 1
 127.5 679.35 165.25 711.4 208.5 711.4 c 1
 257.6 708.85 285.55 677.25 315.35 676.4 c 0
 341.75 675.25 376.15 695.1 406.65 713 c 1
 429.25 666.2 l 1
 397.9 640 358.05 600.15 314.7 601.85 c 0
 260.65 604.4 242.8 636.85 206.35 636 c 0
 163.1 635.15 147.75 616.5 111.65 601 c 1
 89.75 645.9 l 1
129.3 137.6 m 2
 129.3 90.6504 154 78.5 185.75 78.5 c 0
 259.9 78.5 380.45 126.8 380.45 126.8 c 1
 380.45 257.35 l 1
 183.95 243 l 2
 142.6 239.15 129.3 210.6 129.3 181 c 2
 129.3 137.6 l 2
37.2998 128.55 m 2
 37.2998 186.55 l 2
 37.2998 265.8 85.0498 323 176.45 323 c 2
 176.45 323 380.45 322 380.45 323 c 2
 380.45 323 381.45 380 380.45 381 c 1
 380.45 440.8 349.95 458.5 301.45 458.5 c 0
 236.5 458.5 136.9 452.6 54.4502 446.65 c 1
 54.4502 509.5 l 1
 125.15 531.45 209.8 540.15 308.8 541 c 0
 400.35 541.85 472.45 498.35 472.45 382.5 c 2
 472.45 0 l 1
 402.3 0 l 1
 380.45 62.5 l 1
 377.4 59.3496 263.25 -6.4502 174.95 -6 c 0
 94 -5.25 37.2998 47.9004 37.2998 128.55 c 2
EndSplineSet
AlternateSubs2: "'salt' Access All Alternates in Latin lookup 4-1" atilde.salt
Substitution2: "'smcp' Lowercase to Small Capitals lookup 16-1" atilde.smcp
EndChar

StartChar: adieresis
Encoding: 228 228 86
Width: 519
VWidth: 0
Flags: HW
LayerCount: 2
Fore
SplineSet
337.096 654.264 m 0
 337.096 683.464 361.146 706.514 390.346 706.514 c 0
 419.546 706.514 442.596 683.464 442.596 654.264 c 0
 442.596 625.063 419.546 601.014 390.346 601.014 c 0
 361.146 601.014 337.096 625.063 337.096 654.264 c 0
82.0957 654.264 m 0
 82.0957 683.464 106.146 706.514 135.346 706.514 c 0
 164.546 706.514 187.596 683.464 187.596 654.264 c 0
 187.596 625.063 164.546 601.014 135.346 601.014 c 0
 106.146 601.014 82.0957 625.063 82.0957 654.264 c 0
129.3 137.6 m 2
 129.3 90.6504 154 78.5 185.75 78.5 c 0
 259.9 78.5 380.45 126.8 380.45 126.8 c 1
 380.45 257.35 l 1
 183.95 243 l 2
 142.6 239.15 129.3 210.6 129.3 181 c 2
 129.3 137.6 l 2
37.2998 128.55 m 2
 37.2998 186.55 l 2
 37.2998 265.8 85.0498 323 176.45 323 c 2
 176.45 323 380.45 322 380.45 323 c 2
 380.45 323 381.45 380 380.45 381 c 1
 380.45 440.8 349.95 458.5 301.45 458.5 c 0
 236.5 458.5 136.9 452.6 54.4502 446.65 c 1
 54.4502 509.5 l 1
 125.15 531.45 209.8 540.15 308.8 541 c 0
 400.35 541.85 472.45 498.35 472.45 382.5 c 2
 472.45 0 l 1
 402.3 0 l 1
 380.45 62.5 l 1
 377.4 59.3496 263.25 -6.4502 174.95 -6 c 0
 94 -5.25 37.2998 47.9004 37.2998 128.55 c 2
EndSplineSet
AlternateSubs2: "'salt' Access All Alternates in Latin lookup 4-1" adieresis.salt
Substitution2: "'smcp' Lowercase to Small Capitals lookup 16-1" adieresis.smcp
EndChar

StartChar: aring
Encoding: 229 229 87
Width: 519
VWidth: 0
Flags: HW
LayerCount: 2
Fore
SplineSet
212.275 677.5 m 0
 212.275 649.15 235.775 626.65 264.125 626.65 c 0
 292.475 626.65 314.975 649.15 314.975 677.5 c 0
 314.975 705.85 292.475 729.35 264.125 729.35 c 0
 235.775 729.35 212.275 705.85 212.275 677.5 c 0
162.125 677.5 m 0
 162.125 734.5 208.125 780.5 264.125 780.5 c 0
 320.125 780.5 365.125 734.5 365.125 677.5 c 0
 365.125 620.5 320.125 575.5 264.125 575.5 c 0
 208.125 575.5 162.125 620.5 162.125 677.5 c 0
129.3 137.6 m 2
 129.3 90.6504 154 78.5 185.75 78.5 c 0
 259.9 78.5 380.45 126.8 380.45 126.8 c 1
 380.45 257.35 l 1
 183.95 243 l 2
 142.6 239.15 129.3 210.6 129.3 181 c 2
 129.3 137.6 l 2
37.2998 128.55 m 2
 37.2998 186.55 l 2
 37.2998 265.8 85.0498 323 176.45 323 c 2
 176.45 323 380.45 322 380.45 323 c 2
 380.45 323 381.45 380 380.45 381 c 1
 380.45 440.8 349.95 458.5 301.45 458.5 c 0
 236.5 458.5 136.9 452.6 54.4502 446.65 c 1
 54.4502 509.5 l 1
 125.15 531.45 209.8 540.15 308.8 541 c 0
 400.35 541.85 472.45 498.35 472.45 382.5 c 2
 472.45 0 l 1
 402.3 0 l 1
 380.45 62.5 l 1
 377.4 59.3496 263.25 -6.4502 174.95 -6 c 0
 94 -5.25 37.2998 47.9004 37.2998 128.55 c 2
EndSplineSet
AlternateSubs2: "'salt' Access All Alternates in Latin lookup 4-1" aring.salt
Substitution2: "'smcp' Lowercase to Small Capitals lookup 16-1" aring.smcp
EndChar

StartChar: ae
Encoding: 230 230 88
Width: 863
VWidth: 0
Flags: HW
LayerCount: 2
Fore
SplineSet
477.05 307.9 m 1
 676 307.9 l 2
 715.95 307.9 734.05 323.45 734.05 354.35 c 0
 734.05 449 716.75 457.1 619.85 457.1 c 0
 517.5 457.1 476.75 457 477.05 307.9 c 1
129.3 141.95 m 2
 129.3 95 154 83.6 185.75 83.6 c 0
 259.9 83.6 380.45 131.9 380.45 131.9 c 1
 380.45 248.2 l 1
 183.95 233.85 l 2
 142.6 230 129.3 201.45 129.3 171.85 c 2
 129.3 141.95 l 2
37.3 133.65 m 2
 37.3 172.3 l 2
 37.3 251.55 85.05 308.75 176.45 308.75 c 2
 176.45 308.75 380.45 307.75 380.45 308.75 c 2
 380.45 308.75 381.45 385.1 380.45 386.1 c 1
 380.45 445.9 349.95 463.6 301.45 463.6 c 0
 234.25 463.6 139.45 457.55 54.45 451.6 c 1
 54.45 514.6 l 1
 120.9 538.25 209.8 545.25 308.8 546.1 c 0
 362.25 546.65 410.8 530.15 439.25 492.3 c 1
 477.3 532.7 535.15 540.1 616.9 540.1 c 0
 749.7 540.1 826.05 525.7 826.05 352.4 c 0
 826.05 270.6 781.9 228.9 685.9 228.9 c 2
 477.05 228.9 l 1
 477.05 111.85 503.65 84.45 581.05 84.45 c 0
 670.05 84.45 741.05 83.6 816.05 94.6 c 1
 816.05 28.1 l 1
 736.7 3.75 643.05 0.1 560.05 0.1 c 0
 475.9 0.1 443.1 27.35 408.45 69.8 c 1
 404.05 63.65 261.9 -1.2 174.95 -0.9 c 0
 94 -0.15 37.3 53 37.3 133.65 c 2
EndSplineSet
Substitution2: "'smcp' Lowercase to Small Capitals lookup 16-1" ae.smcp
EndChar

StartChar: ccedilla
Encoding: 231 231 89
Width: 498
VWidth: 0
Flags: HW
LayerCount: 2
Fore
SplineSet
170.35 -131.35 m 1
 220.95 -116.35 l 1
 248.95 -104.35 252.35 -75.15 252.35 -37.15 c 1
 326.85 -37.15 l 1
 326.85 -139.15 304.65 -174.65 222.85 -174.65 c 2
 170.35 -174.65 l 1
 170.35 -131.35 l 1
46.7 266 m 0
 46.7 494.4 119.7 537.7 221.7 537.7 c 0
 273.7 537.7 379.4 525.7 454.2 508.5 c 1
 454.2 445.5 l 1
 454.2 445.5 327.05 453.2 238.05 453.2 c 0
 176.85 453.2 138.7 442.45 138.7 262.3 c 0
 138.7 113.95 166.05 77.8 238.05 77.8 c 0
 330.05 77.8 461.2 88.35 461.2 88.35 c 1
 461.2 23.65 l 1
 381.1 -3.85 304.7 -5.7 221.7 -6.7 c 1
 122.7 -6.7 46.7 36.75 46.7 266 c 0
EndSplineSet
Substitution2: "'smcp' Lowercase to Small Capitals lookup 16-1" ccedilla.smcp
EndChar

StartChar: egrave
Encoding: 232 232 90
Width: 525
VWidth: 0
Flags: HW
LayerCount: 2
Fore
SplineSet
112.25 730.5 m 1
 214.75 730.5 l 1
 317.25 596 l 1
 242.25 596 l 1
 112.25 730.5 l 1
138.7 301 m 1
 337.8 301 l 2
 377.75 301 395.7 316.55 395.7 347.45 c 0
 395.7 442.1 378.55 452 281.65 452 c 0
 179.3 452 138.4 450.1 138.7 301 c 1
46.7002 268 m 0
 46.7002 502.6 113.5 535 278.7 535 c 0
 411.5 535 487.7 521.5 487.7 345.5 c 0
 487.7 263.7 443.7 220.5 347.7 220.5 c 2
 138.7 220.5 l 1
 138.7 103.45 165.3 79.3496 242.7 79.3496 c 0
 331.7 79.3496 402.7 78.5 477.7 89.5 c 1
 477.7 23 l 1
 398.35 -1.34961 304.7 -5 221.7 -5 c 0
 86.7002 -5 46.7002 63.5996 46.7002 268 c 0
EndSplineSet
Substitution2: "'smcp' Lowercase to Small Capitals lookup 16-1" egrave.smcp
EndChar

StartChar: eacute
Encoding: 233 233 91
Width: 525
VWidth: 0
Flags: HW
LayerCount: 2
Fore
SplineSet
233.75 596 m 1
 336.25 730.5 l 1
 438.75 730.5 l 1
 308.75 596 l 1
 233.75 596 l 1
138.7 301 m 1
 337.8 301 l 2
 377.75 301 395.7 316.55 395.7 347.45 c 0
 395.7 442.1 378.55 452 281.65 452 c 0
 179.3 452 138.4 450.1 138.7 301 c 1
46.7002 268 m 0
 46.7002 502.6 113.5 535 278.7 535 c 0
 411.5 535 487.7 521.5 487.7 345.5 c 0
 487.7 263.7 443.7 220.5 347.7 220.5 c 2
 138.7 220.5 l 1
 138.7 103.45 165.3 79.3496 242.7 79.3496 c 0
 331.7 79.3496 402.7 78.5 477.7 89.5 c 1
 477.7 23 l 1
 398.35 -1.34961 304.7 -5 221.7 -5 c 0
 86.7002 -5 46.7002 63.5996 46.7002 268 c 0
EndSplineSet
Substitution2: "'smcp' Lowercase to Small Capitals lookup 16-1" eacute.smcp
EndChar

StartChar: ecircumflex
Encoding: 234 234 92
Width: 525
VWidth: 0
Flags: HW
LayerCount: 2
Fore
SplineSet
123.65 596 m 1
 238.1 727.5 l 1
 318.1 727.5 l 1
 420.15 596 l 1
 343.15 596 l 1
 275.45 664 l 1
 201.65 596 l 1
 123.65 596 l 1
138.7 301 m 1
 337.8 301 l 2
 377.75 301 395.7 316.55 395.7 347.45 c 0
 395.7 442.1 378.55 452 281.65 452 c 0
 179.3 452 138.4 450.1 138.7 301 c 1
46.7002 268 m 0
 46.7002 502.6 113.5 535 278.7 535 c 0
 411.5 535 487.7 521.5 487.7 345.5 c 0
 487.7 263.7 443.7 220.5 347.7 220.5 c 2
 138.7 220.5 l 1
 138.7 103.45 165.3 79.3496 242.7 79.3496 c 0
 331.7 79.3496 402.7 78.5 477.7 89.5 c 1
 477.7 23 l 1
 398.35 -1.34961 304.7 -5 221.7 -5 c 0
 86.7002 -5 46.7002 63.5996 46.7002 268 c 0
EndSplineSet
Substitution2: "'smcp' Lowercase to Small Capitals lookup 16-1" ecircumflex.smcp
EndChar

StartChar: edieresis
Encoding: 235 235 93
Width: 525
VWidth: 0
Flags: HW
LayerCount: 2
Fore
SplineSet
344.1 649.25 m 0
 344.1 678.45 368.15 701.5 397.35 701.5 c 0
 426.55 701.5 449.6 678.45 449.6 649.25 c 0
 449.6 620.05 426.55 596 397.35 596 c 0
 368.15 596 344.1 620.05 344.1 649.25 c 0
89.0996 649.25 m 0
 89.0996 678.45 113.15 701.5 142.35 701.5 c 0
 171.55 701.5 194.6 678.45 194.6 649.25 c 0
 194.6 620.05 171.55 596 142.35 596 c 0
 113.15 596 89.0996 620.05 89.0996 649.25 c 0
138.7 301 m 1
 337.8 301 l 2
 377.75 301 395.7 316.55 395.7 347.45 c 0
 395.7 442.1 378.55 452 281.65 452 c 0
 179.3 452 138.4 450.1 138.7 301 c 1
46.7002 268 m 0
 46.7002 502.6 113.5 535 278.7 535 c 0
 411.5 535 487.7 521.5 487.7 345.5 c 0
 487.7 263.7 443.7 220.5 347.7 220.5 c 2
 138.7 220.5 l 1
 138.7 103.45 165.3 79.3496 242.7 79.3496 c 0
 331.7 79.3496 402.7 78.5 477.7 89.5 c 1
 477.7 23 l 1
 398.35 -1.34961 304.7 -5 221.7 -5 c 0
 86.7002 -5 46.7002 63.5996 46.7002 268 c 0
EndSplineSet
Substitution2: "'smcp' Lowercase to Small Capitals lookup 16-1" edieresis.smcp
EndChar

StartChar: igrave
Encoding: 236 236 94
Width: 204
VWidth: 0
Flags: HW
LayerCount: 2
Fore
SplineSet
-65.4004 730.5 m 1
 37.0996 730.5 l 1
 139.6 596 l 1
 64.5996 596 l 1
 -65.4004 730.5 l 1
56.0996 0 m 1
 56.0996 531 l 1
 148.1 531 l 1
 148.1 0 l 1
 56.0996 0 l 1
EndSplineSet
Substitution2: "'smcp' Lowercase to Small Capitals lookup 16-1" igrave.smcp
EndChar

StartChar: iacute
Encoding: 237 237 95
Width: 204
VWidth: 0
Flags: HW
LayerCount: 2
Fore
SplineSet
64.5996 596 m 1
 167.1 730.5 l 1
 269.6 730.5 l 1
 139.6 596 l 1
 64.5996 596 l 1
56.0996 0 m 1
 56.0996 531 l 1
 148.1 531 l 1
 148.1 0 l 1
 56.0996 0 l 1
EndSplineSet
Substitution2: "'smcp' Lowercase to Small Capitals lookup 16-1" iacute.smcp
EndChar

StartChar: icircumflex
Encoding: 238 238 96
Width: 204
VWidth: 0
Flags: HW
LayerCount: 2
Fore
SplineSet
-46.1504 596 m 1
 68.2998 727.5 l 1
 148.3 727.5 l 1
 250.35 596 l 1
 173.35 596 l 1
 105.65 664 l 1
 31.8496 596 l 1
 -46.1504 596 l 1
56.0996 0 m 1
 56.0996 531 l 1
 148.1 531 l 1
 148.1 0 l 1
 56.0996 0 l 1
EndSplineSet
Substitution2: "'smcp' Lowercase to Small Capitals lookup 16-1" icircumflex.smcp
EndChar

StartChar: idieresis
Encoding: 239 239 97
Width: 204
VWidth: 0
Flags: HW
LayerCount: 2
Fore
SplineSet
176.85 649.25 m 0
 176.85 678.45 200.9 701.5 230.1 701.5 c 0
 259.3 701.5 282.35 678.45 282.35 649.25 c 0
 282.35 620.05 259.3 596 230.1 596 c 0
 200.9 596 176.85 620.05 176.85 649.25 c 0
-78.1504 649.25 m 0
 -78.1504 678.45 -54.0996 701.5 -24.9004 701.5 c 0
 4.2998 701.5 27.3496 678.45 27.3496 649.25 c 0
 27.3496 620.05 4.2998 596 -24.9004 596 c 0
 -54.0996 596 -78.1504 620.05 -78.1504 649.25 c 0
56.0996 0 m 1
 56.0996 531 l 1
 148.1 531 l 1
 148.1 0 l 1
 56.0996 0 l 1
EndSplineSet
Substitution2: "'smcp' Lowercase to Small Capitals lookup 16-1" idieresis.smcp
EndChar

StartChar: eth
Encoding: 240 240 98
Width: 538
VWidth: 0
Flags: HW
LayerCount: 2
Fore
SplineSet
129.3 264 m 0
 129.3 101.05 168.4 91 224 91 c 2
 313.2 91 l 2
 391.45 91 409.3 151.7 409.3 264 c 0
 409.3 404.7 390.6 442 313.2 442 c 2
 224 442 l 2
 162.8 442 129.3 415.1 129.3 264 c 0
37.3 264 m 0
 37.3 434 82.7 531 217.7 531 c 2
 305.7 531 l 2
 311.7 531 362.3 531 377.2 517.5 c 1
 363.95 561.25 342.15 606.05 307.7 639.9 c 1
 171.25 583.1 l 1
 146.05 642.5 l 1
 245 683.5 l 1
 203.5 703.8 154.85 706.35 116.2 704.5 c 1
 116.2 783 l 1
 214.5 783 283.7 763.7 337.95 723.7 c 1
 449.05 769.65 l 1
 475.1 710.25 l 1
 390.55 675.6 l 1
 487.85 558.3 501.3 374.25 501.3 264 c 0
 501.3 65 426.2 0 319.2 0 c 2
 217.7 0 l 2
 80.7 0 37.3 85 37.3 264 c 0
EndSplineSet
Substitution2: "'smcp' Lowercase to Small Capitals lookup 16-1" eth.smcp
EndChar

StartChar: ograve
Encoding: 242 242 99
Width: 565
VWidth: 0
Flags: HW
LayerCount: 2
Fore
SplineSet
123.95 730.5 m 1
 226.45 730.5 l 1
 328.95 596 l 1
 253.95 596 l 1
 123.95 730.5 l 1
138.7 258 m 0
 138.7 91.7998 187.75 79.5 282.95 79.5 c 0
 383 79.5 427.2 92.5996 427.2 258 c 0
 427.2 436.75 390.8 451.5 282.95 451.5 c 0
 178.9 451.5 138.7 437.45 138.7 258 c 0
46.7002 258 m 0
 46.7002 475 107.45 536 282.95 536 c 0
 463 536 519.2 469 519.2 258 c 0
 519.2 61 463.75 -5 282.95 -5 c 0
 102.75 -5 46.7002 68 46.7002 258 c 0
EndSplineSet
Substitution2: "'smcp' Lowercase to Small Capitals lookup 16-1" ograve.smcp
EndChar

StartChar: oacute
Encoding: 243 243 100
Width: 565
VWidth: 0
Flags: HW
LayerCount: 2
Fore
SplineSet
245.45 596 m 1
 347.95 730.5 l 1
 450.45 730.5 l 1
 320.45 596 l 1
 245.45 596 l 1
138.7 258 m 0
 138.7 91.7998 187.75 79.5 282.95 79.5 c 0
 383 79.5 427.2 92.5996 427.2 258 c 0
 427.2 436.75 390.8 451.5 282.95 451.5 c 0
 178.9 451.5 138.7 437.45 138.7 258 c 0
46.7002 258 m 0
 46.7002 475 107.45 536 282.95 536 c 0
 463 536 519.2 469 519.2 258 c 0
 519.2 61 463.75 -5 282.95 -5 c 0
 102.75 -5 46.7002 68 46.7002 258 c 0
EndSplineSet
Substitution2: "'smcp' Lowercase to Small Capitals lookup 16-1" oacute.smcp
EndChar

StartChar: ocircumflex
Encoding: 244 244 101
Width: 565
VWidth: 0
Flags: HW
LayerCount: 2
Fore
SplineSet
138.95 596 m 1
 253.4 727.5 l 1
 333.4 727.5 l 1
 435.45 596 l 1
 358.45 596 l 1
 290.75 664 l 1
 216.95 596 l 1
 138.95 596 l 1
138.7 258 m 0
 138.7 91.7998 187.75 79.5 282.95 79.5 c 0
 383 79.5 427.2 92.5996 427.2 258 c 0
 427.2 436.75 390.8 451.5 282.95 451.5 c 0
 178.9 451.5 138.7 437.45 138.7 258 c 0
46.7002 258 m 0
 46.7002 475 107.45 536 282.95 536 c 0
 463 536 519.2 469 519.2 258 c 0
 519.2 61 463.75 -5 282.95 -5 c 0
 102.75 -5 46.7002 68 46.7002 258 c 0
EndSplineSet
Substitution2: "'smcp' Lowercase to Small Capitals lookup 16-1" ocircumflex.smcp
EndChar

StartChar: otilde
Encoding: 245 245 102
Width: 565
VWidth: 0
Flags: HW
LayerCount: 2
Fore
SplineSet
120.85 640.9 m 1
 158.6 674.35 196.35 706.4 239.6 706.4 c 1
 288.7 703.85 316.65 672.25 346.45 671.4 c 0
 372.85 670.25 407.25 690.1 437.75 708 c 1
 460.35 661.2 l 1
 429 635 389.15 595.15 345.8 596.85 c 0
 291.75 599.4 273.9 631.85 237.45 631 c 0
 194.2 630.15 178.85 611.5 142.75 596 c 1
 120.85 640.9 l 1
138.7 258 m 0
 138.7 91.7998 187.75 79.5 282.95 79.5 c 0
 383 79.5 427.2 92.5996 427.2 258 c 0
 427.2 436.75 390.8 451.5 282.95 451.5 c 0
 178.9 451.5 138.7 437.45 138.7 258 c 0
46.7002 258 m 0
 46.7002 475 107.45 536 282.95 536 c 0
 463 536 519.2 469 519.2 258 c 0
 519.2 61 463.75 -5 282.95 -5 c 0
 102.75 -5 46.7002 68 46.7002 258 c 0
EndSplineSet
Substitution2: "'smcp' Lowercase to Small Capitals lookup 16-1" otilde.smcp
EndChar

StartChar: odieresis
Encoding: 246 246 103
Width: 565
VWidth: 0
Flags: HW
LayerCount: 2
Fore
SplineSet
358.55 649.25 m 0
 358.55 678.45 382.6 701.5 411.8 701.5 c 0
 441 701.5 464.05 678.45 464.05 649.25 c 0
 464.05 620.05 441 596 411.8 596 c 0
 382.6 596 358.55 620.05 358.55 649.25 c 0
103.55 649.25 m 0
 103.55 678.45 127.6 701.5 156.8 701.5 c 0
 186 701.5 209.05 678.45 209.05 649.25 c 0
 209.05 620.05 186 596 156.8 596 c 0
 127.6 596 103.55 620.05 103.55 649.25 c 0
138.7 258 m 0
 138.7 91.7998 187.75 79.5 282.95 79.5 c 0
 383 79.5 427.2 92.5996 427.2 258 c 0
 427.2 436.75 390.8 451.5 282.95 451.5 c 0
 178.9 451.5 138.7 437.45 138.7 258 c 0
46.7002 258 m 0
 46.7002 475 107.45 536 282.95 536 c 0
 463 536 519.2 469 519.2 258 c 0
 519.2 61 463.75 -5 282.95 -5 c 0
 102.75 -5 46.7002 68 46.7002 258 c 0
EndSplineSet
Substitution2: "'smcp' Lowercase to Small Capitals lookup 16-1" odieresis.smcp
EndChar

StartChar: ntilde
Encoding: 241 241 104
Width: 545
VWidth: 0
Flags: HW
LayerCount: 2
Fore
SplineSet
107.85 644.9 m 1
 145.6 678.35 183.35 710.4 226.6 710.4 c 1
 275.7 707.85 303.65 676.25 333.45 675.4 c 0
 359.85 674.25 394.25 694.1 424.75 712 c 1
 447.35 665.2 l 1
 416 639 376.15 599.15 332.8 600.85 c 0
 278.75 603.4 260.9 635.85 224.45 635 c 0
 181.2 634.15 165.85 615.5 129.75 600 c 1
 107.85 644.9 l 1
56.0996 0 m 1
 56.0996 531 l 1
 124.6 531 l 1
 148.1 470.5 l 1
 204.9 504.9 255.6 540 336.6 540 c 0
 447.4 540 499.1 457.1 499.1 365.5 c 2
 499.1 0 l 1
 407.1 0 l 1
 407.1 366.1 l 2
 407.1 428.5 372.3 455.5 325.65 455.5 c 0
 252.1 455.5 215.35 437 148.1 401.5 c 1
 148.1 0 l 1
 56.0996 0 l 1
EndSplineSet
AlternateSubs2: "'salt' Access All Alternates in Latin lookup 4-1" ntilde.salt
Substitution2: "'smcp' Lowercase to Small Capitals lookup 16-1" ntilde.smcp
EndChar

StartChar: oslash
Encoding: 248 248 105
Width: 571
VWidth: 0
Flags: HW
LayerCount: 2
Fore
SplineSet
187.95 98.8 m 1
 211.1 81.65 244.65 79.5 285.95 79.5 c 0
 386 79.5 430.2 92.6 430.2 258 c 0
 430.2 326.35 424.25 368.35 409.8 394.9 c 1
 187.95 98.8 l 1
141.7 258 m 0
 141.7 205.85 147.65 169.85 158.7 145.75 c 1
 375.45 438.3 l 1
 354 449.2 324.7 451.5 285.95 451.5 c 0
 181.9 451.5 141.7 437.45 141.7 258 c 0
49.7 258 m 0
 49.7 475 110.45 536 285.95 536 c 0
 347.3 536 394.2 528.7 429.65 510.1 c 1
 445.7 531 l 1
 514.7 531 l 1
 472.55 475.3 l 1
 508.5 432.15 522.2 362.9 522.2 258 c 0
 522.2 61 466.75 -5 285.95 -5 c 0
 218.65 -5 169.05 5 132.75 27 c 1
 112.3 0 l 1
 47.55 0 l 1
 94.1 62.65 l 1
 61.7 104.65 49.7 168.2 49.7 258 c 0
EndSplineSet
Substitution2: "'smcp' Lowercase to Small Capitals lookup 16-1" oslash.smcp
EndChar

StartChar: thorn
Encoding: 254 254 106
Width: 554
VWidth: 0
Flags: HW
LayerCount: 2
Fore
SplineSet
157.35 96.5 m 1
 228.55 75.3 284.05 75.55 332.85 73 c 1
 388.9 73 425.3 109.1 425.3 266.3 c 0
 425.3 388.9 389.9 452.05 332.85 452.05 c 1
 272.95 448.65 211.55 429.2 157.35 406.25 c 1
 157.35 96.5 l 1
65.35 -270 m 1
 65.35 782 l 1
 157.35 782 l 1
 157.35 471.6 l 1
 185.3 492.7 276.1 538.5 342.75 538.5 c 0
 476.2 538.5 517.3 410.2 517.3 266.1 c 0
 517.3 127 495.25 -10.75 342.75 -10.75 c 0
 297.75 -10.75 217 1.95 157.35 27.5 c 1
 157.35 -270 l 1
 65.35 -270 l 1
EndSplineSet
Substitution2: "'smcp' Lowercase to Small Capitals lookup 16-1" thorn.smcp
EndChar

StartChar: ugrave
Encoding: 249 249 107
Width: 545
VWidth: 0
Flags: HW
LayerCount: 2
Fore
SplineSet
109.2 730.5 m 1
 211.7 730.5 l 1
 314.2 596 l 1
 239.2 596 l 1
 109.2 730.5 l 1
46.7002 165.5 m 2
 46.7002 531 l 1
 138.7 531 l 1
 138.7 164.9 l 2
 138.7 102.5 173.5 75.5 220.15 75.5 c 0
 293.7 75.5 330.45 94 397.7 129.5 c 1
 397.7 531 l 1
 489.7 531 l 1
 489.7 0 l 1
 421.2 0 l 1
 397.7 60.5 l 1
 338.95 26.4004 290.2 -9 209.2 -9 c 0
 98.4004 -9 46.7002 73.9004 46.7002 165.5 c 2
EndSplineSet
AlternateSubs2: "'salt' Access All Alternates in Latin lookup 4-1" ugrave.salt
Substitution2: "'smcp' Lowercase to Small Capitals lookup 16-1" ugrave.smcp
EndChar

StartChar: uacute
Encoding: 250 250 108
Width: 545
VWidth: 0
Flags: HW
LayerCount: 2
Fore
SplineSet
230.7 596 m 1
 333.2 730.5 l 1
 435.7 730.5 l 1
 305.7 596 l 1
 230.7 596 l 1
46.7002 165.5 m 2
 46.7002 531 l 1
 138.7 531 l 1
 138.7 164.9 l 2
 138.7 102.5 173.5 75.5 220.15 75.5 c 0
 293.7 75.5 330.45 94 397.7 129.5 c 1
 397.7 531 l 1
 489.7 531 l 1
 489.7 0 l 1
 421.2 0 l 1
 397.7 60.5 l 1
 338.95 26.4004 290.2 -9 209.2 -9 c 0
 98.4004 -9 46.7002 73.9004 46.7002 165.5 c 2
EndSplineSet
AlternateSubs2: "'salt' Access All Alternates in Latin lookup 4-1" uacute.salt
Substitution2: "'smcp' Lowercase to Small Capitals lookup 16-1" uacute.smcp
EndChar

StartChar: ucircumflex
Encoding: 251 251 109
Width: 545
VWidth: 0
Flags: HW
LayerCount: 2
Fore
SplineSet
119.95 596 m 1
 234.4 727.5 l 1
 314.4 727.5 l 1
 416.45 596 l 1
 339.45 596 l 1
 271.75 664 l 1
 197.95 596 l 1
 119.95 596 l 1
46.7002 165.5 m 2
 46.7002 531 l 1
 138.7 531 l 1
 138.7 164.9 l 2
 138.7 102.5 173.5 75.5 220.15 75.5 c 0
 293.7 75.5 330.45 94 397.7 129.5 c 1
 397.7 531 l 1
 489.7 531 l 1
 489.7 0 l 1
 421.2 0 l 1
 397.7 60.5 l 1
 338.95 26.4004 290.2 -9 209.2 -9 c 0
 98.4004 -9 46.7002 73.9004 46.7002 165.5 c 2
EndSplineSet
AlternateSubs2: "'salt' Access All Alternates in Latin lookup 4-1" ucircumflex.salt
Substitution2: "'smcp' Lowercase to Small Capitals lookup 16-1" ucircumflex.smcp
EndChar

StartChar: udieresis
Encoding: 252 252 110
Width: 545
VWidth: 0
Flags: HW
LayerCount: 2
Fore
SplineSet
342.95 649.25 m 0
 342.95 678.45 367 701.5 396.2 701.5 c 0
 425.4 701.5 448.45 678.45 448.45 649.25 c 0
 448.45 620.05 425.4 596 396.2 596 c 0
 367 596 342.95 620.05 342.95 649.25 c 0
87.9502 649.25 m 0
 87.9502 678.45 112 701.5 141.2 701.5 c 0
 170.4 701.5 193.45 678.45 193.45 649.25 c 0
 193.45 620.05 170.4 596 141.2 596 c 0
 112 596 87.9502 620.05 87.9502 649.25 c 0
46.7002 165.5 m 2
 46.7002 531 l 1
 138.7 531 l 1
 138.7 164.9 l 2
 138.7 102.5 173.5 75.5 220.15 75.5 c 0
 293.7 75.5 330.45 94 397.7 129.5 c 1
 397.7 531 l 1
 489.7 531 l 1
 489.7 0 l 1
 421.2 0 l 1
 397.7 60.5 l 1
 338.95 26.4004 290.2 -9 209.2 -9 c 0
 98.4004 -9 46.7002 73.9004 46.7002 165.5 c 2
EndSplineSet
AlternateSubs2: "'salt' Access All Alternates in Latin lookup 4-1" udieresis.salt
Substitution2: "'smcp' Lowercase to Small Capitals lookup 16-1" udieresis.smcp
EndChar

StartChar: yacute
Encoding: 253 253 111
Width: 560
VWidth: 0
Flags: HW
LayerCount: 2
Fore
SplineSet
242.15 596 m 1
 344.65 730.5 l 1
 447.15 730.5 l 1
 317.15 596 l 1
 242.15 596 l 1
19.6504 531 m 1
 118.65 531 l 1
 237.45 127.85 l 2
 253.737 74.467 298.45 89 300 88.8496 c 1
 439.55 531 l 1
 539.65 531 l 1
 319.3 -168 l 1
 244.9 -270 l 1
 184.2 -270 l 1
 272.95 0 l 1
 237.55 0 173.65 11.5996 142.6 116.9 c 2
 19.6504 531 l 1
EndSplineSet
Substitution2: "'smcp' Lowercase to Small Capitals lookup 16-1" yacute.smcp
EndChar

StartChar: ydieresis
Encoding: 255 255 112
Width: 560
VWidth: 0
Flags: HW
LayerCount: 2
Fore
SplineSet
354.4 649.25 m 0
 354.4 678.45 378.45 701.5 407.65 701.5 c 0
 436.85 701.5 459.9 678.45 459.9 649.25 c 0
 459.9 620.05 436.85 596 407.65 596 c 0
 378.45 596 354.4 620.05 354.4 649.25 c 0
99.4004 649.25 m 0
 99.4004 678.45 123.45 701.5 152.65 701.5 c 0
 181.85 701.5 204.9 678.45 204.9 649.25 c 0
 204.9 620.05 181.85 596 152.65 596 c 0
 123.45 596 99.4004 620.05 99.4004 649.25 c 0
19.6504 531 m 1
 118.65 531 l 1
 237.45 127.85 l 2
 253.737 74.467 298.45 89 300 88.8496 c 1
 439.55 531 l 1
 539.65 531 l 1
 319.3 -168 l 1
 244.9 -270 l 1
 184.2 -270 l 1
 272.95 0 l 1
 237.55 0 173.65 11.5996 142.6 116.9 c 2
 19.6504 531 l 1
EndSplineSet
Substitution2: "'smcp' Lowercase to Small Capitals lookup 16-1" ydieresis.smcp
EndChar

StartChar: Thorn
Encoding: 222 222 113
Width: 554
VWidth: 0
Flags: HW
LayerCount: 2
Fore
SplineSet
148.1 236.5 m 1
 319.6 236.5 l 2
 371.6 235.65 414.6 254.95 414.6 376.25 c 1
 412.9 495.25 355.35 499.65 319.6 499.65 c 2
 148.1 499.65 l 1
 148.1 236.5 l 1
56.1 0 m 1
 56.1 243 56.1 486 56.1 729 c 1
 148.1 729 l 1
 148.1 588 l 1
 331.6 588 l 2
 410.6 587.15 507.6 554 507.6 375 c 0
 507.6 171 405.6 149.45 331.6 149 c 0
 279.65 148.7 263.35 144.45 148.1 168 c 1
 148.1 0 l 1
 56.1 0 l 1
EndSplineSet
Substitution2: "'c2sc' Capitals to Small Capitals in Latin lookup 17 subtable" thorn.smcp
EndChar

StartChar: uni00B5
Encoding: 181 181 114
Width: 592
VWidth: 0
Flags: HW
LayerCount: 2
Fore
SplineSet
84.15 165.5 m 1
 84.15 531 l 1
 176.15 531 l 1
 176.15 164.9 l 2
 176.15 102.5 210.95 75.5 257.6 75.5 c 0
 331.15 75.5 367.9 94 435.15 129.5 c 1
 435.15 531 l 1
 527.15 531 l 1
 527.15 0 l 1
 458.65 0 l 1
 435.15 60.5 l 1
 379.4 28.2 330.65 -4.95 258.05 -6.75 c 0
 225.95 -7.5 198.65 -0.45 176.15 12.7 c 1
 176.15 -270 l 1
 84.15 -270 l 1
 84.15 165.5 l 1
EndSplineSet
EndChar

StartChar: germandbls
Encoding: 223 223 115
Width: 570
VWidth: 0
Flags: HW
LayerCount: 2
Fore
SplineSet
56.1 0 m 1
 56.1 566 l 2
 56.1 682 136.8 778.05 283.6 778.05 c 0
 576.5 778.05 550.25 537.3 443.2 451.55 c 1
 390.85 405.9 356.6 386.8 356.6 348 c 0
 356.6 284.6 552.1 321.5 552.1 177.5 c 2
 552.1 135 l 2
 552.95 22.85 458.9 -8 391.1 -8 c 0
 323.1 -8 262.1 5.95 224.85 11 c 1
 224.85 81.65 l 1
 263.65 81.05 324 76.5 384.6 76.5 c 0
 422.05 76.5 458.4 99.8 460.1 139.8 c 1
 460.1 180.65 l 2
 460.1 254.95 266.1 207.95 266.1 348.45 c 0
 266.1 412.45 288.15 438.6 378.25 506.6 c 0
 409.65 531.2 425.85 561.55 425.85 602.1 c 0
 425.85 675.1 350.3 689.5 285.1 689.5 c 0
 208.65 689.5 148.1 653.5 148.1 552.5 c 2
 148.1 0 l 1
 56.1 0 l 1
EndSplineSet
Substitution2: "'smcp' Lowercase to Small Capitals lookup 16-1" germandbls.smcp
EndChar

StartChar: asciitilde
Encoding: 126 126 116
Width: 432
VWidth: 0
Flags: HW
LayerCount: 2
Fore
SplineSet
46.7 575.9 m 1
 84.45 609.35 111.15 644.8 164.6 644.8 c 0
 208.6 644.8 230.6 609.8 270.6 609.8 c 0
 309.75 609.5 338.2 632.75 363.6 649.8 c 1
 386.2 603 l 1
 359.95 576.8 324.35 531 271.65 531 c 0
 226.95 531 200.6 566 161.6 566 c 0
 122.6 566 103.85 546.5 68.6 531 c 1
 46.7 575.9 l 1
EndSplineSet
EndChar

StartChar: asciicircum
Encoding: 94 94 117
Width: 389
VWidth: 0
Flags: HW
LayerCount: 2
Fore
SplineSet
46.7 531 m 1
 161.15 662.5 l 1
 241.15 662.5 l 1
 343.2 531 l 1
 266.2 531 l 1
 199.35 599 l 1
 124.7 531 l 1
 46.7 531 l 1
EndSplineSet
EndChar

StartChar: grave
Encoding: 96 96 118
Width: 242
VWidth: 0
Flags: HW
LayerCount: 2
Fore
SplineSet
18.65 665.5 m 1
 121.15 665.5 l 1
 223.65 531 l 1
 148.65 531 l 1
 18.65 665.5 l 1
EndSplineSet
Substitution2: "'smcp' Lowercase to Small Capitals lookup 16-1" grave.smcp
EndChar

StartChar: dieresis
Encoding: 168 168 119
Width: 453
VWidth: 0
Flags: HW
LayerCount: 2
Fore
SplineSet
301.7 582 m 0
 301.7 611.2 325.75 634.25 354.95 634.25 c 0
 384.15 634.25 407.2 611.2 407.2 582 c 0
 407.2 552.8 384.15 528.75 354.95 528.75 c 0
 325.75 528.75 301.7 552.8 301.7 582 c 0
46.7 582 m 0
 46.7 611.2 70.75 634.25 99.95 634.25 c 0
 129.15 634.25 152.2 611.2 152.2 582 c 0
 152.2 552.8 129.15 528.75 99.95 528.75 c 0
 70.75 528.75 46.7 552.8 46.7 582 c 0
EndSplineSet
Substitution2: "'smcp' Lowercase to Small Capitals lookup 16-1" dieresis.smcp
EndChar

StartChar: acute
Encoding: 180 180 120
Width: 242
VWidth: 0
Flags: HW
LayerCount: 2
Fore
SplineSet
18.65 531 m 1
 121.15 665.5 l 1
 223.65 665.5 l 1
 93.65 531 l 1
 18.65 531 l 1
EndSplineSet
Substitution2: "'smcp' Lowercase to Small Capitals lookup 16-1" acute.smcp
EndChar

StartChar: cedilla
Encoding: 184 184 121
Width: 249
VWidth: 0
Flags: HW
LayerCount: 2
Fore
SplineSet
46.7 -131.2 m 1
 97.3 -116.2 l 1
 125.3 -104.2 128.7 -75 128.7 -37 c 1
 203.2 -37 l 1
 203.2 -139 181 -174.5 99.2 -174.5 c 2
 46.7 -174.5 l 1
 46.7 -131.2 l 1
EndSplineSet
EndChar

StartChar: exclam
Encoding: 33 33 122
Width: 270
VWidth: 0
Flags: HW
LayerCount: 2
Fore
SplineSet
77.8 23 m 2
 77.8 89 l 2
 77.8 104 85.8 114 101.8 114 c 2
 165.8 114 l 2
 180.8 114 188.8 103 188.8 89 c 2
 188.8 23 l 2
 188.8 8 179.8 0 165.8 0 c 2
 101.8 0 l 2
 87.8 0 77.8 9 77.8 23 c 2
81.7 731 m 1
 184.95 731 l 1
 175.85 196 l 1
 90.2 196 l 1
 81.7 731 l 1
EndSplineSet
Substitution2: "'smcp' Lowercase to Small Capitals lookup 16-1" exclam.smcp
EndChar

StartChar: degree
Encoding: 176 176 123
Width: 296
VWidth: 0
Flags: HW
LayerCount: 2
Fore
SplineSet
96.55 632 m 0
 96.55 603.5 120.2 580.85 148.7 580.85 c 0
 177.2 580.85 199.85 603.5 199.85 632 c 0
 199.85 660.5 177.2 684.15 148.7 684.15 c 0
 120.2 684.15 96.55 660.5 96.55 632 c 0
46.7 632 m 0
 46.7 689 92.7 735 148.7 735 c 0
 204.7 735 249.7 689 249.7 632 c 0
 249.7 575 204.7 530 148.7 530 c 0
 92.7 530 46.7 575 46.7 632 c 0
EndSplineSet
Substitution2: "'smcp' Lowercase to Small Capitals lookup 16-1" degree.smcp
EndChar

StartChar: period
Encoding: 46 46 124
Width: 269
VWidth: 0
Flags: HW
HStem: 0 114<79.5965 190.32>
VStem: 79.45 111<0.104492 113.884>
LayerCount: 2
Fore
SplineSet
79.45 23 m 2
 79.45 89 l 2
 79.45 104 87.45 114 103.45 114 c 2
 165.45 114 l 2
 183.45 114 190.45 105 190.45 89 c 2
 190.45 23 l 2
 190.45 5 179.45 0 165.45 0 c 2
 103.45 0 l 2
 89.45 0 79.45 9 79.45 23 c 2
EndSplineSet
EndChar

StartChar: periodcentered
Encoding: 183 183 125
Width: 269
VWidth: 0
Flags: HW
LayerCount: 2
Fore
SplineSet
79.45 350.1 m 2
 79.45 416.1 l 2
 79.45 431.1 87.45 441.1 103.45 441.1 c 2
 165.45 441.1 l 2
 183.45 441.1 190.45 432.1 190.45 416.1 c 2
 190.45 350.1 l 2
 190.45 332.1 179.45 327.1 165.45 327.1 c 2
 103.45 327.1 l 2
 89.45 327.1 79.45 336.1 79.45 350.1 c 2
EndSplineSet
Substitution2: "'smcp' Lowercase to Small Capitals lookup 16-1" periodcentered.smcp
EndChar

StartChar: comma
Encoding: 44 44 126
Width: 267
VWidth: 0
Flags: HW
HStem: -88 36.5<84.45 112.868>
VStem: 79.45 109<0.146961 114.835> 115.45 73<-49.2062 0>
LayerCount: 2
Fore
SplineSet
79.45 25 m 2
 79.45 88 l 2
 79.45 106 88.45 115 104.45 115 c 2
 164.45 115 l 2
 182.45 115 188.45 103 188.45 88 c 2
 188.45 -11 l 2
 188.45 -110.35 84.45 -88 84.45 -88 c 1
 84.45 -51.5 l 1
 114.45 -52.5 115.45 -32.85 115.45 -22 c 2
 115.45 0 l 1
 104.45 0 l 2
 90.45 0 79.45 8 79.45 25 c 2
EndSplineSet
EndChar

StartChar: bullet
Encoding: 256 8226 127
Width: 311
VWidth: 0
Flags: HW
LayerCount: 2
Fore
SplineSet
79.45 335.75 m 2
 79.45 426.25 l 2
 79.45 447.25 90.45 461.25 112.45 461.25 c 2
 196.95 461.25 l 2
 221.95 461.25 231.95 448.25 231.95 426.25 c 2
 231.95 335.75 l 2
 231.95 311.75 216.95 303.75 196.95 303.75 c 2
 112.45 303.75 l 2
 92.45 303.75 79.45 315.75 79.45 335.75 c 2
EndSplineSet
Substitution2: "'smcp' Lowercase to Small Capitals lookup 16-1" bullet.smcp
EndChar

StartChar: quoteleft
Encoding: 257 8216 128
Width: 267
VWidth: 0
Flags: HW
LayerCount: 2
Fore
SplineSet
74.75 545.9 m 2
 74.75 654.05 l 2
 74.75 762.25 186.4 740 186.4 740 c 1
 186.4 699.45 l 1
 153.85 700.3 152.85 677.6 152.85 665.9 c 2
 152.85 639.85 l 1
 164.7 639.85 l 2
 179.55 639.85 192.25 631.85 192.25 613.15 c 2
 192.25 545.9 l 2
 192.25 526.2 182.4 516.35 164.7 516.35 c 2
 100.45 516.35 l 2
 80.75 516.35 74.75 530.05 74.75 545.9 c 2
EndSplineSet
Substitution2: "'smcp' Lowercase to Small Capitals lookup 16-1" quoteleft.smcp
EndChar

StartChar: quoteright
Encoding: 258 8217 129
Width: 267
VWidth: 0
Flags: HW
LayerCount: 2
Fore
SplineSet
74.75 645.5 m 2
 74.75 712.75 l 2
 74.75 732.45 84.6 742.3 102.3 742.3 c 2
 166.55 742.3 l 2
 186.25 742.3 192.25 728.6 192.25 712.75 c 2
 192.25 604.6 l 2
 192.25 496.4 80.6 517.8 80.6 517.8 c 1
 80.6 558.35 l 1
 113.15 557.5 114.15 581.05 114.15 592.75 c 2
 114.15 617.95 l 1
 102.3 617.95 l 2
 87.45 617.95 74.75 626.8 74.75 645.5 c 2
EndSplineSet
Substitution2: "'smcp' Lowercase to Small Capitals lookup 16-1" quoteright.smcp
EndChar

StartChar: quotesinglbase
Encoding: 259 8218 130
Width: 267
VWidth: 0
Flags: HW
LayerCount: 2
Fore
SplineSet
74.75 26.7 m 2
 74.75 93.95 l 2
 74.75 113.65 84.6 123.5 102.3 123.5 c 2
 166.55 123.5 l 2
 186.25 123.5 192.25 109.8 192.25 93.95 c 2
 192.25 -14.2 l 2
 192.25 -123.25 80.6 -101 80.6 -101 c 1
 80.6 -60.45 l 1
 113.15 -61.3 114.15 -37.75 114.15 -26.05 c 2
 114.15 -0.85 l 1
 102.3 -0.85 l 2
 87.45 -0.85 74.75 8 74.75 26.7 c 2
EndSplineSet
Substitution2: "'smcp' Lowercase to Small Capitals lookup 16-1" quotesinglbase.smcp
EndChar

StartChar: quotedblleft
Encoding: 260 8220 131
Width: 420
VWidth: 0
Flags: HW
LayerCount: 2
Fore
SplineSet
68.2 545.6 m 2
 68.2 653.75 l 2
 68.2 761.95 179.85 739.7 179.85 739.7 c 1
 179.85 699.15 l 1
 147.3 700 146.3 677.3 146.3 665.6 c 2
 146.3 640.4 l 1
 158.15 640.4 l 2
 173 640.4 185.7 631.55 185.7 612.85 c 2
 185.7 545.6 l 2
 185.7 525.9 175.85 516.05 158.15 516.05 c 2
 93.9 516.05 l 2
 74.2 516.05 68.2 529.75 68.2 545.6 c 2
234.55 545.6 m 2
 234.55 653.75 l 2
 234.55 761.95 347.05 739.7 347.05 739.7 c 1
 347.05 699.15 l 1
 314.5 700 312.65 677.3 312.65 665.6 c 2
 312.65 640.4 l 1
 325.35 640.4 l 2
 340.2 640.4 352.05 631.55 352.05 612.85 c 2
 352.05 545.6 l 2
 352.05 525.9 343.05 516.05 325.35 516.05 c 2
 261.1 516.05 l 2
 241.4 516.05 234.55 529.75 234.55 545.6 c 2
EndSplineSet
Substitution2: "'smcp' Lowercase to Small Capitals lookup 16-1" quotedblleft.smcp
EndChar

StartChar: quotedblright
Encoding: 261 8221 132
Width: 420
VWidth: 0
Flags: HW
LayerCount: 2
Fore
SplineSet
234.55 645.2 m 2
 234.55 712.45 l 2
 234.55 732.15 244.4 742 262.1 742 c 2
 326.35 742 l 2
 346.05 742 352.05 728.3 352.05 712.45 c 2
 352.05 604.3 l 2
 352.05 496.1 240.4 517.5 240.4 517.5 c 1
 240.4 558.05 l 1
 272.95 557.2 273.95 580.75 273.95 592.45 c 2
 273.95 617.65 l 1
 262.1 617.65 l 2
 247.25 617.65 234.55 626.5 234.55 645.2 c 2
68.2 645.2 m 2
 68.2 712.45 l 2
 68.2 732.15 77.2 742 94.9 742 c 2
 159.15 742 l 2
 178.85 742 185.7 728.3 185.7 712.45 c 2
 185.7 604.3 l 2
 185.7 496.1 73.2 517.5 73.2 517.5 c 1
 73.2 558.05 l 1
 105.75 557.2 106.75 580.75 106.75 592.45 c 2
 106.75 617.65 l 1
 94.9 617.65 l 2
 80.05 617.65 68.2 626.5 68.2 645.2 c 2
EndSplineSet
Substitution2: "'smcp' Lowercase to Small Capitals lookup 16-1" quotedblright.smcp
EndChar

StartChar: quotedblbase
Encoding: 262 8222 133
Width: 420
VWidth: 0
Flags: HW
LayerCount: 2
Fore
SplineSet
234.55 26.7 m 2
 234.55 93.95 l 2
 234.55 113.65 244.4 123.5 262.1 123.5 c 2
 326.35 123.5 l 2
 346.05 123.5 352.05 109.8 352.05 93.95 c 2
 352.05 -14.2 l 2
 352.05 -123.25 240.4 -101 240.4 -101 c 1
 240.4 -60.45 l 1
 272.95 -61.3 273.95 -37.75 273.95 -26.05 c 2
 273.95 -0.85 l 1
 262.1 -0.85 l 2
 247.25 -0.85 234.55 8 234.55 26.7 c 2
68.2 26.7 m 2
 68.2 93.95 l 2
 68.2 113.65 77.2 123.5 94.9 123.5 c 2
 159.15 123.5 l 2
 178.85 123.5 185.7 109.8 185.7 93.95 c 2
 185.7 -14.2 l 2
 185.7 -123.25 73.2 -101 73.2 -101 c 1
 73.2 -60.45 l 1
 105.75 -61.3 106.75 -37.75 106.75 -26.05 c 2
 106.75 -0.85 l 1
 94.9 -0.85 l 2
 80.05 -0.85 68.2 8 68.2 26.7 c 2
EndSplineSet
Substitution2: "'smcp' Lowercase to Small Capitals lookup 16-1" quotedblbase.smcp
EndChar

StartChar: colon
Encoding: 58 58 134
Width: 269
VWidth: 0
Flags: HW
LayerCount: 2
Fore
SplineSet
79.45 440.85 m 2
 79.45 506.85 l 2
 79.45 521.85 87.45 531.85 103.45 531.85 c 2
 165.45 531.85 l 2
 183.45 531.85 190.45 522.85 190.45 506.85 c 2
 190.45 440.85 l 2
 190.45 422.85 179.45 417.85 165.45 417.85 c 2
 103.45 417.85 l 2
 89.45 417.85 79.45 426.85 79.45 440.85 c 2
79.45 23 m 2
 79.45 89 l 2
 79.45 104 87.45 114 103.45 114 c 2
 165.45 114 l 2
 183.45 114 190.45 105 190.45 89 c 2
 190.45 23 l 2
 190.45 5 179.45 0 165.45 0 c 2
 103.45 0 l 2
 89.45 0 79.45 9 79.45 23 c 2
EndSplineSet
EndChar

StartChar: semicolon
Encoding: 59 59 135
Width: 271
VWidth: 0
Flags: HW
LayerCount: 2
Fore
SplineSet
81.15 441.7 m 2
 81.15 507.7 l 2
 81.15 522.7 89.15 532.7 105.15 532.7 c 2
 167.15 532.7 l 2
 185.15 532.7 192.15 523.7 192.15 507.7 c 2
 192.15 441.7 l 2
 192.15 423.7 181.15 418.7 167.15 418.7 c 2
 105.15 418.7 l 2
 91.15 418.7 81.15 427.7 81.15 441.7 c 2
79.45 25 m 2
 79.45 88 l 2
 79.45 102.6 89.3 115 104.45 115 c 2
 164.45 115 l 2
 179.9 115 188.45 103 188.45 88 c 2
 188.45 -11 l 2
 188.45 -110.35 84.45 -88 84.45 -88 c 1
 84.45 -51.5 l 1
 114.45 -52.5 115.45 -32.85 115.45 -22 c 2
 115.45 0 l 1
 104.45 0 l 2
 90.45 0 79.45 12.25 79.45 25 c 2
EndSplineSet
EndChar

StartChar: quotedbl
Encoding: 34 34 136
Width: 397
VWidth: 0
Flags: HW
LayerCount: 2
Fore
SplineSet
79.45 665 m 1
 79.45 732 l 1
 170.8 732 l 1
 170.8 665 l 1
 160.8 531 l 1
 90.6 531 l 1
 79.45 665 l 1
226.9 665 m 1
 226.9 732 l 1
 318.25 732 l 1
 318.25 665 l 1
 308.25 531 l 1
 237.75 531 l 1
 226.9 665 l 1
EndSplineSet
Substitution2: "'smcp' Lowercase to Small Capitals lookup 16-1" quotedbl.smcp
EndChar

StartChar: exclamdown.alt
Encoding: 263 -1 137
Width: 270
VWidth: 0
Flags: HW
LayerCount: 2
Fore
SplineSet
82.55 0 m 1
 91.65 535 l 1
 177.3 535 l 1
 185.8 0 l 1
 82.55 0 l 1
78.7 642 m 2
 78.7 708 l 2
 78.7 723 87.7 731 101.7 731 c 2
 165.7 731 l 2
 179.7 731 189.7 722 189.7 708 c 2
 189.7 642 l 2
 189.7 627 181.7 617 165.7 617 c 2
 101.7 617 l 2
 86.7 617 78.7 628 78.7 642 c 2
EndSplineSet
EndChar

StartChar: zero
Encoding: 48 48 138
Width: 639
VWidth: 0
Flags: HW
HStem: 0 89<184.279 458.107> 643 89<183.387 457.648>
VStem: 65.35 92<115.53 616.54> 482.35 92<111.355 621.444>
LayerCount: 2
Fore
SplineSet
65.35 166.5 m 2
 65.35 564 l 2
 65.35 675.3 141.15 732 240.65 732 c 2
 404.65 732 l 2
 530.1 732 574.35 654.2 574.35 565.5 c 2
 574.35 166.5 l 2
 574.35 47.5 506.65 0 404.5 0 c 2
 240.5 0 l 2
 143.65 0 65.35 46.5 65.35 166.5 c 2
157.35 172.65 m 2
 157.35 107.3 205.1 89 249.2 89 c 2
 394.9 89 l 2
 454.25 89 482.35 118.5 482.35 172.5 c 2
 482.35 559.5 l 2
 482.35 605.5 463.05 643 396.1 643 c 2
 248.15 643 l 2
 180.85 643 157.35 602.25 157.35 559.5 c 2
 157.35 172.65 l 2
EndSplineSet
Substitution2: "'dnom' Denominators lookup 0 subtable" zero.denominator
Substitution2: "'sups' Superscript lookup 2 subtable" zerosuperior
Substitution2: "'onum' Oldstyle Figures in Latin lookup 5-1" zero.oldstyle
Substitution2: "'tnum' Tabular Numbers in Latin lookup 7-1" zero.tnum
Substitution2: "'numr' Numerators lookup 9 subtable" zero.numerator
Substitution2: "'zero' Slashed Zero lookup 20-1" uni0338
Substitution2: "'sinf' Scientific Inferiors lookup 3-1" zeroinferior
Substitution2: "'frac' Diagonal Fractions lookup 13-1" zero.numerator
Substitution2: "'smcp' Lowercase to Small Capitals lookup 16-1" zero.smcp
EndChar

StartChar: one
Encoding: 49 49 139
Width: 364
VWidth: 0
Flags: HW
HStem: 0 21G<197.8 289.8> 0 21G<197.8 289.8> 712 20G<159.996 289.8>
VStem: 197.8 92<0 633>
LayerCount: 2
Fore
SplineSet
37.3 584.1 m 1
 37.3 647.6 l 1
 198.1 732 l 1
 289.8 732 l 1
 289.8 0 l 1
 197.8 0 l 1
 197.8 633 l 1
 37.3 584.1 l 1
EndSplineSet
Substitution2: "'dnom' Denominators lookup 0 subtable" one.denominator
Substitution2: "'sups' Superscript lookup 2 subtable" onesuperior
Substitution2: "'onum' Oldstyle Figures in Latin lookup 5-1" one.oldstyle
Substitution2: "'tnum' Tabular Numbers in Latin lookup 7-1" one.tnum
Substitution2: "'numr' Numerators lookup 9 subtable" one.numerator
Substitution2: "'sinf' Scientific Inferiors lookup 3-1" oneinferior
Substitution2: "'frac' Diagonal Fractions lookup 13-1" one.numerator
Substitution2: "'smcp' Lowercase to Small Capitals lookup 16-1" one.smcp
EndChar

StartChar: two
Encoding: 50 50 140
Width: 594
VWidth: 0
Flags: HW
HStem: 0 89<213.1 548.05> 652 90<87.6522 409.38> 652 68.5<37.3 268.684>
VStem: 455.2 92.85<454.993 606.309>
LayerCount: 2
Fore
SplineSet
37.3 652 m 1
 37.3 720.5 l 1
 136.3 734.25 225.35 742 341.3 742 c 0
 487.95 742 548.05 635.2 548.05 527.5 c 0
 548.05 340.2 283.6 139.05 213.1 89 c 1
 548.05 89 l 1
 548.05 0 l 1
 44.45 0 l 1
 44.45 83 l 1
 149.25 154 455.2 376.4 455.2 528.75 c 0
 455.2 599.95 418.8 652 328.45 652 c 2
 37.3 652 l 1
EndSplineSet
Substitution2: "'dnom' Denominators lookup 0 subtable" two.denominator
Substitution2: "'sups' Superscript lookup 2 subtable" twosuperior
Substitution2: "'onum' Oldstyle Figures in Latin lookup 5-1" two.oldstyle
Substitution2: "'tnum' Tabular Numbers in Latin lookup 7-1" two.tnum
Substitution2: "'numr' Numerators lookup 9 subtable" two.numerator
Substitution2: "'sinf' Scientific Inferiors lookup 3-1" twoinferior
Substitution2: "'frac' Diagonal Fractions lookup 13-1" two.numerator
Substitution2: "'smcp' Lowercase to Small Capitals lookup 16-1" two.smcp
EndChar

StartChar: three
Encoding: 51 51 141
Width: 591
VWidth: 0
Flags: HW
HStem: -7 90<85.2441 402.529> 21 62<35.05 134.993> 318.5 90<165.35 396.387> 325.5 73<96.05 257.75> 645 89<93.9831 400.077> 645 61<28.05 127.219>
VStem: 429.55 91.7<107.485 286.173 438.032 617>
LayerCount: 2
Fore
SplineSet
28.05 645 m 1
 28.05 706 l 1
 116.05 737 230.55 736 347.55 734 c 0
 457.55 732 521.25 662.05 521.25 566 c 2
 521.25 501.5 l 2
 521.25 428.5 495.7 380.9 452.55 364 c 1
 496.85 338.9 521.25 294.5 521.25 218.5 c 2
 521.25 164 l 2
 521.25 53.2 462.55 -7 340.55 -7 c 0
 226.55 -7 122.05 -10 34.05 21 c 1
 35.05 83 l 1
 321.05 83 l 2
 377.8 83 427.55 90.8 427.55 169.25 c 2
 427.55 220.75 l 2
 427.55 293.95 382.55 316.35 327.05 318.5 c 2
 96.05 325.5 l 1
 96.05 398.5 l 1
 327.05 408.5 l 2
 396.05 411.5 429.55 441.25 429.55 500 c 2
 429.55 560 l 2
 429.55 622.9 379.05 645 327.05 645 c 2
 28.05 645 l 1
EndSplineSet
Substitution2: "'dnom' Denominators lookup 0 subtable" three.denominator
Substitution2: "'sups' Superscript lookup 2 subtable" threesuperior
Substitution2: "'onum' Oldstyle Figures in Latin lookup 5-1" three.oldstyle
Substitution2: "'tnum' Tabular Numbers in Latin lookup 7-1" three.tnum
Substitution2: "'numr' Numerators lookup 9 subtable" three.numerator
Substitution2: "'sinf' Scientific Inferiors lookup 3-1" threeinferior
Substitution2: "'frac' Diagonal Fractions lookup 13-1" three.numerator
Substitution2: "'smcp' Lowercase to Small Capitals lookup 16-1" three.smcp
EndChar

StartChar: four
Encoding: 52 52 142
Width: 607
VWidth: 0
Flags: HW
HStem: 179.5 93<155.7 411.65> 200 72.5<559.955 589.15> 712 20G<311.162 429.15>
VStem: 411.65 92<2 179.5 272.5 468.55>
DStem2: 18.65 224 155.7 272.5 0.514123 0.857716<112.06 592.27>
LayerCount: 2
Fore
SplineSet
18.65 224 m 1
 323.15 732 l 1
 429.15 732 l 1
 155.7 272.5 l 1
 411.65 272.5 l 1
 411.65 468.55 l 1
 447.15 544 l 1
 503.65 544 l 1
 503.65 272.5 l 1
 589.15 272.5 l 1
 589.15 200 l 1
 503.65 179.5 l 1
 503.65 2 l 1
 411.65 2 l 1
 411.65 179.5 l 1
 52.65 179.5 l 1
 18.65 224 l 1
EndSplineSet
Substitution2: "'dnom' Denominators lookup 0 subtable" four.denominator
Substitution2: "'sups' Superscript lookup 2 subtable" foursuperior
Substitution2: "'onum' Oldstyle Figures in Latin lookup 5-1" four.oldstyle
Substitution2: "'tnum' Tabular Numbers in Latin lookup 7-1" four.tnum
Substitution2: "'numr' Numerators lookup 9 subtable" four.numerator
Substitution2: "'sinf' Scientific Inferiors lookup 3-1" fourinferior
Substitution2: "'frac' Diagonal Fractions lookup 13-1" four.numerator
Substitution2: "'smcp' Lowercase to Small Capitals lookup 16-1" four.smcp
EndChar

StartChar: five
Encoding: 53 53 143
Width: 601
VWidth: 0
Flags: HW
HStem: -4 94<117.564 430.548> 20 70<71.05 248.22> 363 87.5<178.188 431.878> 643 89<181.05 523.05>
VStem: 72.9 84<292.5 344.512> 94.9 86.15<592.159 643> 454.4 92<117.014 343.905>
LayerCount: 2
Fore
SplineSet
71.05 20 m 1
 71.05 90 l 1
 369.05 90 l 2
 437 90 454.4 136.6 454.4 177 c 2
 454.4 275.15 l 2
 454.4 308.15 452.05 363 370.7 363 c 2
 233.2 363 l 2
 195.25 363 156.9 343.05 156.9 292.5 c 1
 72.9 292.5 l 1
 94.9 732 l 1
 523.05 732 l 1
 523.05 643 l 1
 181.05 643 l 1
 170.25 422 l 1
 186.05 438.85 213.75 446.95 242.9 450.5 c 0
 292.7 456.75 353.5 450.65 381.8 450.5 c 0
 499.5 449 546.4 378.35 546.4 280 c 2
 546.4 169 l 2
 546.4 32 443.95 -4 376.55 -4 c 0
 252.55 -4 205.05 -3 71.05 20 c 1
EndSplineSet
Substitution2: "'dnom' Denominators lookup 0 subtable" five.denominator
Substitution2: "'sups' Superscript lookup 2 subtable" fivesuperior
Substitution2: "'onum' Oldstyle Figures in Latin lookup 5-1" five.oldstyle
Substitution2: "'tnum' Tabular Numbers in Latin lookup 7-1" five.tnum
Substitution2: "'numr' Numerators lookup 9 subtable" five.numerator
Substitution2: "'sinf' Scientific Inferiors lookup 3-1" fiveinferior
Substitution2: "'frac' Diagonal Fractions lookup 13-1" five.numerator
Substitution2: "'smcp' Lowercase to Small Capitals lookup 16-1" five.smcp
EndChar

StartChar: six
Encoding: 54 54 144
Width: 619
VWidth: 0
Flags: HW
HStem: -1 89<206.991 457.066> 345 87.5<156.458 455.946> 345 66.5<152.8 384.944> 649 88.25<211.298 484.491> 649 68.95<305.035 539.3>
VStem: 60.8 92<163.811 345 411.5 559.091> 472.15 91.15<104.152 328.768>
LayerCount: 2
Fore
SplineSet
152.8 345 m 1
 152.8 249.2 158.45 88 261.7 88 c 2
 390.9 88 l 2
 439.2 88 472.15 97.85 472.15 163.75 c 2
 472.15 273 l 2
 472.15 331.3 436.3 345 391.65 345 c 2
 152.8 345 l 1
60.8 384 m 0
 60.8 649 148.9 735.15 232.8 737.25 c 0
 333.65 739.65 444.6 732 539.3 717.95 c 1
 539.3 649 l 1
 260.8 649 l 2
 169.8 649 154.5 493.85 152.8 411.5 c 1
 230.6 422.85 323.8 432.5 399.3 432.5 c 0
 536.8 432.5 563.3 360.15 563.3 277.5 c 2
 563.3 152.5 l 2
 563.3 37.8 495.1 -1 397.8 -1 c 2
 250.45 -1 l 2
 139.5 -0.15 60.8 69 60.8 384 c 0
EndSplineSet
Substitution2: "'dnom' Denominators lookup 0 subtable" six.denominator
Substitution2: "'sups' Superscript lookup 2 subtable" sixsuperior
Substitution2: "'onum' Oldstyle Figures in Latin lookup 5-1" six.oldstyle
Substitution2: "'tnum' Tabular Numbers in Latin lookup 7-1" six.tnum
Substitution2: "'numr' Numerators lookup 9 subtable" six.numerator
Substitution2: "'sinf' Scientific Inferiors lookup 3-1" sixinferior
Substitution2: "'frac' Diagonal Fractions lookup 13-1" six.numerator
Substitution2: "'smcp' Lowercase to Small Capitals lookup 16-1" six.smcp
EndChar

StartChar: seven
Encoding: 55 55 145
Width: 548
VWidth: 0
Flags: HW
HStem: 0 21G<155.05 268.391> 0 21G<155.05 268.391> 643 89<28.05 404.05>
DStem2: 155.05 0 260.75 0 0.356887 0.934148<37.7229 689.522>
LayerCount: 2
Fore
SplineSet
28.05 643 m 1
 28.05 732 l 1
 490.35 732 l 1
 520.35 679.5 l 1
 260.75 0 l 1
 155.05 0 l 1
 404.05 643 l 1
 28.05 643 l 1
EndSplineSet
Substitution2: "'dnom' Denominators lookup 0 subtable" seven.denominator
Substitution2: "'sups' Superscript lookup 2 subtable" sevensuperior
Substitution2: "'onum' Oldstyle Figures in Latin lookup 5-1" seven.oldstyle
Substitution2: "'tnum' Tabular Numbers in Latin lookup 7-1" seven.tnum
Substitution2: "'numr' Numerators lookup 9 subtable" seven.numerator
Substitution2: "'sinf' Scientific Inferiors lookup 3-1" seveninferior
Substitution2: "'frac' Diagonal Fractions lookup 13-1" seven.numerator
Substitution2: "'smcp' Lowercase to Small Capitals lookup 16-1" seven.smcp
EndChar

StartChar: percent
Encoding: 37 37 146
Width: 956
VWidth: 0
Flags: HW
LayerCount: 2
Fore
SplineSet
39.3 475.5 m 2
 39.3 605.5 l 2
 39.3 690.5 68.8 732 169.8 732 c 2
 270.8 732 l 2
 368.8 732 399.3 690.5 399.3 605.5 c 2
 399.3 475.5 l 2
 399.3 390.5 369.8 349 268.8 349 c 2
 167.8 349 l 2
 69.8 349 39.3 390.5 39.3 475.5 c 2
113.3 480 m 2
 113.3 435.05 126.65 423 171.55 423 c 2
 265.05 423 l 2
 319.45 423 325.3 438.45 325.3 480 c 2
 325.3 601 l 2
 325.3 647.6 310.75 658 267.05 658 c 2
 173.55 658 l 2
 120.95 658 113.3 644.35 113.3 601 c 2
 113.3 480 l 2
221.75 0 m 1
 662.15 732 l 1
 741.1 732 l 1
 301.75 0 l 1
 221.75 0 l 1
557.8 128.65 m 2
 557.8 258.65 l 2
 557.8 343.65 587.15 385.15 688.15 385.15 c 2
 789.3 385.15 l 2
 887.3 385.15 917.8 343.65 917.8 258.65 c 2
 917.8 128.65 l 2
 917.8 43.65 888.3 2.15 787.3 2.15 c 2
 686.15 2.15 l 2
 588.15 2.15 557.8 43.65 557.8 128.65 c 2
631.8 133.15 m 2
 631.8 88.2 645.15 76.15 690.05 76.15 c 2
 783.4 76.15 l 2
 837.8 76.15 843.8 91.6 843.8 133.15 c 2
 843.8 254.15 l 2
 843.8 300.75 829.1 311.15 785.4 311.15 c 2
 692.05 311.15 l 2
 639.45 311.15 631.8 297.5 631.8 254.15 c 2
 631.8 133.15 l 2
EndSplineSet
Substitution2: "'smcp' Lowercase to Small Capitals lookup 16-1" percent.smcp
EndChar

StartChar: nine
Encoding: 57 57 147
Width: 619
VWidth: 0
Flags: HW
HStem: -1 88.25<132.384 408.102> 18.3 68.95<80.1 313.507> 303.75 87.5<163.454 462.942> 324.75 66.5<234.456 466.6> 648.25 89<162.334 412.409>
VStem: 56.1 91.15<407.482 632.098> 466.6 92<177.159 324.75 391.25 572.439>
LayerCount: 2
Fore
SplineSet
147.25 463.25 m 2
 147.25 404.95 183.1 391.25 227.75 391.25 c 2
 466.6 391.25 l 1
 466.6 487.05 460.95 648.25 357.7 648.25 c 2
 228.5 648.25 l 2
 180.2 648.25 147.25 638.4 147.25 572.5 c 2
 147.25 463.25 l 2
56.1 458.75 m 2
 56.1 583.75 l 2
 56.1 698.45 124.3 737.25 221.6 737.25 c 2
 368.95 737.25 l 2
 479.9 736.4 558.6 667.25 558.6 352.25 c 0
 558.6 87.25 470.5 1.1 386.6 -1 c 0
 285.75 -3.4 168 0 80.1 18.3 c 1
 80.1 87.25 l 1
 358.6 87.25 l 2
 449.6 87.25 464.9 242.4 466.6 324.75 c 1
 388.8 313.4 295.6 303.75 220.1 303.75 c 0
 82.6 303.75 56.1 376.1 56.1 458.75 c 2
EndSplineSet
Substitution2: "'dnom' Denominators lookup 0 subtable" nine.denominator
Substitution2: "'sups' Superscript lookup 2 subtable" ninesuperior
Substitution2: "'onum' Oldstyle Figures in Latin lookup 5-1" nine.oldstyle
Substitution2: "'tnum' Tabular Numbers in Latin lookup 7-1" nine.tnum
Substitution2: "'numr' Numerators lookup 9 subtable" nine.numerator
Substitution2: "'sinf' Scientific Inferiors lookup 3-1" nineinferior
Substitution2: "'frac' Diagonal Fractions lookup 13-1" nine.numerator
Substitution2: "'smcp' Lowercase to Small Capitals lookup 16-1" nine.smcp
EndChar

StartChar: eight
Encoding: 56 56 148
Width: 631
VWidth: 0
Flags: HW
HStem: 0 87.5<184.996 447.05> 331 85<184.4 449.198> 649.5 87.5<181.708 447.917>
VStem: 70.05 92<107.959 310.801 439.348 630.059> 469.55 92<108.725 308.864 433.937 629.188>
LayerCount: 2
Fore
SplineSet
162.05 494 m 2
 162.05 431.2 212.45 416 246.45 416 c 2
 389.4 416 l 2
 458.05 416 469.55 458.9 469.55 494 c 2
 469.55 556.3 l 2
 469.55 626.4 441.45 649.5 387.7 649.5 c 2
 255.8 649.5 l 2
 196.9 649.5 162.05 639.7 162.05 556.3 c 2
 162.05 494 l 2
162.05 159.85 m 2
 162.05 112.95 188.5 87.5 255.8 87.5 c 2
 386.85 87.5 l 2
 430 87.5 469.55 110.6 469.55 159.85 c 2
 469.55 255.1 l 2
 469.55 307.45 432.95 331 389.7 331 c 2
 246.45 331 l 2
 201.05 331 162.05 311.85 162.05 255.1 c 2
 162.05 159.85 l 2
70.05 157.75 m 2
 70.05 249 l 2
 70.05 319.4 111 345.1 153.4 357.5 c 1
 87.9 381.75 70.05 444.8 70.05 499 c 2
 70.05 564 l 2
 70.05 698.9 146.05 737 249.05 737 c 2
 396.55 737 l 2
 505.2 737 561.55 687.6 561.55 563.85 c 2
 561.55 502 l 2
 562.4 479.25 557.5 400.1 486.55 386 c 1
 542.8 375.55 562.4 296.35 561.55 253.35 c 2
 561.55 158.65 l 2
 561.55 23.7 464.5 0 395.55 0 c 2
 249.05 0 l 2
 74.35 0 70.05 113.3 70.05 157.75 c 2
EndSplineSet
Substitution2: "'dnom' Denominators lookup 0 subtable" eight.denominator
Substitution2: "'sups' Superscript lookup 2 subtable" eightsuperior
Substitution2: "'onum' Oldstyle Figures in Latin lookup 5-1" eight.oldstyle
Substitution2: "'tnum' Tabular Numbers in Latin lookup 7-1" eight.tnum
Substitution2: "'numr' Numerators lookup 9 subtable" eight.numerator
Substitution2: "'sinf' Scientific Inferiors lookup 3-1" eightinferior
Substitution2: "'frac' Diagonal Fractions lookup 13-1" eight.numerator
Substitution2: "'smcp' Lowercase to Small Capitals lookup 16-1" eight.smcp
EndChar

StartChar: quotesingle
Encoding: 39 39 149
Width: 195
VWidth: 0
Flags: HW
LayerCount: 2
Fore
SplineSet
51.4 665 m 1
 51.4 732 l 1
 144.4 732 l 1
 144.4 665 l 1
 134.4 531 l 1
 62.4 531 l 1
 51.4 665 l 1
EndSplineSet
Substitution2: "'smcp' Lowercase to Small Capitals lookup 16-1" quotesingle.smcp
EndChar

StartChar: onesuperior
Encoding: 185 185 150
Width: 270
VWidth: 142
Flags: HW
LayerCount: 2
Fore
SplineSet
14.95 767.35 m 1
 14.95 821 l 1
 135.9 876 l 1
 210.2 876 l 1
 210.2 398.35 l 1
 135.6 398.35 l 1
 135.6 799.05 l 1
 14.95 767.35 l 1
EndSplineSet
EndChar

StartChar: twosuperior
Encoding: 178 178 151
Width: 390
VWidth: 142
Flags: HW
LayerCount: 2
Fore
SplineSet
29.75 809.8 m 2
 28.05 809.8 29.75 866.1 29.75 866.1 c 1
 94.4 874.85 140.9 882.15 217.1 882.15 c 0
 316.75 882.15 351.45 823.25 351.45 743.6 c 0
 351.45 624.15 203.8 505.85 161.2 470.7 c 1
 350.6 470.7 l 1
 350.6 398.35 l 1
 32.9 398.35 l 1
 32.9 466.55 l 1
 97.95 517.25 274.3 635.7 274.3 738.35 c 0
 274.3 788.8 255.55 809.8 198.15 809.8 c 2
 29.75 809.8 l 2
EndSplineSet
EndChar

StartChar: threesuperior
Encoding: 179 179 152
Width: 406
VWidth: 142
Flags: HW
LayerCount: 2
Fore
SplineSet
28.05 805.65 m 1
 28.05 858.55 l 1
 85.65 879 151.25 877.45 228.15 877.15 c 0
 313.65 877 350.8 821.95 350.8 759.1 c 2
 350.8 725.45 l 2
 350.8 678.15 328.7 646.85 299.7 636.1 c 1
 329.7 619.7 350.8 590.05 350.8 540.75 c 2
 350.8 514.1 l 2
 350.8 441.6 320.05 394.2 223.15 394.2 c 0
 148.25 394.2 89.65 392.2 32.05 412.65 c 1
 33.05 465.7 l 1
 60.25 465.7 205.25 466.55 205.25 466.55 c 2
 258.95 466.55 276.2 481 276.2 521.7 c 2
 276.2 541.85 l 2
 276.2 588.35 245.45 603.1 209.25 604.1 c 2
 72.35 609.1 l 1
 72.35 666.9 l 1
 209.25 673.9 l 2
 254.4 675.75 277.35 694.45 277.35 731.75 c 2
 277.35 751.05 l 2
 277.35 790.35 252.75 805.65 209.25 805.65 c 2
 28.05 805.65 l 1
EndSplineSet
EndChar

StartChar: ordmasculine
Encoding: 186 186 153
Width: 391
VWidth: 0
Flags: HW
LayerCount: 2
Fore
SplineSet
102.65 550.15 m 0
 102.65 445.95 138.1 442.2 196.45 442.2 c 0
 258.5 442.2 287 443.8 288.7 550.15 c 0
 290.4 664.45 258.95 667.8 196.45 667.8 c 0
 131.55 667.8 102.65 665.7 102.65 550.15 c 0
39.65 269.05 m 1
 39.65 330.05 l 1
 350.85 330.05 l 1
 350.85 269.05 l 1
 39.65 269.05 l 1
28.05 550 m 0
 28.05 692.3 68.25 736.7 196.45 736.7 c 0
 324.8 736.7 363.3 691.7 363.3 550 c 0
 363.3 421.55 325.4 373.3 196.45 373.3 c 0
 67.95 373.3 28.05 422.3 28.05 550 c 0
EndSplineSet
Ligature2: "'ordn' Ordinals lookup 21-1" o
Substitution2: "'smcp' Lowercase to Small Capitals lookup 16-1" ordmasculine.smcp
EndChar

StartChar: ordfeminine
Encoding: 170 170 154
Width: 364
VWidth: 0
Flags: HW
LayerCount: 2
Fore
SplineSet
100.85 478.4 m 2
 100.85 449.3 118.4 441.1 142.45 441.1 c 0
 197.95 441.1 260.4 471.3 260.4 471.3 c 1
 260.4 549.8 l 1
 141.1 540.85 l 2
 110.6 538 100.85 520.45 100.85 501.95 c 2
 100.85 478.4 l 2
28.05 463.9 m 2
 28.05 506.9 l 2
 28.05 560 63.95 598.25 131.05 598.25 c 2
 131.05 598.25 260.4 597.25 260.4 598.25 c 2
 260.4 598.25 261.4 625.05 260.4 626.05 c 1
 260.4 662.6 238.6 673.5 202.1 673.5 c 0
 144.05 673.5 102.1 668.75 40.05 666.2 c 1
 40.05 714.8 l 1
 94.7 725.35 138.4 738 212.2 738.85 c 0
 280.65 739.7 335 709.9 335 633 c 2
 335 378 l 1
 283.6 378 l 1
 261.25 425.8 l 1
 258.65 423.4 187.5 373.7 130 374 c 0
 72.75 374.45 28.05 409.2 28.05 463.9 c 2
28.05 266.5 m 1
 28.05 327.5 l 1
 336.7 327.5 l 1
 336.7 266.5 l 1
 28.05 266.5 l 1
EndSplineSet
Ligature2: "'ordn' Ordinals lookup 21-1" a
Substitution2: "'smcp' Lowercase to Small Capitals lookup 16-1" ordfeminine.smcp
EndChar

StartChar: slash
Encoding: 47 47 155
Width: 415
VWidth: 0
Flags: HW
LayerCount: 2
Fore
SplineSet
18.65 -72 m 1
 299.65 770 l 1
 396.65 770 l 1
 115.65 -72 l 1
 18.65 -72 l 1
EndSplineSet
Substitution2: "'numr' Numerators lookup 9 subtable" fraction
Substitution2: "'frac' Diagonal Fractions lookup 12-1" fraction
EndChar

StartChar: backslash
Encoding: 92 92 156
Width: 415
VWidth: 0
Flags: HW
LayerCount: 2
Fore
SplineSet
18.65 770 m 1
 115.65 770 l 1
 396.65 -72 l 1
 299.65 -72 l 1
 18.65 770 l 1
EndSplineSet
EndChar

StartChar: bar
Encoding: 124 124 157
Width: 245
VWidth: 0
Flags: HW
LayerCount: 2
Fore
SplineSet
80.3 -72 m 1
 80.3 770 l 1
 166.3 770 l 1
 166.3 -72 l 1
 80.3 -72 l 1
EndSplineSet
EndChar

StartChar: underscore
Encoding: 95 95 158
Width: 674
VWidth: 0
Flags: HW
LayerCount: 2
Fore
SplineSet
20 -1 m 1
 20 85 l 1
 654 85 l 1
 654 -1 l 1
 20 -1 l 1
EndSplineSet
EndChar

StartChar: hyphen
Encoding: 45 45 159
Width: 354
VWidth: 0
Flags: HW
LayerCount: 2
Fore
SplineSet
20 247 m 1
 20 333 l 1
 334 333 l 1
 334 247 l 1
 20 247 l 1
EndSplineSet
Substitution2: "'case' Case-Sensitive Forms lookup 1-1" hyphen.alt
Substitution2: "'c2sc' Capitals to Small Capitals in Latin lookup 17 subtable" hyphen.smcp
Substitution2: "'smcp' Lowercase to Small Capitals lookup 16-1" hyphen.smcp
EndChar

StartChar: numbersign
Encoding: 35 35 160
Width: 696
VWidth: 0
Flags: HW
LayerCount: 2
Fore
SplineSet
18.65 226 m 1
 28.45 290 l 1
 185.65 290 l 1
 210.15 443 l 1
 52.65 443 l 1
 63.45 507 l 1
 220.85 507 l 1
 257.85 732 l 1
 321.85 732 l 1
 284.85 507 l 1
 439.15 507 l 1
 475.15 732 l 1
 539.15 732 l 1
 503.15 507 l 1
 678.65 507 l 1
 668.15 443 l 1
 492.5 443 l 1
 468 289 l 1
 643.65 289 l 1
 634.15 225 l 1
 456.7 225 l 1
 419.7 0 l 1
 355.7 0 l 1
 392.7 225 l 1
 238.25 226 l 1
 201.25 0 l 1
 137.25 0 l 1
 174.25 226 l 1
 18.65 226 l 1
249.65 290 m 1
 404 289 l 1
 428.5 443 l 1
 274.15 443 l 1
 249.65 290 l 1
EndSplineSet
Substitution2: "'smcp' Lowercase to Small Capitals lookup 16-1" numbersign.smcp
EndChar

StartChar: dollar
Encoding: 36 36 161
Width: 573
VWidth: 0
Flags: HW
LayerCount: 2
Fore
SplineSet
51.4 491.75 m 2
 51.4 557 l 1
 53.1 698.45 134.75 735.7 242.35 738 c 1
 242.35 824 l 1
 307.85 824 l 1
 307.85 735.45 l 1
 372.35 730.75 453.45 718.9 495.4 712.65 c 1
 495.4 640.7 l 1
 443.3 641.75 269.8 649.85 259.9 649.85 c 0
 192.3 652.4 143.4 641.05 143.4 554 c 2
 143.4 496.25 l 2
 143.4 423.6 190.2 405.75 240.8 405.75 c 2
 360.9 405.75 l 2
 501 405.75 522.4 309.45 522.4 227.75 c 2
 522.4 165 l 2
 522.4 20.55 413.35 -12.8 307.85 -8 c 1
 307.85 -90 l 1
 242.35 -90 l 1
 242.35 -3.75 l 1
 175.6 2.35 108.2 11.9 74.4 18.35 c 1
 74.4 87.75 l 1
 114.4 87.15 218.9 81 311.9 81 c 0
 353.2 81 430.4 88.6 430.4 163.65 c 2
 430.4 223.85 l 2
 430.4 276.65 413.75 313.75 351.9 313.75 c 2
 232.4 313.75 l 2
 78.95 313.75 51.4 417.55 51.4 491.75 c 2
EndSplineSet
Substitution2: "'smcp' Lowercase to Small Capitals lookup 16-1" dollar.smcp
EndChar

StartChar: zerosuperior
Encoding: 264 8304 162
Width: 467
VWidth: 142
Flags: HW
LayerCount: 2
Fore
SplineSet
131.55 519.3 m 2
 131.55 480.35 142.8 469.85 186.55 469.85 c 2
 283.4 469.85 l 2
 330.05 469.85 336.55 484.6 336.55 519.15 c 2
 336.55 752.65 l 2
 336.55 786.45 327.65 801.95 284.15 801.95 c 2
 185.8 801.95 l 2
 136.6 801.95 131.55 780.2 131.55 752.65 c 2
 131.55 519.3 l 2
56.1 510.2 m 2
 56.1 760.7 l 2
 56.1 845 102.7 874.3 176.7 874.3 c 2
 294 874.3 l 2
 380.3 874.3 410.3 828.9 410.3 761.6 c 2
 410.3 510.2 l 2
 410.3 416.75 361.45 397.5 294 397.5 c 2
 176.55 397.5 l 2
 112.15 397.5 56.1 413.2 56.1 510.2 c 2
EndSplineSet
EndChar

StartChar: foursuperior
Encoding: 265 8308 163
Width: 420
VWidth: 142
Flags: HW
LayerCount: 2
Fore
SplineSet
14.95 542.5 m 1
 212.9 874.3 l 1
 294.7 874.3 l 1
 124.5 587.7 l 1
 276.05 587.7 l 1
 276.05 703.6 l 1
 303 752.05 l 1
 350.65 752.05 l 1
 350.65 587.7 l 1
 406.8 587.7 l 1
 406.8 526.7 l 1
 350.65 515.05 l 1
 350.65 398.65 l 1
 276.05 398.65 l 1
 276.05 512.35 l 1
 37.1 512.35 l 1
 14.95 542.5 l 1
EndSplineSet
EndChar

StartChar: fivesuperior
Encoding: 266 8309 164
Width: 418
VWidth: 141
Flags: HW
LayerCount: 2
Fore
SplineSet
51.4 408.25 m 1
 51.4 467.3 l 1
 257.15 467.3 l 2
 293.8 467.3 306.35 488.55 306.35 518.1 c 2
 306.35 567.95 l 2
 306.35 589.2 307.15 624.7 258.2 624.7 c 2
 156.1 624.7 l 2
 131.7 624.7 114.35 611.75 114.35 579.6 c 1
 51.55 579.6 l 1
 66.55 874.3 l 1
 365.6 874.3 l 1
 365.6 801.95 l 1
 134.6 801.95 l 1
 127.5 677.45 l 1
 157.5 704.95 237.55 696.45 270.15 695.85 c 0
 348.2 694.8 380.95 645.05 380.95 573.9 c 2
 380.95 509.9 l 2
 380.95 426.25 330.9 393.65 267.15 393.65 c 0
 185.25 393.65 139.45 392.95 51.4 408.25 c 1
EndSplineSet
EndChar

StartChar: sixsuperior
Encoding: 267 8310 165
Width: 439
VWidth: 141
Flags: HW
LayerCount: 2
Fore
SplineSet
125.85 611.3 m 1
 125.85 575.45 129.05 470.7 190.75 470.7 c 2
 282.5 470.7 l 2
 313.85 470.7 326.8 484.05 326.8 517.35 c 2
 326.8 570.7 l 2
 326.8 604.45 312.35 611.3 283.1 611.3 c 2
 125.85 611.3 l 1
51.25 649.25 m 0
 52.95 843.25 111.25 874.95 174.55 879.7 c 0
 242.45 885.75 326.45 876.15 385.1 867.4 c 1
 385.1 808.25 l 1
 190 808.25 l 2
 130.1 808.25 126.7 720.6 125.85 668.15 c 1
 176.35 675.35 242.55 682.45 291.75 682.45 c 0
 383.05 682.45 401.4 631.7 401.4 577.25 c 2
 401.4 505.9 l 2
 401.4 431.35 355.9 398.35 291.3 398.35 c 2
 185.2 398.35 l 2
 110.65 398.35 49.55 436.7 51.25 649.25 c 0
EndSplineSet
EndChar

StartChar: sevensuperior
Encoding: 268 8311 166
Width: 375
VWidth: 142
Flags: HW
LayerCount: 2
Fore
SplineSet
13.95 803.65 m 1
 13.95 876 l 1
 340.6 876 l 1
 360.45 840.8 l 1
 178.15 398.35 l 1
 94.95 398.35 l 1
 263.25 803.65 l 1
 13.95 803.65 l 1
EndSplineSet
EndChar

StartChar: eightsuperior
Encoding: 269 8312 167
Width: 465
VWidth: 142
Flags: HW
LayerCount: 2
Fore
SplineSet
136.25 724.8 m 2
 136.25 684.55 160.4 674.75 182.55 674.75 c 2
 282.15 674.75 l 2
 326.45 674.75 329.3 703 329.3 724.8 c 2
 329.3 754.25 l 2
 329.3 798.65 312.6 808 277.9 808 c 2
 190.2 808 l 2
 148.95 808 136.25 796.8 136.25 754.25 c 2
 136.25 724.8 l 2
136.25 510.5 m 2
 136.25 480.6 145.95 468.65 184.25 468.65 c 2
 284.7 468.65 l 2
 312.85 468.65 329.3 479.5 329.3 510.5 c 2
 329.3 556.15 l 2
 329.3 589.7 314.25 603.95 285.7 603.95 c 2
 182.55 603.95 l 2
 152.85 603.95 136.25 592.25 136.25 556.15 c 2
 136.25 510.5 l 2
61.65 502.9 m 2
 61.65 557.45 l 2
 61.65 603.2 88.4 622.5 116.8 630.2 c 1
 72.7 645.85 61.65 686.8 61.65 721.85 c 2
 61.65 762.3 l 2
 61.65 854.6 113.5 879.15 181.7 879.15 c 2
 292.15 879.15 l 2
 364.55 879.15 403.9 848.3 403.9 762.6 c 2
 403.9 724.25 l 2
 404.75 709.65 402 658.5 354.7 649.1 c 1
 392.25 642.65 403.9 588.9 403.9 560.75 c 2
 403.9 503.8 l 2
 403.9 415.9 351.95 396.65 294.7 396.65 c 2
 175.75 396.65 l 2
 76.7 396.65 61.65 450.7 61.65 502.9 c 2
EndSplineSet
EndChar

StartChar: ninesuperior
Encoding: 270 8313 168
Width: 439
VWidth: 142
Flags: HW
LayerCount: 2
Fore
SplineSet
116.6 707.8 m 2
 116.6 673.75 131.2 666.75 160.45 666.75 c 2
 317.55 666.75 l 1
 317.55 703.35 316.9 808.25 255.2 808.25 c 2
 160.9 808.25 l 2
 129.55 808.25 116.6 794.75 116.6 761.15 c 2
 116.6 707.8 l 2
42 701.1 m 2
 42 772.6 l 2
 42 847.45 87.65 880.6 152.25 880.6 c 2
 258.2 880.6 l 2
 332.75 880.6 393.85 841.95 392.15 628.5 c 0
 390.45 433.75 335.55 402.9 269.7 397.15 c 0
 202.65 391.1 127.15 395.6 58.3 409.45 c 1
 58.3 468.75 l 1
 252.55 468.75 l 2
 312.45 468.75 316.7 556.7 317.55 609.75 c 1
 267.05 602.55 201 595.45 151.8 595.45 c 0
 60.5 595.45 42 646.35 42 701.1 c 2
EndSplineSet
EndChar

StartChar: zeroinferior
Encoding: 271 8320 169
Width: 467
VWidth: 0
Flags: HW
LayerCount: 2
Fore
SplineSet
131.55 -78.2 m 2
 131.55 -117.15 142.8 -127.65 186.55 -127.65 c 2
 283.4 -127.65 l 2
 330.05 -127.65 336.55 -112.9 336.55 -78.35 c 2
 336.55 155.15 l 2
 336.55 188.95 327.65 204.45 284.15 204.45 c 2
 185.8 204.45 l 2
 136.6 204.45 131.55 182.7 131.55 155.15 c 2
 131.55 -78.2 l 2
56.1 -87.3 m 2
 56.1 163.2 l 2
 56.1 247.5 102.7 276.8 176.7 276.8 c 2
 294 276.8 l 2
 380.3 276.8 410.3 231.4 410.3 164.1 c 2
 410.3 -87.3 l 2
 410.3 -180.75 361.45 -200 294 -200 c 2
 176.55 -200 l 2
 112.15 -200 56.1 -184.3 56.1 -87.3 c 2
EndSplineSet
EndChar

StartChar: oneinferior
Encoding: 272 8321 170
Width: 270
VWidth: 0
Flags: HW
LayerCount: 2
Fore
SplineSet
14.95 169.85 m 1
 14.95 223.5 l 1
 135.9 278.5 l 1
 210.2 278.5 l 1
 210.2 -199.15 l 1
 135.6 -199.15 l 1
 135.6 201.55 l 1
 14.95 169.85 l 1
EndSplineSet
EndChar

StartChar: twoinferior
Encoding: 273 8322 171
Width: 391
VWidth: 0
Flags: HW
LayerCount: 2
Fore
SplineSet
29.75 212.3 m 2
 28.05 212.3 29.75 268.6 29.75 268.6 c 1
 94.55 277.35 141.05 284.65 217.55 284.65 c 0
 317.5 284.65 352.35 225.75 352.35 146.1 c 0
 352.35 26.65 204.1 -91.65 161.35 -126.8 c 1
 351.5 -126.8 l 1
 351.5 -199.15 l 1
 32.9 -199.15 l 1
 32.9 -130.95 l 1
 98.1 -80.25 275.2 38.2 275.2 141 c 0
 275.2 191.3 256.45 212.3 198.75 212.3 c 2
 29.75 212.3 l 2
EndSplineSet
EndChar

StartChar: threeinferior
Encoding: 274 8323 172
Width: 407
VWidth: 0
Flags: HW
LayerCount: 2
Fore
SplineSet
28.05 208.15 m 1
 28.05 261.05 l 1
 85.8 281.5 151.7 279.95 228.75 279.65 c 0
 314.4 279.5 351.7 224.6 351.7 161.6 c 2
 351.7 127.95 l 2
 351.7 80.65 329.6 49.35 300.6 38.6 c 1
 330.6 22.2 351.7 -7.45 351.7 -56.75 c 2
 351.7 -83.4 l 2
 351.7 -155.75 320.95 -203.3 223.75 -203.3 c 0
 148.7 -203.3 89.95 -205.3 32.05 -184.85 c 1
 33.05 -131.8 l 1
 60.25 -131.8 205.85 -130.95 205.85 -130.95 c 2
 259.7 -130.95 277.1 -116.5 277.1 -75.8 c 2
 277.1 -55.65 l 2
 277.1 -9.15 246.2 5.6 209.85 6.6 c 2
 72.35 11.6 l 1
 72.35 69.25 l 1
 209.85 76.4 l 2
 255.3 78.25 278.25 96.95 278.25 134.25 c 2
 278.25 153.55 l 2
 278.25 192.85 253.5 208.15 209.85 208.15 c 2
 28.05 208.15 l 1
EndSplineSet
EndChar

StartChar: fourinferior
Encoding: 275 8324 173
Width: 421
VWidth: 0
Flags: HW
LayerCount: 2
Fore
SplineSet
14.95 -55 m 1
 212.9 276.8 l 1
 295.6 276.8 l 1
 126 -9.8 l 1
 276.95 -9.8 l 1
 276.95 106.1 l 1
 303.9 154.55 l 1
 351.55 154.55 l 1
 351.55 -9.8 l 1
 407.7 -9.8 l 1
 407.7 -70.8 l 1
 351.55 -82.45 l 1
 351.55 -198.85 l 1
 276.95 -198.85 l 1
 276.95 -85.15 l 1
 37.1 -85.15 l 1
 14.95 -55 l 1
EndSplineSet
EndChar

StartChar: fiveinferior
Encoding: 276 8325 174
Width: 418
VWidth: 0
Flags: HW
LayerCount: 2
Fore
SplineSet
51.55 -16.1 m 1
 66.55 276.8 l 1
 366.2 276.8 l 1
 366.2 204.45 l 1
 134.9 204.45 l 1
 127.65 79.95 l 1
 157.65 107.45 237.85 98.95 270.6 98.35 c 0
 348.8 97.3 381.55 47.55 381.55 -23.6 c 2
 381.55 -87.6 l 2
 381.55 -171.25 331.35 -203.85 267.45 -203.85 c 0
 185.4 -203.85 139.6 -204.55 51.4 -189.25 c 1
 51.4 -130.2 l 1
 257.6 -130.2 l 2
 294.25 -130.2 306.95 -108.95 306.95 -79.4 c 2
 306.95 -29.55 l 2
 306.95 -8.3 307.75 27.2 258.8 27.2 c 2
 156.55 27.2 l 2
 132.15 27.2 114.65 14.85 114.65 -16.1 c 1
 51.55 -16.1 l 1
EndSplineSet
EndChar

StartChar: sixinferior
Encoding: 277 8326 175
Width: 439
VWidth: 0
Flags: HW
LayerCount: 2
Fore
SplineSet
125.85 13.8 m 1
 125.85 -22.05 129.05 -126.8 190.75 -126.8 c 2
 282.5 -126.8 l 2
 313.85 -126.8 326.8 -113.45 326.8 -80.15 c 2
 326.8 -26.8 l 2
 326.8 6.95 312.35 13.8 283.1 13.8 c 2
 125.85 13.8 l 1
51.25 51.75 m 0
 52.95 245.75 111.25 277.45 174.55 282.2 c 0
 241.6 287.4 321.35 282.05 385.1 269.9 c 1
 385.1 210.75 l 1
 190 210.75 l 2
 130.1 210.75 126.7 123.1 125.85 70.65 c 1
 176.35 77.85 242.4 84.95 291.75 84.95 c 0
 383.05 84.95 401.4 34.2 401.4 -20.25 c 2
 401.4 -91.6 l 2
 401.4 -166.15 355.9 -199.15 291.3 -199.15 c 2
 185.2 -199.15 l 2
 110.65 -199.15 49.55 -160.8 51.25 51.75 c 0
EndSplineSet
EndChar

StartChar: seveninferior
Encoding: 278 8327 176
Width: 375
VWidth: 0
Flags: HW
LayerCount: 2
Fore
SplineSet
13.95 206.15 m 1
 13.95 278.5 l 1
 340.6 278.5 l 1
 360.45 243.3 l 1
 178.15 -199.15 l 1
 94.95 -199.15 l 1
 263.25 206.15 l 1
 13.95 206.15 l 1
EndSplineSet
EndChar

StartChar: eightinferior
Encoding: 279 8328 177
Width: 465
VWidth: 0
Flags: HW
LayerCount: 2
Fore
SplineSet
136.25 127.3 m 2
 136.25 87.05 160.4 77.25 182.55 77.25 c 2
 282.15 77.25 l 2
 326.45 77.25 329.3 105.5 329.3 127.3 c 2
 329.3 156.75 l 2
 329.3 201.15 312.6 210.5 277.9 210.5 c 2
 190.2 210.5 l 2
 148.95 210.5 136.25 199.3 136.25 156.75 c 2
 136.25 127.3 l 2
136.25 -41.35 m 2
 136.25 -87 l 2
 136.25 -116.9 145.95 -128.85 184.25 -128.85 c 2
 284.7 -128.85 l 2
 312.85 -128.85 329.3 -118 329.3 -87 c 2
 329.3 -41.35 l 2
 329.3 -7.8 314.25 6.45 285.7 6.45 c 2
 182.55 6.45 l 2
 152.85 6.45 136.25 -5.25 136.25 -41.35 c 2
61.65 -40.05 m 2
 61.65 5.7 88.25 25 116.8 32.7 c 1
 72.7 48.35 61.65 89.3 61.65 124.35 c 2
 61.65 164.8 l 2
 61.65 257.1 113.5 281.65 181.7 281.65 c 2
 292.15 281.65 l 2
 364.55 281.65 403.9 250.8 403.9 165.1 c 2
 403.9 126.75 l 2
 404.75 112.15 401.85 61 354.7 51.6 c 1
 392.1 45.15 403.9 -8.6 403.9 -36.75 c 2
 403.9 -93.7 l 2
 403.9 -181.6 351.95 -200.85 294.7 -200.85 c 2
 175.75 -200.85 l 2
 76.7 -200.85 61.65 -146.8 61.65 -94.6 c 2
 61.65 -40.05 l 2
EndSplineSet
EndChar

StartChar: nineinferior
Encoding: 280 8329 178
Width: 439
VWidth: 0
Flags: HW
LayerCount: 2
Fore
SplineSet
116.6 110.3 m 2
 116.6 76.25 131.2 69.25 160.45 69.25 c 2
 317.55 69.25 l 1
 317.55 105.85 316.9 210.75 255.2 210.75 c 2
 160.9 210.75 l 2
 129.55 210.75 116.6 197.25 116.6 163.65 c 2
 116.6 110.3 l 2
42 103.6 m 2
 42 175.1 l 2
 42 249.95 87.65 283.1 152.25 283.1 c 2
 258.2 283.1 l 2
 332.75 283.1 393.85 244.6 392.15 31.3 c 0
 390.45 -163.15 335.55 -194.15 269.7 -199.9 c 0
 202.65 -205.95 124.6 -200.6 58.3 -188.05 c 1
 58.3 -128.75 l 1
 252.55 -128.75 l 2
 312.45 -128.75 316.7 -40.8 317.55 12.25 c 1
 267.05 5.05 201 -2.05 151.8 -2.05 c 0
 60.5 -2.05 42 48.85 42 103.6 c 2
EndSplineSet
EndChar

StartChar: zero.oldstyle
Encoding: 281 -1 179
Width: 639
VWidth: 0
Flags: HW
HStem: 0 89<184.279 458.107> 542.3 89<183.387 457.648>
VStem: 65.35 92<115.53 515.84> 482.35 92<111.355 518.586>
LayerCount: 2
Fore
SplineSet
157.35 172.65 m 2
 157.35 107.3 205.1 89 249.2 89 c 2
 394.9 89 l 2
 454.25 89 482.35 118.5 482.35 172.5 c 2
 482.35 458.8 l 2
 482.35 504.8 463.05 542.3 396.1 542.3 c 2
 248.15 542.3 l 2
 180.85 542.3 157.35 501.55 157.35 458.8 c 2
 157.35 172.65 l 2
65.35 166.5 m 2
 65.35 463.3 l 2
 65.35 574.6 141.15 631.3 240.65 631.3 c 2
 404.65 631.3 l 2
 530.1 631.3 574.35 557.75 574.35 464.8 c 2
 574.35 166.5 l 2
 574.35 47.5 506.65 0 404.5 0 c 2
 240.5 0 l 2
 143.65 0 65.35 46.5 65.35 166.5 c 2
EndSplineSet
Substitution2: "'tnum' Tabular Numbers in Latin lookup 7-1" zero.tosf
Substitution2: "'lnum' Lining Figures lookup 19-1" zero
EndChar

StartChar: one.oldstyle
Encoding: 282 -1 180
Width: 359
VWidth: 0
Flags: HW
HStem: 0 21G<188.55 280.55> 0 21G<188.55 280.55>
VStem: 188.55 92<0 532.85>
LayerCount: 2
Fore
SplineSet
28.05 483.95 m 1
 28.05 547.45 l 1
 188.85 632 l 1
 280.55 632 l 1
 280.55 0 l 1
 188.55 0 l 1
 188.55 532.85 l 1
 28.05 483.95 l 1
EndSplineSet
Substitution2: "'tnum' Tabular Numbers in Latin lookup 7-1" one.tosf
Substitution2: "'lnum' Lining Figures lookup 19-1" one
EndChar

StartChar: two.oldstyle
Encoding: 283 -1 181
Width: 594
VWidth: 0
Flags: HW
HStem: 0 89<223.55 543.95> 549.45 89.15<87.1337 418.679> 549.45 67.65<38.3 257.176>
VStem: 455.35 88.6<381.383 516.026>
LayerCount: 2
Fore
SplineSet
38.3 549.45 m 1
 38.3 617.1 l 1
 133.9 631.7 222.1 642.85 341.45 638.6 c 1
 483.85 638.6 548.2 566.7 548.2 449.65 c 0
 548.2 283.6 281.25 119.6 223.55 89 c 1
 543.95 89 l 1
 543.95 0 l 1
 44.45 0 l 1
 44.45 83 l 1
 165.45 150.55 455.35 311.7 455.35 447.9 c 0
 455.35 517 418.8 552 328.45 549.45 c 1
 38.3 549.45 l 1
EndSplineSet
Substitution2: "'tnum' Tabular Numbers in Latin lookup 7-1" two.tosf
Substitution2: "'lnum' Lining Figures lookup 19-1" two
EndChar

StartChar: three.oldstyle
Encoding: 284 -1 182
Width: 609
VWidth: 0
Flags: HW
HStem: -102 90<103.894 421.179> -74 62<53.7 153.643> 223.5 90<184 415.037> 230.5 73<114.7 276.4> 550 89<112.633 418.727> 550 61<46.7 145.869>
VStem: 448.2 91.7<16.4018 191.173 343.032 522>
LayerCount: 2
Fore
SplineSet
46.7 550 m 1
 46.7 611 l 1
 134.7 642 249.2 641 366.2 639 c 0
 476.2 637 539.9 567.05 539.9 471 c 2
 539.9 406.5 l 2
 539.9 333.5 514.35 285.9 471.2 269 c 1
 515.5 243.9 539.9 199.5 539.9 123.5 c 2
 539.9 69 l 2
 539.9 -41.8 481.2 -102 359.2 -102 c 0
 245.2 -102 140.7 -105 52.7 -74 c 1
 53.7 -12 l 1
 339.7 -12 l 2
 396.45 -12 446.2 0.0500002 446.2 74.25 c 2
 446.2 125.75 l 2
 446.2 198.95 401.2 221.35 345.7 223.5 c 2
 114.7 230.5 l 1
 114.7 303.5 l 1
 345.7 313.5 l 2
 414.7 316.5 448.2 346.25 448.2 405 c 2
 448.2 465 l 2
 448.2 527.9 397.7 550 345.7 550 c 2
 46.7 550 l 1
EndSplineSet
Substitution2: "'tnum' Tabular Numbers in Latin lookup 7-1" three.tosf
Substitution2: "'lnum' Lining Figures lookup 19-1" three
EndChar

StartChar: four.oldstyle
Encoding: 285 -1 183
Width: 607
VWidth: 0
Flags: HW
HStem: 79.5 93<155.7 411.65> 100 72.5<559.955 589.15>
VStem: 411.65 92<-98 79.5 172.5 368.55>
DStem2: 18.65 124 155.7 172.5 0.514123 0.857716<112.06 592.27>
LayerCount: 2
Fore
SplineSet
18.65 124 m 1
 323.15 632 l 1
 429.15 632 l 1
 155.7 172.5 l 1
 411.65 172.5 l 1
 411.65 368.55 l 1
 447.15 444 l 1
 503.65 444 l 1
 503.65 172.5 l 1
 589.15 172.5 l 1
 589.15 100 l 1
 503.65 79.5 l 1
 503.65 -98 l 1
 411.65 -98 l 1
 411.65 79.5 l 1
 52.65 79.5 l 1
 18.65 124 l 1
EndSplineSet
Substitution2: "'tnum' Tabular Numbers in Latin lookup 7-1" four.tosf
Substitution2: "'lnum' Lining Figures lookup 19-1" four
EndChar

StartChar: five.oldstyle
Encoding: 286 -1 184
Width: 617
VWidth: 0
Flags: HW
HStem: -104 94<117.564 430.548> -80 70<71.05 248.22> 263 87.5<178.188 431.878> 543 89<181.05 523.05>
VStem: 72.9 84<192.5 244.512> 94.9 86.15<492.159 543> 454.4 92<17.0143 243.905>
LayerCount: 2
Fore
SplineSet
71.05 -10 m 1
 369.05 -10 l 2
 437 -10 454.4 36.6 454.4 77 c 2
 454.4 175.15 l 2
 454.4 208.15 452.05 263 370.7 263 c 2
 233.2 263 l 2
 195.25 263 156.9 243.05 156.9 192.5 c 1
 72.9 192.5 l 1
 94.9 632 l 1
 523.05 632 l 1
 523.05 543 l 1
 181.05 543 l 1
 170.25 322 l 1
 186.05 338.85 213.75 346.95 242.9 350.5 c 0
 292.7 356.75 353.5 350.65 381.8 350.5 c 0
 499.5 349 546.4 278.35 546.4 180 c 2
 546.4 69 l 2
 546.4 -68 443.95 -104 376.55 -104 c 0
 252.55 -104 205.05 -103 71.05 -80 c 1
 71.05 -10 l 1
EndSplineSet
Substitution2: "'tnum' Tabular Numbers in Latin lookup 7-1" five.tosf
Substitution2: "'lnum' Lining Figures lookup 19-1" five
EndChar

StartChar: six.oldstyle
Encoding: 287 -1 185
Width: 619
VWidth: 0
Flags: HW
HStem: -1 89<206.991 457.066> 345 87.5<156.458 455.946> 345 66.5<152.8 384.944> 649 88.25<211.298 484.491> 649 68.95<305.035 539.3>
VStem: 60.8 92<163.811 345 411.5 559.091> 472.15 91.15<104.152 328.768>
LayerCount: 2
Fore
SplineSet
152.8 345 m 1
 152.8 249.2 158.45 88 261.7 88 c 2
 390.9 88 l 2
 439.2 88 472.15 97.85 472.15 163.75 c 2
 472.15 273 l 2
 472.15 331.3 436.3 345 391.65 345 c 2
 152.8 345 l 1
60.8 384 m 0
 60.8 649 148.9 735.15 232.8 737.25 c 0
 333.65 739.65 444.6 732 539.3 717.95 c 1
 539.3 649 l 1
 260.8 649 l 2
 169.8 649 154.5 493.85 152.8 411.5 c 1
 230.6 422.85 323.8 432.5 399.3 432.5 c 0
 536.8 432.5 563.3 360.15 563.3 277.5 c 2
 563.3 152.5 l 2
 563.3 37.8 495.1 -1 397.8 -1 c 2
 250.45 -1 l 2
 139.5 -0.15 60.8 69 60.8 384 c 0
EndSplineSet
Substitution2: "'tnum' Tabular Numbers in Latin lookup 7-1" six.tosf
Substitution2: "'lnum' Lining Figures lookup 19-1" six
EndChar

StartChar: seven.oldstyle
Encoding: 288 -1 186
Width: 548
VWidth: 0
Flags: HW
HStem: 543 89<28.05 404.05>
DStem2: 155.05 -100 260.75 -100 0.356887 0.934148<37.7229 689.522>
LayerCount: 2
Fore
SplineSet
28.05 543 m 1
 28.05 632 l 1
 490.35 632 l 1
 520.35 579.5 l 1
 260.75 -100 l 1
 155.05 -100 l 1
 404.05 543 l 1
 28.05 543 l 1
EndSplineSet
Substitution2: "'tnum' Tabular Numbers in Latin lookup 7-1" seven.tosf
Substitution2: "'lnum' Lining Figures lookup 19-1" seven
EndChar

StartChar: eight.oldstyle
Encoding: 289 -1 187
Width: 631
VWidth: 0
Flags: HW
HStem: 0 87.5<184.996 447.05> 331 85<184.4 449.198> 649.5 87.5<181.708 447.917>
VStem: 70.05 92<107.959 310.801 439.348 630.059> 469.55 92<108.725 308.864 433.937 629.188>
LayerCount: 2
Fore
SplineSet
162.05 494 m 2
 162.05 431.2 212.45 416 246.45 416 c 2
 389.4 416 l 2
 458.05 416 469.55 458.9 469.55 494 c 2
 469.55 556.3 l 2
 469.55 626.4 441.45 649.5 387.7 649.5 c 2
 255.8 649.5 l 2
 196.9 649.5 162.05 639.7 162.05 556.3 c 2
 162.05 494 l 2
162.05 159.85 m 2
 162.05 112.95 188.5 87.5 255.8 87.5 c 2
 386.85 87.5 l 2
 430 87.5 469.55 110.6 469.55 159.85 c 2
 469.55 255.1 l 2
 469.55 307.45 432.95 331 389.7 331 c 2
 246.45 331 l 2
 201.05 331 162.05 311.85 162.05 255.1 c 2
 162.05 159.85 l 2
70.05 157.75 m 2
 70.05 249 l 2
 70.05 319.4 111 345.1 153.4 357.5 c 1
 87.9 381.75 70.05 444.8 70.05 499 c 2
 70.05 564 l 2
 70.05 698.9 146.05 737 249.05 737 c 2
 396.55 737 l 2
 505.2 737 561.55 687.6 561.55 563.85 c 2
 561.55 502 l 2
 562.4 479.25 557.5 400.1 486.55 386 c 1
 542.8 375.55 562.4 296.35 561.55 253.35 c 2
 561.55 158.65 l 2
 561.55 23.7 464.5 0 395.55 0 c 2
 249.05 0 l 2
 74.35 0 70.05 113.3 70.05 157.75 c 2
EndSplineSet
Substitution2: "'tnum' Tabular Numbers in Latin lookup 7-1" eight.tosf
Substitution2: "'lnum' Lining Figures lookup 19-1" eight
EndChar

StartChar: nine.oldstyle
Encoding: 290 -1 188
Width: 619
VWidth: 0
Flags: HW
HStem: -106.1 88.25<135.54 408.102> -86.8 68.95<80.1 314.579> 198.65 87.5<163.454 462.942> 219.65 66.5<234.456 466.6> 543.15 89<162.334 412.409>
VStem: 56.1 91.15<302.382 526.998> 466.6 92<72.0586 219.65 286.15 467.339>
LayerCount: 2
Fore
SplineSet
147.25 358.15 m 2
 147.25 299.85 183.1 286.15 227.75 286.15 c 2
 466.6 286.15 l 1
 466.6 381.95 460.95 543.15 357.7 543.15 c 2
 228.5 543.15 l 2
 180.2 543.15 147.25 533.3 147.25 467.4 c 2
 147.25 358.15 l 2
56.1 353.65 m 2
 56.1 478.65 l 2
 56.1 593.35 124.3 632.15 221.6 632.15 c 2
 368.95 632.15 l 2
 479.9 631.3 558.6 562.15 558.6 247.15 c 0
 558.6 -17.85 470.5 -104 386.6 -106.1 c 0
 285.75 -108.5 176.5 -105.1 80.1 -86.8 c 1
 80.1 -17.85 l 1
 358.6 -17.85 l 2
 449.6 -17.85 464.9 137.3 466.6 219.65 c 1
 388.8 208.3 295.6 198.65 220.1 198.65 c 0
 82.6 198.65 56.1 271 56.1 353.65 c 2
EndSplineSet
Substitution2: "'tnum' Tabular Numbers in Latin lookup 7-1" nine.tosf
Substitution2: "'lnum' Lining Figures lookup 19-1" nine
EndChar

StartChar: ampersand
Encoding: 38 38 189
Width: 648
VWidth: 0
Flags: HW
LayerCount: 2
Fore
SplineSet
74.55 82 m 1
 0.6 178.2 26.1 292.6 112.8 366.9 c 2
 194.3 436.45 l 1
 134.45 518.45 l 2
 55.45 625.45 134.45 721.8 207 730 c 0
 323.9 742.65 404 727 476 710 c 1
 476 645.9 l 1
 283.5 645.9 l 2
 200.2 645.9 170.85 616.75 234.6 530.5 c 2
 451.45 236.2 l 1
 567.55 353.85 l 1
 597.6 320.25 l 1
 544.2 213.1 l 1
 504.1 168.4 l 1
 626.5 0 l 1
 517.5 0 l 1
 438.65 106.95 l 1
 368.45 42.35 l 2
 290.9 -28.75 146.45 -21.4 74.55 82 c 1
151.65 132.8 m 0
 188.05 86.6 262.05 60.8 312.9 109.25 c 2
 384.8 177.05 l 1
 243.8 364.8 l 1
 173 305.2 l 2
 100.2 244.6 110.75 185.2 151.65 132.8 c 0
EndSplineSet
AlternateSubs2: "'salt' Access All Alternates in Latin lookup 4-1" ampersand.salt
Substitution2: "'smcp' Lowercase to Small Capitals lookup 16-1" ampersand.smcp
EndChar

StartChar: asterisk
Encoding: 42 42 190
Width: 436
VWidth: 0
Flags: HW
LayerCount: 2
Fore
SplineSet
46.7 566 m 1
 46.7 610.5 l 1
 185.7 638 l 1
 190.7 561 l 1
 46.7 566 l 1
111.7 414.6 m 1
 135.85 550.05 l 1
 210.7 532 l 1
 153.2 401.25 l 1
 111.7 414.6 l 1
173.15 717.75 m 1
 216.35 734.65 l 1
 289.25 615.45 l 1
 218.25 584 l 1
 173.15 717.75 l 1
203.2 473.45 m 1
 245.7 538 l 1
 356.3 447.3 l 1
 332.15 411.7 l 1
 203.2 473.45 l 1
247.85 571 m 1
 367.7 647.75 l 1
 390 609.45 l 1
 297.5 512.45 l 1
 247.85 571 l 1
EndSplineSet
Substitution2: "'smcp' Lowercase to Small Capitals lookup 16-1" asterisk.smcp
EndChar

StartChar: Euro
Encoding: 291 8364 191
Width: 612
VWidth: 0
Flags: HW
LayerCount: 2
Fore
SplineSet
18.65 253.5 m 1
 18.65 306.5 l 1
 103.65 313.5 l 1
 103.65 405.5 l 1
 18.65 413.5 l 1
 18.65 462.5 l 1
 103.65 471.5 l 1
 103.65 543.5 96.65 740 340.65 740 c 0
 392.65 740 517.75 724.35 590.15 708.5 c 1
 590.15 637.5 l 1
 590.15 637.5 431.65 652.5 349.65 652.5 c 0
 204.85 652.5 195.65 581 195.65 471.5 c 1
 429.65 464.5 l 1
 429.65 412.5 l 1
 195.65 405.5 l 1
 195.65 313.5 l 1
 429.65 306.5 l 1
 429.65 253.5 l 1
 429.65 253.5 192.65 248.5 195.65 246.5 c 1
 195.65 118.95 261.05 80 349.65 80 c 0
 445 80 594.15 98.5 594.15 98.5 c 1
 594.15 30.5 l 1
 515.1 5.1 429.65 -6 340.65 -6 c 0
 263.65 -6 103.65 20.5 103.65 246.5 c 1
 18.65 253.5 l 1
EndSplineSet
Substitution2: "'smcp' Lowercase to Small Capitals lookup 16-1" Euro.smcp
EndChar

StartChar: parenleft
Encoding: 40 40 192
Width: 346
VWidth: 60
Flags: HW
LayerCount: 2
Fore
SplineSet
70.05 326 m 0
 70.05 613.8 233.55 860 233.55 860 c 1
 328.05 860 l 1
 328.05 860 162.05 600.7 162.05 326 c 0
 162.05 23.6 328.05 -210 328.05 -210 c 1
 233.55 -210 l 1
 233.55 -210 70.05 -2.15 70.05 326 c 0
EndSplineSet
Substitution2: "'case' Case-Sensitive Forms lookup 1-1" parenleft.alt
Substitution2: "'c2sc' Capitals to Small Capitals in Latin lookup 17 subtable" parenleft.smcp
Substitution2: "'smcp' Lowercase to Small Capitals lookup 16-1" parenleft.smcp
EndChar

StartChar: parenright
Encoding: 41 41 193
Width: 346
VWidth: 60
Flags: HW
LayerCount: 2
Fore
SplineSet
18.65 -210 m 1
 18.65 -210 184.65 23.6 184.65 326 c 0
 184.65 600.7 18.65 860 18.65 860 c 1
 113.15 860 l 1
 113.15 860 276.65 613.8 276.65 326 c 0
 276.65 -2.15 113.15 -210 113.15 -210 c 1
 18.65 -210 l 1
EndSplineSet
Substitution2: "'case' Case-Sensitive Forms lookup 1-1" parenright.alt
Substitution2: "'c2sc' Capitals to Small Capitals in Latin lookup 17 subtable" parenright.smcp
Substitution2: "'smcp' Lowercase to Small Capitals lookup 16-1" parenright.smcp
EndChar

StartChar: plus
Encoding: 43 43 194
Width: 507
VWidth: 0
Flags: HW
LayerCount: 2
Fore
SplineSet
45.5 313 m 1
 45.5 399 l 1
 209.5 399 l 1
 209.5 564 l 1
 295.5 564 l 1
 295.5 399 l 1
 461.5 399 l 1
 461.5 313 l 1
 295.5 313 l 1
 295.5 148 l 1
 209.5 148 l 1
 209.5 313 l 1
 45.5 313 l 1
EndSplineSet
EndChar

StartChar: endash
Encoding: 292 8211 195
Width: 513
VWidth: 0
Flags: HW
LayerCount: 2
Fore
SplineSet
20 244 m 1
 20 331 l 1
 493 331 l 1
 493 244 l 1
 20 244 l 1
EndSplineSet
Substitution2: "'case' Case-Sensitive Forms lookup 1-1" endash.alt
Substitution2: "'c2sc' Capitals to Small Capitals in Latin lookup 17 subtable" endash.smcp
Substitution2: "'smcp' Lowercase to Small Capitals lookup 16-1" endash.smcp
EndChar

StartChar: emdash
Encoding: 293 8212 196
Width: 736
VWidth: 0
Flags: HW
LayerCount: 2
Fore
SplineSet
20 246 m 1
 20 333 l 1
 716 333 l 1
 716 246 l 1
 20 246 l 1
EndSplineSet
Substitution2: "'case' Case-Sensitive Forms lookup 1-1" emdash.alt
Substitution2: "'c2sc' Capitals to Small Capitals in Latin lookup 17 subtable" emdash.smcp
Substitution2: "'smcp' Lowercase to Small Capitals lookup 16-1" emdash.smcp
EndChar

StartChar: less
Encoding: 60 60 197
Width: 468
VWidth: 0
Flags: HW
LayerCount: 2
Fore
SplineSet
46.7 306.8 m 1
 46.7 400.3 l 1
 421.7 557.5 l 1
 421.7 464 l 1
 159.35 353.85 l 1
 421.7 233.7 l 1
 421.7 138.5 l 1
 46.7 306.8 l 1
EndSplineSet
EndChar

StartChar: equal
Encoding: 61 61 198
Width: 467
VWidth: 0
Flags: HW
LayerCount: 2
Fore
SplineSet
20 415 m 1
 20 501 l 1
 447 501 l 1
 447 415 l 1
 20 415 l 1
20 204.5 m 1
 20 290.5 l 1
 447 290.5 l 1
 447 204.5 l 1
 20 204.5 l 1
EndSplineSet
EndChar

StartChar: greater
Encoding: 62 62 199
Width: 468
VWidth: 0
Flags: HW
LayerCount: 2
Fore
SplineSet
46.7 138.5 m 1
 46.7 233.7 l 1
 309.05 353.85 l 1
 46.7 464 l 1
 46.7 557.5 l 1
 421.7 400.3 l 1
 421.7 306.8 l 1
 46.7 138.5 l 1
EndSplineSet
EndChar

StartChar: multiply
Encoding: 215 215 200
Width: 459
VWidth: 0
Flags: HW
LayerCount: 2
Fore
SplineSet
52.4 239.2 m 1
 169.05 355 l 1
 52.4 471.8 l 1
 112.8 533.2 l 1
 229.6 416.4 l 1
 347.25 533.35 l 1
 407.8 472.8 l 1
 290.15 355 l 1
 406.95 239.2 l 1
 346.4 177.8 l 1
 229.6 294.45 l 1
 113.8 178.65 l 1
 52.4 239.2 l 1
EndSplineSet
EndChar

StartChar: divide
Encoding: 247 247 201
Width: 511
VWidth: 0
Flags: HW
LayerCount: 2
Fore
SplineSet
204.95 473.65 m 2
 204.95 531.1 l 2
 204.95 546.1 212.95 556.1 228.95 556.1 c 2
 285.4 556.1 l 2
 300.85 556.1 308.7 545.4 308.7 531.1 c 2
 308.7 473.65 l 2
 308.7 458.2 299.4 450.65 285.4 450.65 c 2
 228.95 450.65 l 2
 214.95 450.65 204.95 459.65 204.95 473.65 c 2
204.95 168.05 m 2
 204.95 225.5 l 2
 204.95 240.5 212.95 250.5 228.95 250.5 c 2
 285.4 250.5 l 2
 300.85 250.5 308.7 239.8 308.7 225.5 c 2
 308.7 168.05 l 2
 308.7 152.6 299.4 145.05 285.4 145.05 c 2
 228.95 145.05 l 2
 214.95 145.05 204.95 154.05 204.95 168.05 c 2
46.7 310 m 1
 46.7 396 l 1
 464.35 396 l 1
 464.35 310 l 1
 46.7 310 l 1
EndSplineSet
EndChar

StartChar: question
Encoding: 63 63 202
Width: 541
VWidth: 0
Flags: HW
LayerCount: 2
Fore
SplineSet
167.75 23 m 2
 167.75 89 l 2
 167.75 104 175.75 114 191.75 114 c 2
 255.45 114 l 2
 270.9 114 278.75 103.3 278.75 89 c 2
 278.75 23 l 2
 278.75 7.55 269.45 0 255.45 0 c 2
 191.75 0 l 2
 177.75 0 167.75 9 167.75 23 c 2
18.65 649 m 1
 18.65 717.5 l 1
 118.25 732 185.65 744 300.65 739 c 1
 452.65 739 504.15 649 504.15 551 c 2
 504.15 457.5 l 2
 504.15 322.5 405.3 274.25 265.65 293 c 1
 265.65 195 l 1
 180.15 195 l 1
 180.15 366 l 1
 314.65 366 l 1
 363.65 368 413.15 393.2 413.15 458.1 c 2
 413.15 546.2 l 2
 413.15 619.1 374.65 649 283.65 649 c 2
 18.65 649 l 1
EndSplineSet
Substitution2: "'smcp' Lowercase to Small Capitals lookup 16-1" question.smcp
EndChar

StartChar: bracketleft
Encoding: 91 91 203
Width: 324
VWidth: 60
Flags: HW
LayerCount: 2
Fore
SplineSet
79.45 -30.5 m 2
 79.45 665.5 l 2
 79.45 736.3 100.75 842 224.45 842 c 2
 305.95 842 l 1
 305.95 756 l 1
 233.45 756 l 2
 195.45 756 171.45 721 171.45 661 c 2
 171.45 -29 l 2
 171.45 -89 195.45 -124 233.45 -124 c 2
 305.95 -124 l 1
 305.95 -210 l 1
 224.45 -210 l 2
 96.25 -210 79.45 -96.2 79.45 -30.5 c 2
EndSplineSet
EndChar

StartChar: bracketright
Encoding: 93 93 204
Width: 324
VWidth: 60
Flags: HW
LayerCount: 2
Fore
SplineSet
18.65 -124 m 1
 91.15 -124 l 2
 129.15 -124 153.15 -89 153.15 -29 c 2
 153.15 661 l 2
 153.15 721 129.15 756 91.15 756 c 2
 18.65 756 l 1
 18.65 842 l 1
 100.15 842 l 2
 223.85 842 245.15 736.3 245.15 665.5 c 2
 245.15 -30.5 l 2
 245.15 -96.2 228.35 -210 100.15 -210 c 2
 18.65 -210 l 1
 18.65 -124 l 1
EndSplineSet
EndChar

StartChar: braceleft
Encoding: 123 123 205
Width: 320
VWidth: 60
Flags: HW
LayerCount: 2
Fore
SplineSet
18.65 294.75 m 1
 18.65 372.25 l 1
 51.65 375.25 104.15 376.2 104.15 425.25 c 2
 104.15 656 l 2
 104.15 755.6 164 842 301.65 842 c 1
 301.65 756 l 1
 241.8 756 196.15 735 196.15 644 c 2
 196.15 423 l 2
 196.15 371.1 158.7 342.4 108.15 334 c 1
 158.7 326.1 195.15 292.25 195.15 248 c 2
 195.15 -27.5 l 2
 195.15 -92.5 235.25 -128.9 301.65 -125.5 c 1
 301.65 -210 l 1
 148.6 -210 103.15 -122.9 103.15 -38 c 2
 103.15 241.75 l 2
 103.15 282.55 58.65 297.75 18.65 294.75 c 1
EndSplineSet
EndChar

StartChar: braceright
Encoding: 125 125 206
Width: 320
VWidth: 60
Flags: HW
LayerCount: 2
Fore
SplineSet
18.65 -125.5 m 1
 85.05 -128.9 125.15 -92.5 125.15 -27.5 c 2
 125.15 248 l 2
 125.15 292.25 161.6 326.1 212.15 334 c 1
 161.6 342.4 124.15 371.1 124.15 423 c 2
 124.15 644 l 2
 124.15 735 78.5 756 18.65 756 c 1
 18.65 842 l 1
 156.3 842 216.15 755.6 216.15 656 c 2
 216.15 425.25 l 2
 216.15 376.2 268.65 375.25 301.65 372.25 c 1
 301.65 294.75 l 1
 261.65 297.75 217.15 282.55 217.15 241.75 c 2
 217.15 -38 l 2
 217.15 -122.9 171.7 -210 18.65 -210 c 1
 18.65 -125.5 l 1
EndSplineSet
EndChar

StartChar: at
Encoding: 64 64 207
Width: 850
VWidth: 0
Flags: HW
LayerCount: 2
Fore
SplineSet
312.5 121.65 m 0
 312.5 100.65 337.5 74.65 369.6 75.5 c 1
 424.1 74.65 479.75 101.6 524.2 126.5 c 1
 524.2 237.5 l 1
 368 223 l 2
 330.85 219.3 311.65 195.05 312.5 161.7 c 0
 312.35 160.7 312.35 122.65 312.5 121.65 c 0
60.8 3 m 2
 60.8 339 l 2
 60.8 388.5 71.8 512 239.3 512 c 2
 448 512 l 2
 522.75 512 607 484.7 607 367.5 c 2
 607 0 l 1
 541.7 0 l 1
 526.2 62.5 l 1
 524.2 62.5 445.5 -9 354.5 -9 c 1
 277.5 -10.7 225.65 44.5 226.5 112.5 c 2
 226.5 162.5 l 2
 226.5 245.2 274.45 297 360 297 c 0
 423.35 297 524.2 296 524.2 297 c 2
 524.2 297 525.2 363.85 524.2 364 c 1
 524.2 416.55 496.75 427.5 446.2 427.5 c 2
 239.3 427.5 l 2
 191.3 427.5 145.3 417.5 145.3 337.5 c 2
 145.3 6 l 2
 145.3 -84 199.3 -98.5 239.3 -98.5 c 2
 583.8 -98.5 l 2
 665.8 -98.5 686.8 -62 686.8 6 c 2
 686.8 503 l 2
 686.8 580 644.8 617.75 583.8 617.75 c 2
 179.8 617.75 l 1
 179.8 675.25 l 1
 227.8 685.25 346.3 703.25 472.3 702.25 c 1
 583.8 702.25 l 1
 691.15 700.55 771.3 639.85 771.3 503 c 2
 771.3 6 l 2
 771.3 -105.5 724.65 -184 585.3 -184 c 2
 239.3 -184 l 2
 134.3 -184 60.8 -122.75 60.8 3 c 2
EndSplineSet
Substitution2: "'case' Case-Sensitive Forms lookup 1-1" at.alt
Substitution2: "'smcp' Lowercase to Small Capitals lookup 16-1" at.smcp
EndChar

StartChar: breve
Encoding: 294 728 208
Width: 322
VWidth: 0
Flags: HW
LayerCount: 2
Fore
SplineSet
46.7 644 m 1
 96.7 644 l 1
 96.7 606.35 127.85 580 160.7 580 c 0
 198.7 580 226.7 604.1 226.7 644 c 1
 276.7 644 l 1
 276.7 569.2 218.1 530 160.7 530 c 0
 103.6 530 46.7 572.6 46.7 644 c 1
EndSplineSet
EndChar

StartChar: ogonek
Encoding: 295 731 209
Width: 219
VWidth: 0
Flags: HW
LayerCount: 2
Fore
SplineSet
125.4 0 m 1
 168.9 0 l 1
 86.8 -65.75 100.85 -117.2 173.4 -118 c 1
 173.4 -182.5 l 1
 60.8 -201.2 -22.5 -66.1 125.4 0 c 1
EndSplineSet
EndChar

StartChar: caron
Encoding: 296 711 210
Width: 389
VWidth: 0
Flags: HW
LayerCount: 2
Fore
SplineSet
46.7 662.5 m 1
 124.55 662.5 l 1
 199.9 594.5 l 1
 266.05 662.5 l 1
 343.2 662.5 l 1
 239.8 531 l 1
 159.8 531 l 1
 46.7 662.5 l 1
EndSplineSet
Substitution2: "'smcp' Lowercase to Small Capitals lookup 16-1" caron.smcp
EndChar

StartChar: hungarumlaut
Encoding: 297 733 211
Width: 385
VWidth: 0
Flags: HW
LayerCount: 2
Fore
SplineSet
159.35 531 m 1
 261.85 665.5 l 1
 364.35 665.5 l 1
 234.35 531 l 1
 159.35 531 l 1
18.65 531 m 1
 121.15 665.5 l 1
 223.65 665.5 l 1
 93.65 531 l 1
 18.65 531 l 1
EndSplineSet
EndChar

StartChar: dotaccent
Encoding: 298 729 212
Width: 196
VWidth: 0
Flags: HW
HStem: 530 108<46.8465 149.537>
VStem: 46.7 103<530.104 637.928>
LayerCount: 2
Fore
SplineSet
46.7 553 m 2
 46.7 613 l 2
 46.7 628 54.7 638 70.7 638 c 2
 126.7 638 l 2
 141.7 638 149.7 627 149.7 613 c 2
 149.7 553 l 2
 149.7 538 140.7 530 126.7 530 c 2
 70.7 530 l 2
 56.7 530 46.7 539 46.7 553 c 2
EndSplineSet
EndChar

StartChar: Aogonek
Encoding: 299 260 213
Width: 676
VWidth: 0
Flags: HW
LayerCount: 2
Fore
SplineSet
241.15 280.25 m 1
 461.4 280.25 l 1
 353.15 599.5 l 1
 241.15 280.25 l 1
42 0 m 1
 305 732 l 1
 402.25 732 l 1
 654 0 l 1
 626.145 -1.62709e-09 l 1
 544.366 -65.6397 558.468 -116.971 630.933 -117.77 c 1
 630.933 -182.27 l 1
 518.464 -200.948 435.227 -66.1835 582.419 1.67022e-06 c 1
 549.35 0 l 1
 489.35 192.6 l 1
 211.6 192.6 l 1
 149.2 0 l 1
 42 0 l 1
EndSplineSet
Substitution2: "'c2sc' Capitals to Small Capitals in Latin lookup 17 subtable" aogonek.smcp
EndChar

StartChar: Lcaron
Encoding: 300 317 214
Width: 552
VWidth: 0
Flags: HW
LayerCount: 2
Fore
SplineSet
239.7 705 m 1
 239.7 772 l 1
 319.7 772 l 1
 319.7 705 l 1
 309.7 571 l 1
 250.7 571 l 1
 239.7 705 l 1
74.75 130.5 m 2
 74.75 732 l 1
 166.75 732 l 1
 166.75 141 l 2
 166.75 88 199.75 89 228.75 89 c 2
 519.75 89 l 1
 519.75 0 l 1
 215.25 0 l 2
 145.493 0 74.75 17.5 74.75 130.5 c 2
EndSplineSet
Substitution2: "'c2sc' Capitals to Small Capitals in Latin lookup 17 subtable" lcaron.smcp
EndChar

StartChar: Sacute
Encoding: 301 346 215
Width: 585
VWidth: 0
Flags: HW
LayerCount: 2
Fore
SplineSet
269.002 798.127 m 1
 371.502 932.627 l 1
 474.002 932.627 l 1
 344.002 798.127 l 1
 269.002 798.127 l 1
60.7998 491.75 m 2
 60.7998 557 l 2
 60.7998 702 146.8 737.55 258.8 738 c 0
 326.05 738.6 474.4 720.95 517.8 712.65 c 1
 517.8 639 l 1
 453.8 643.45 279.2 649 269.3 649 c 0
 201.7 651.55 152.8 645.3 152.8 554 c 2
 152.8 496.25 l 2
 152.8 414.25 189.4 405.75 248.5 405.75 c 2
 383.3 405.75 l 2
 519.15 405.75 543.95 309.45 543.95 227.75 c 2
 543.95 165 l 2
 543.95 16.4004 440.8 -8 341.8 -8 c 0
 272.1 -8 137.05 6.4502 82.9502 18.3496 c 1
 82.9502 92 l 1
 122.95 88 241.3 81 334.3 81 c 0
 375.6 81 451.95 84.3496 451.95 163.65 c 2
 451.95 223.85 l 2
 451.95 276.65 436.15 313.75 374.3 313.75 c 2
 241.8 313.75 l 2
 77.2998 313.75 60.7998 413.3 60.7998 491.75 c 2
EndSplineSet
Substitution2: "'c2sc' Capitals to Small Capitals in Latin lookup 17 subtable" sacute.smcp
EndChar

StartChar: Scaron
Encoding: 302 352 216
Width: 585
VWidth: 0
Flags: HW
LayerCount: 2
Fore
SplineSet
158.027 929.627 m 1
 235.877 929.627 l 1
 311.227 861.627 l 1
 377.377 929.627 l 1
 454.527 929.627 l 1
 351.127 798.127 l 1
 271.127 798.127 l 1
 158.027 929.627 l 1
60.7998 491.75 m 2
 60.7998 557 l 2
 60.7998 702 146.8 737.55 258.8 738 c 0
 326.05 738.6 474.4 720.95 517.8 712.65 c 1
 517.8 639 l 1
 453.8 643.45 279.2 649 269.3 649 c 0
 201.7 651.55 152.8 645.3 152.8 554 c 2
 152.8 496.25 l 2
 152.8 414.25 189.4 405.75 248.5 405.75 c 2
 383.3 405.75 l 2
 519.15 405.75 543.95 309.45 543.95 227.75 c 2
 543.95 165 l 2
 543.95 16.4004 440.8 -8 341.8 -8 c 0
 272.1 -8 137.05 6.4502 82.9502 18.3496 c 1
 82.9502 92 l 1
 122.95 88 241.3 81 334.3 81 c 0
 375.6 81 451.95 84.3496 451.95 163.65 c 2
 451.95 223.85 l 2
 451.95 276.65 436.15 313.75 374.3 313.75 c 2
 241.8 313.75 l 2
 77.2998 313.75 60.7998 413.3 60.7998 491.75 c 2
EndSplineSet
Substitution2: "'c2sc' Capitals to Small Capitals in Latin lookup 17 subtable" scaron.smcp
EndChar

StartChar: Scedilla
Encoding: 303 350 217
Width: 585
VWidth: 0
Flags: HW
LayerCount: 2
Fore
SplineSet
196 -138.9 m 1
 246.6 -123.9 l 1
 274.6 -111.9 278 -82.7002 278 -44.7002 c 1
 352.5 -44.7002 l 1
 352.5 -146.7 330.3 -182.2 248.5 -182.2 c 2
 196 -182.2 l 1
 196 -138.9 l 1
60.7998 491.75 m 2
 60.7998 557 l 2
 60.7998 702 146.8 737.55 258.8 738 c 0
 326.05 738.6 474.4 720.95 517.8 712.65 c 1
 517.8 639 l 1
 453.8 643.45 279.2 649 269.3 649 c 0
 201.7 651.55 152.8 645.3 152.8 554 c 2
 152.8 496.25 l 2
 152.8 414.25 189.4 405.75 248.5 405.75 c 2
 383.3 405.75 l 2
 519.15 405.75 543.95 309.45 543.95 227.75 c 2
 543.95 165 l 2
 543.95 16.4004 440.8 -8 341.8 -8 c 0
 272.1 -8 137.05 6.4502 82.9502 18.3496 c 1
 82.9502 92 l 1
 122.95 88 241.3 81 334.3 81 c 0
 375.6 81 451.95 84.3496 451.95 163.65 c 2
 451.95 223.85 l 2
 451.95 276.65 436.15 313.75 374.3 313.75 c 2
 241.8 313.75 l 2
 77.2998 313.75 60.7998 413.3 60.7998 491.75 c 2
EndSplineSet
Substitution2: "'c2sc' Capitals to Small Capitals in Latin lookup 17 subtable" scedilla.smcp
EndChar

StartChar: Tcaron
Encoding: 304 356 218
Width: 582
VWidth: 0
Flags: HW
LayerCount: 2
Fore
SplineSet
143 928.5 m 1
 220.85 928.5 l 1
 296.2 860.5 l 1
 362.35 928.5 l 1
 439.5 928.5 l 1
 336.1 797 l 1
 256.1 797 l 1
 143 928.5 l 1
41.25 643 m 1
 41.25 732 l 1
 558.25 732 l 1
 558.25 643 l 1
 342.75 643 l 1
 342.75 0 l 1
 250.75 0 l 1
 250.75 643 l 1
 41.25 643 l 1
EndSplineSet
Substitution2: "'c2sc' Capitals to Small Capitals in Latin lookup 17 subtable" tcaron.smcp
EndChar

StartChar: Zacute
Encoding: 305 377 219
Width: 561
VWidth: 0
Flags: HW
LayerCount: 2
Fore
SplineSet
243.25 797 m 1
 345.75 931.5 l 1
 448.25 931.5 l 1
 318.25 797 l 1
 243.25 797 l 1
32.75 0 m 1
 32.75 89 l 1
 412.25 643 l 1
 32.75 643 l 1
 32.75 732 l 1
 528.75 732 l 1
 528.75 643 l 1
 153.75 89 l 1
 528.75 89 l 1
 528.75 0 l 1
 32.75 0 l 1
EndSplineSet
Substitution2: "'c2sc' Capitals to Small Capitals in Latin lookup 17 subtable" zacute.smcp
EndChar

StartChar: Zcaron
Encoding: 306 381 220
Width: 561
VWidth: 0
Flags: HW
LayerCount: 2
Fore
SplineSet
132.5 928.5 m 1
 210.35 928.5 l 1
 285.7 860.5 l 1
 351.85 928.5 l 1
 429 928.5 l 1
 325.6 797 l 1
 245.6 797 l 1
 132.5 928.5 l 1
32.75 0 m 1
 32.75 89 l 1
 412.25 643 l 1
 32.75 643 l 1
 32.75 732 l 1
 528.75 732 l 1
 528.75 643 l 1
 153.75 89 l 1
 528.75 89 l 1
 528.75 0 l 1
 32.75 0 l 1
EndSplineSet
Substitution2: "'c2sc' Capitals to Small Capitals in Latin lookup 17 subtable" zcaron.smcp
EndChar

StartChar: Zdotaccent
Encoding: 307 379 221
Width: 561
VWidth: 0
Flags: HW
LayerCount: 2
Fore
SplineSet
229.25 820 m 2
 229.25 880 l 2
 229.25 895 237.25 905 253.25 905 c 2
 309.25 905 l 2
 324.25 905 332.25 894 332.25 880 c 2
 332.25 820 l 2
 332.25 805 323.25 797 309.25 797 c 2
 253.25 797 l 2
 239.25 797 229.25 806 229.25 820 c 2
32.75 0 m 1
 32.75 89 l 1
 412.25 643 l 1
 32.75 643 l 1
 32.75 732 l 1
 528.75 732 l 1
 528.75 643 l 1
 153.75 89 l 1
 528.75 89 l 1
 528.75 0 l 1
 32.75 0 l 1
EndSplineSet
Substitution2: "'c2sc' Capitals to Small Capitals in Latin lookup 17 subtable" zdotaccent.smcp
EndChar

StartChar: aogonek
Encoding: 308 261 222
Width: 519
VWidth: 0
Flags: HW
LayerCount: 2
Fore
SplineSet
129.3 137.6 m 2
 129.3 90.6504 154 78.5 185.75 78.5 c 0
 259.9 78.5 380.45 126.8 380.45 126.8 c 1
 380.45 257.35 l 1
 183.95 243 l 2
 142.6 239.15 129.3 210.6 129.3 181 c 2
 129.3 137.6 l 2
37.2998 128.55 m 2
 37.2998 186.55 l 2
 37.2998 265.8 85.0498 323 176.45 323 c 2
 176.45 323 380.45 322 380.45 323 c 2
 380.45 323 381.45 380 380.45 381 c 1
 380.45 440.8 349.95 458.5 301.45 458.5 c 0
 236.5 458.5 136.9 452.6 54.4502 446.65 c 1
 54.4502 509.5 l 1
 125.15 531.45 209.8 540.15 308.8 541 c 0
 400.35 541.85 472.45 498.35 472.45 382.5 c 2
 472.45 0 l 1
 460.409 -8.99502e-10 l 1
 378.388 -65.7224 392.451 -117.143 464.98 -117.942 c 1
 464.98 -182.442 l 1
 352.413 -201.137 269.128 -66.1214 416.852 -3.28061e-06 c 1
 402.3 0 l 1
 380.45 62.5 l 1
 377.4 59.3496 263.25 -6.4502 174.95 -6 c 0
 94 -5.25 37.2998 47.9004 37.2998 128.55 c 2
EndSplineSet
AlternateSubs2: "'salt' Access All Alternates in Latin lookup 4-1" aogonek.salt
Substitution2: "'smcp' Lowercase to Small Capitals lookup 16-1" aogonek.smcp
EndChar

StartChar: lcaron
Encoding: 309 318 223
Width: 315
VWidth: 0
Flags: HW
LayerCount: 2
Fore
SplineSet
221.1 714.15 m 1
 221.1 781.15 l 1
 301.1 781.15 l 1
 301.1 714.15 l 1
 291.1 580.15 l 1
 232.1 580.15 l 1
 221.1 714.15 l 1
56.1 189 m 2
 56.1 783 l 1
 148.1 783 l 1
 148.1 195 l 2
 148.1 110.7 162.25 95 202.1 83 c 1
 202.1 83 278.1 62 285.1 62 c 1
 285.1 0 l 1
 189.6 0 l 2
 95.45 0 56.1 48 56.1 189 c 2
EndSplineSet
Substitution2: "'smcp' Lowercase to Small Capitals lookup 16-1" lcaron.smcp
EndChar

StartChar: sacute
Encoding: 310 347 224
Width: 506
VWidth: 0
Flags: HW
LayerCount: 2
Fore
SplineSet
213.8 600.25 m 1
 316.3 734.75 l 1
 418.8 734.75 l 1
 288.8 600.25 l 1
 213.8 600.25 l 1
37.2998 355 m 2
 37.2998 401 l 2
 37.2998 483 72.2998 536 175.3 536 c 0
 240.95 536 393.45 527.1 442.45 517 c 1
 442.45 451.45 l 1
 187 451.45 l 2
 130.65 451.45 129.3 430.2 129.3 398.6 c 2
 129.3 358.6 l 2
 129.3 309.45 153.75 307.75 187 307.75 c 2
 336.3 307.75 l 2
 427.2 307.75 469.3 252.1 469.3 176.5 c 2
 469.3 126 l 2
 469.3 17 403.3 -5 339.3 -5 c 0
 276.2 -5 97 7.15039 59.2998 16.7002 c 1
 59.2998 80.5498 l 1
 327 80.5498 l 2
 329.55 80.5498 377.3 76.5 377.3 129 c 2
 377.3 171.4 l 2
 377.3 202.95 366.8 220.85 327 220.85 c 2
 178.3 220.85 l 2
 84.2998 220.85 37.2998 252 37.2998 355 c 2
EndSplineSet
Substitution2: "'smcp' Lowercase to Small Capitals lookup 16-1" sacute.smcp
EndChar

StartChar: scaron
Encoding: 311 353 225
Width: 506
VWidth: 0
Flags: HW
LayerCount: 2
Fore
SplineSet
108.8 731.75 m 1
 186.65 731.75 l 1
 262 663.75 l 1
 328.15 731.75 l 1
 405.3 731.75 l 1
 301.9 600.25 l 1
 221.9 600.25 l 1
 108.8 731.75 l 1
37.2998 355 m 2
 37.2998 401 l 2
 37.2998 483 72.2998 536 175.3 536 c 0
 240.95 536 393.45 527.1 442.45 517 c 1
 442.45 451.45 l 1
 187 451.45 l 2
 130.65 451.45 129.3 430.2 129.3 398.6 c 2
 129.3 358.6 l 2
 129.3 309.45 153.75 307.75 187 307.75 c 2
 336.3 307.75 l 2
 427.2 307.75 469.3 252.1 469.3 176.5 c 2
 469.3 126 l 2
 469.3 17 403.3 -5 339.3 -5 c 0
 276.2 -5 97 7.15039 59.2998 16.7002 c 1
 59.2998 80.5498 l 1
 327 80.5498 l 2
 329.55 80.5498 377.3 76.5 377.3 129 c 2
 377.3 171.4 l 2
 377.3 202.95 366.8 220.85 327 220.85 c 2
 178.3 220.85 l 2
 84.2998 220.85 37.2998 252 37.2998 355 c 2
EndSplineSet
Substitution2: "'smcp' Lowercase to Small Capitals lookup 16-1" scaron.smcp
EndChar

StartChar: scedilla
Encoding: 312 351 226
Width: 506
VWidth: 0
Flags: HW
LayerCount: 2
Fore
SplineSet
130.85 -132.9 m 1
 181.45 -117.9 l 1
 209.45 -105.9 212.85 -76.7002 212.85 -38.7002 c 1
 287.35 -38.7002 l 1
 287.35 -140.7 265.15 -176.2 183.35 -176.2 c 2
 130.85 -176.2 l 1
 130.85 -132.9 l 1
37.2998 355 m 2
 37.2998 401 l 2
 37.2998 483 72.2998 536 175.3 536 c 0
 240.95 536 393.45 527.1 442.45 517 c 1
 442.45 451.45 l 1
 187 451.45 l 2
 130.65 451.45 129.3 430.2 129.3 398.6 c 2
 129.3 358.6 l 2
 129.3 309.45 153.75 307.75 187 307.75 c 2
 336.3 307.75 l 2
 427.2 307.75 469.3 252.1 469.3 176.5 c 2
 469.3 126 l 2
 469.3 17 403.3 -5 339.3 -5 c 0
 276.2 -5 97 7.15039 59.2998 16.7002 c 1
 59.2998 80.5498 l 1
 327 80.5498 l 2
 329.55 80.5498 377.3 76.5 377.3 129 c 2
 377.3 171.4 l 2
 377.3 202.95 366.8 220.85 327 220.85 c 2
 178.3 220.85 l 2
 84.2998 220.85 37.2998 252 37.2998 355 c 2
EndSplineSet
Substitution2: "'smcp' Lowercase to Small Capitals lookup 16-1" scedilla.smcp
EndChar

StartChar: tcaron
Encoding: 313 357 227
Width: 380
VWidth: 0
Flags: HW
LayerCount: 2
Fore
SplineSet
266.5 800.15 m 1
 347.35 800.15 l 1
 347.35 733.15 l 1
 336.5 599.15 l 1
 277.5 599.15 l 1
 267.35 733.15 l 1
 266.5 800.15 l 1
18.65 449 m 1
 18.65 511 l 1
 114.05 532 l 1
 133.55 680 l 1
 206.05 680 l 1
 206.05 532 l 1
 351.15 532 l 1
 351.15 449 l 1
 206.05 449 l 1
 206.05 196 l 2
 206.05 111.4 227.7 92.3 259.9 83.7 c 2
 259.9 83.7 335.9 62.7 342.9 62.7 c 1
 342.9 0.7 l 1
 245.6 0.7 l 2
 168.15 0.7 114.05 49 114.05 190 c 2
 114.05 449 l 1
 18.65 449 l 1
EndSplineSet
AlternateSubs2: "'salt' Access All Alternates in Latin lookup 4-1" tcaron.salt
Substitution2: "'smcp' Lowercase to Small Capitals lookup 16-1" tcaron.smcp
EndChar

StartChar: zacute
Encoding: 314 378 228
Width: 460
VWidth: 0
Flags: HW
LayerCount: 2
Fore
SplineSet
193.05 596 m 1
 295.55 730.5 l 1
 398.05 730.5 l 1
 268.05 596 l 1
 193.05 596 l 1
28.0498 445 m 1
 28.0498 531 l 1
 433.05 531 l 1
 433.05 445 l 1
 164.5 87 l 1
 433.05 87 l 1
 434.05 86 433.05 1 433.05 1 c 1
 43.0498 1 l 1
 43.0498 86.7002 l 1
 318.25 445 l 1
 28.0498 445 l 1
EndSplineSet
Substitution2: "'smcp' Lowercase to Small Capitals lookup 16-1" zacute.smcp
EndChar

StartChar: zcaron
Encoding: 315 382 229
Width: 460
VWidth: 0
Flags: HW
LayerCount: 2
Fore
SplineSet
82.2998 727.5 m 1
 160.15 727.5 l 1
 235.5 659.5 l 1
 301.65 727.5 l 1
 378.8 727.5 l 1
 275.4 596 l 1
 195.4 596 l 1
 82.2998 727.5 l 1
28.0498 445 m 1
 28.0498 531 l 1
 433.05 531 l 1
 433.05 445 l 1
 164.5 87 l 1
 433.05 87 l 1
 434.05 86 433.05 1 433.05 1 c 1
 43.0498 1 l 1
 43.0498 86.7002 l 1
 318.25 445 l 1
 28.0498 445 l 1
EndSplineSet
Substitution2: "'smcp' Lowercase to Small Capitals lookup 16-1" zcaron.smcp
EndChar

StartChar: zdotaccent
Encoding: 316 380 230
Width: 460
VWidth: 0
Flags: HW
LayerCount: 2
Fore
SplineSet
179.05 619 m 2
 179.05 679 l 2
 179.05 694 187.05 704 203.05 704 c 2
 259.05 704 l 2
 274.05 704 282.05 693 282.05 679 c 2
 282.05 619 l 2
 282.05 604 273.05 596 259.05 596 c 2
 203.05 596 l 2
 189.05 596 179.05 605 179.05 619 c 2
28.0498 445 m 1
 28.0498 531 l 1
 433.05 531 l 1
 433.05 445 l 1
 164.5 87 l 1
 433.05 87 l 1
 434.05 86 433.05 1 433.05 1 c 1
 43.0498 1 l 1
 43.0498 86.7002 l 1
 318.25 445 l 1
 28.0498 445 l 1
EndSplineSet
Substitution2: "'smcp' Lowercase to Small Capitals lookup 16-1" zdotaccent.smcp
EndChar

StartChar: Racute
Encoding: 317 340 231
Width: 596
VWidth: 0
Flags: HW
LayerCount: 2
Fore
SplineSet
256.75 792.75 m 1
 359.25 927.25 l 1
 461.75 927.25 l 1
 331.75 792.75 l 1
 256.75 792.75 l 1
149.75 385 m 1
 368.1 385 l 2
 414.85 385 456.1 388.9 456.1 509.75 c 0
 456.1 627.7 412.1 643.5 368.1 643.5 c 2
 149.75 643.5 l 1
 149.75 385 l 1
57.5996 0 m 1
 57.5996 732 l 1
 371.85 732 l 2
 472.1 732 549.1 678.15 549.1 509.75 c 0
 549.1 322.15 456.4 304.65 424.95 298.25 c 1
 574.75 0 l 1
 473.6 0 l 1
 328.6 293 l 1
 149.6 307 l 1
 149.6 0 l 1
 57.5996 0 l 1
EndSplineSet
Substitution2: "'c2sc' Capitals to Small Capitals in Latin lookup 17 subtable" racute.smcp
EndChar

StartChar: Abreve
Encoding: 318 258 232
Width: 676
VWidth: 0
Flags: HW
LayerCount: 2
Fore
SplineSet
238.625 911 m 1
 288.625 911 l 1
 288.625 873.35 319.775 847 352.625 847 c 0
 390.625 847 418.625 871.1 418.625 911 c 1
 468.625 911 l 1
 468.625 836.2 410.025 797 352.625 797 c 0
 295.525 797 238.625 839.6 238.625 911 c 1
241.15 280.25 m 1
 461.4 280.25 l 1
 353.15 599.5 l 1
 241.15 280.25 l 1
42 0 m 1
 305 732 l 1
 402.25 732 l 1
 654 0 l 1
 549.35 0 l 1
 489.35 192.6 l 1
 211.6 192.6 l 1
 149.2 0 l 1
 42 0 l 1
EndSplineSet
Substitution2: "'c2sc' Capitals to Small Capitals in Latin lookup 17 subtable" abreve.smcp
EndChar

StartChar: Lacute
Encoding: 319 313 233
Width: 552
VWidth: 0
Flags: HW
LayerCount: 2
Fore
SplineSet
83.25 797 m 1
 185.75 931.5 l 1
 288.25 931.5 l 1
 158.25 797 l 1
 83.25 797 l 1
74.75 130.5 m 2
 74.75 732 l 1
 166.75 732 l 1
 166.75 141 l 2
 166.75 88 199.75 89 228.75 89 c 2
 519.75 89 l 1
 519.75 0 l 1
 215.25 0 l 2
 145.5 0 74.75 17.5 74.75 130.5 c 2
EndSplineSet
Substitution2: "'c2sc' Capitals to Small Capitals in Latin lookup 17 subtable" lacute.smcp
EndChar

StartChar: Cacute
Encoding: 320 262 234
Width: 576
VWidth: 0
Flags: HW
LayerCount: 2
Fore
SplineSet
292.25 800 m 1
 394.75 934.5 l 1
 497.25 934.5 l 1
 367.25 800 l 1
 292.25 800 l 1
51.4004 368 m 0
 51.4004 602 97.75 740 296.75 740 c 0
 362.55 740 471.35 728.6 543.75 712.75 c 1
 543.75 639.95 l 1
 542.75 639.95 399.4 651 305.75 651 c 0
 186.9 651 143.4 603.15 143.4 366 c 0
 143.4 202 177.7 83 305.9 83 c 0
 410.9 83 543.75 90.2998 543.75 90.2998 c 1
 543.75 17.5 l 1
 474.95 2.5498 363.15 -6.4502 296.75 -6 c 0
 111.75 -5.5498 51.4004 148.35 51.4004 368 c 0
EndSplineSet
Substitution2: "'c2sc' Capitals to Small Capitals in Latin lookup 17 subtable" cacute.smcp
EndChar

StartChar: Ccaron
Encoding: 321 268 235
Width: 576
VWidth: 0
Flags: HW
LayerCount: 2
Fore
SplineSet
186.95 931.5 m 1
 264.8 931.5 l 1
 340.15 863.5 l 1
 406.3 931.5 l 1
 483.45 931.5 l 1
 380.05 800 l 1
 300.05 800 l 1
 186.95 931.5 l 1
51.4004 368 m 0
 51.4004 602 97.75 740 296.75 740 c 0
 362.55 740 471.35 728.6 543.75 712.75 c 1
 543.75 639.95 l 1
 542.75 639.95 399.4 651 305.75 651 c 0
 186.9 651 143.4 603.15 143.4 366 c 0
 143.4 202 177.7 83 305.9 83 c 0
 410.9 83 543.75 90.2998 543.75 90.2998 c 1
 543.75 17.5 l 1
 474.95 2.5498 363.15 -6.4502 296.75 -6 c 0
 111.75 -5.5498 51.4004 148.35 51.4004 368 c 0
EndSplineSet
Substitution2: "'c2sc' Capitals to Small Capitals in Latin lookup 17 subtable" ccaron.smcp
EndChar

StartChar: Eogonek
Encoding: 322 280 236
Width: 567
VWidth: 0
Flags: HW
LayerCount: 2
Fore
SplineSet
74 128.7 m 2
 74 596 l 2
 74 701.916 141.445 734.55 209 732 c 2
 209 732 509.1 718.4 526.65 716 c 1
 526.65 642.25 l 1
 218 642.25 l 2
 166 642.25 166 613.25 166 586.25 c 2
 166 409.65 l 1
 485.15 399.5 l 1
 485.15 325.2 l 1
 166 315.35 l 1
 166 138.75 l 2
 166.85 85.75 199 86.75 228 86.75 c 2
 526.65 86.75 l 1
 526.65 14 l 2
 526.438 13.9711 526.173 13.9399 525.858 13.9062 c 2
 526.508 13.9062 l 1
 444.408 -51.8438 458.458 -103.294 531.008 -104.094 c 1
 531.008 -168.594 l 1
 420.205 -186.996 337.774 -56.466 476.103 10.69 c 1
 388.461 5.64147 219 -3 219 -3 c 2
 153.195 -6.7002 74 9.7002 74 128.7 c 2
EndSplineSet
Substitution2: "'c2sc' Capitals to Small Capitals in Latin lookup 17 subtable" eogonek.smcp
EndChar

StartChar: Ecaron
Encoding: 323 282 237
Width: 567
VWidth: 0
Flags: HW
LayerCount: 2
Fore
SplineSet
167.95 924.25 m 1
 245.8 924.25 l 1
 321.15 856.25 l 1
 387.3 924.25 l 1
 464.45 924.25 l 1
 361.05 792.75 l 1
 281.05 792.75 l 1
 167.95 924.25 l 1
74 128.7 m 2
 74 596 l 2
 74 701.916 141.445 734.55 209 732 c 2
 209 732 509.1 718.4 526.65 716 c 1
 526.65 642.25 l 1
 218 642.25 l 2
 166 642.25 166 613.25 166 586.25 c 2
 166 409.65 l 1
 485.15 399.5 l 1
 485.15 325.2 l 1
 166 315.35 l 1
 166 138.75 l 2
 166.85 85.75 199 86.75 228 86.75 c 2
 526.65 86.75 l 1
 526.65 14 l 1
 511.2 11.9004 219 -3 219 -3 c 2
 153.195 -6.7002 74 9.7002 74 128.7 c 2
EndSplineSet
Substitution2: "'c2sc' Capitals to Small Capitals in Latin lookup 17 subtable" ecaron.smcp
EndChar

StartChar: Dcaron
Encoding: 324 270 238
Width: 658
VWidth: 0
Flags: HW
LayerCount: 2
Fore
SplineSet
169.75 924.25 m 1
 247.6 924.25 l 1
 322.95 856.25 l 1
 389.1 924.25 l 1
 466.25 924.25 l 1
 362.85 792.75 l 1
 282.85 792.75 l 1
 169.75 924.25 l 1
166.75 90.0498 m 1
 354.4 90.0498 l 2
 475.15 90.0498 523.75 211.95 523.75 364 c 0
 523.75 573.05 460.05 644.5 354.4 644.5 c 2
 166.75 644.5 l 1
 166.75 90.0498 l 1
74.75 0 m 1
 74.75 732 l 1
 357.4 732 l 2
 578.5 732 615.75 521.55 615.75 363 c 0
 615.75 183.5 546.5 0 357.4 0 c 2
 74.75 0 l 1
EndSplineSet
Substitution2: "'c2sc' Capitals to Small Capitals in Latin lookup 17 subtable" dcaron.smcp
EndChar

StartChar: Nacute
Encoding: 325 323 239
Width: 679
VWidth: 0
Flags: HW
LayerCount: 2
Fore
SplineSet
320.175 797 m 1
 422.675 931.5 l 1
 525.175 931.5 l 1
 395.175 797 l 1
 320.175 797 l 1
74.75 0 m 1
 74.75 732 l 1
 168.75 732 l 1
 531.6 171 l 1
 531.6 732 l 1
 623.6 732 l 1
 623.6 0 l 1
 531.6 0 l 1
 167.75 559.5 l 1
 167.75 0 l 1
 74.75 0 l 1
EndSplineSet
AlternateSubs2: "'salt' Access All Alternates in Latin lookup 4-1" Nacute.salt
Substitution2: "'c2sc' Capitals to Small Capitals in Latin lookup 17 subtable" nacute.smcp
EndChar

StartChar: Ncaron
Encoding: 326 327 240
Width: 679
VWidth: 0
Flags: HW
LayerCount: 2
Fore
SplineSet
209.425 928.5 m 1
 287.275 928.5 l 1
 362.625 860.5 l 1
 428.775 928.5 l 1
 505.925 928.5 l 1
 402.525 797 l 1
 322.525 797 l 1
 209.425 928.5 l 1
74.75 0 m 1
 74.75 732 l 1
 168.75 732 l 1
 531.6 171 l 1
 531.6 732 l 1
 623.6 732 l 1
 623.6 0 l 1
 531.6 0 l 1
 167.75 559.5 l 1
 167.75 0 l 1
 74.75 0 l 1
EndSplineSet
AlternateSubs2: "'salt' Access All Alternates in Latin lookup 4-1" Ncaron.salt
Substitution2: "'c2sc' Capitals to Small Capitals in Latin lookup 17 subtable" ncaron.smcp
EndChar

StartChar: Ohungarumlaut
Encoding: 327 336 241
Width: 674
VWidth: 0
Flags: HW
LayerCount: 2
Fore
SplineSet
380.5 797 m 1
 483 931.5 l 1
 585.5 931.5 l 1
 455.5 797 l 1
 380.5 797 l 1
239.8 797 m 1
 342.3 931.5 l 1
 444.8 931.5 l 1
 314.8 797 l 1
 239.8 797 l 1
152.8 361 m 0
 152.8 119.6 198.65 85 347.65 85 c 0
 493.15 85 540.8 126.1 540.8 361 c 0
 540.8 640.65 476.9 648 347.65 648 c 0
 221.4 648 152.8 642 152.8 361 c 0
60.7998 361 m 0
 60.7998 704 179.65 737 347.65 737 c 0
 520.65 737 632.8 704 632.8 361 c 0
 632.8 38 527.65 -4 347.65 -4 c 0
 167.65 -4 60.7998 28 60.7998 361 c 0
EndSplineSet
Substitution2: "'c2sc' Capitals to Small Capitals in Latin lookup 17 subtable" ohungarumlaut.smcp
EndChar

StartChar: Rcaron
Encoding: 328 344 242
Width: 596
VWidth: 0
Flags: HW
LayerCount: 2
Fore
SplineSet
143.7 928.5 m 1
 221.55 928.5 l 1
 296.9 860.5 l 1
 363.05 928.5 l 1
 440.2 928.5 l 1
 336.8 797 l 1
 256.8 797 l 1
 143.7 928.5 l 1
149.75 385 m 1
 368.1 385 l 2
 414.85 385 456.1 388.9 456.1 509.75 c 0
 456.1 627.7 412.1 643.5 368.1 643.5 c 2
 149.75 643.5 l 1
 149.75 385 l 1
57.5996 0 m 1
 57.5996 732 l 1
 371.85 732 l 2
 472.1 732 549.1 678.15 549.1 509.75 c 0
 549.1 322.15 456.4 304.65 424.95 298.25 c 1
 574.75 0 l 1
 473.6 0 l 1
 328.6 293 l 1
 149.6 307 l 1
 149.6 0 l 1
 57.5996 0 l 1
EndSplineSet
Substitution2: "'c2sc' Capitals to Small Capitals in Latin lookup 17 subtable" rcaron.smcp
EndChar

StartChar: Uring
Encoding: 329 366 243
Width: 673
VWidth: 0
Flags: HW
LayerCount: 2
Fore
SplineSet
294.9 899 m 0
 294.9 870.65 318.4 848.15 346.75 848.15 c 0
 375.1 848.15 397.6 870.65 397.6 899 c 0
 397.6 927.35 375.1 950.85 346.75 950.85 c 0
 318.4 950.85 294.9 927.35 294.9 899 c 0
244.75 899 m 0
 244.75 956 290.75 1002 346.75 1002 c 0
 402.75 1002 447.75 956 447.75 899 c 0
 447.75 842 402.75 797 346.75 797 c 0
 290.75 797 244.75 842 244.75 899 c 0
74.75 320 m 2
 74.75 732 l 1
 166.75 732 l 1
 166.75 320 l 2
 166.75 87.4502 235.05 84 348.75 84 c 0
 446.25 84 524.75 94.8496 524.75 320 c 2
 524.75 732 l 1
 617.75 732 l 1
 617.75 320 l 2
 617.75 -3 469.75 -5 348.75 -5 c 0
 212.75 -5 74.75 -13 74.75 320 c 2
EndSplineSet
Substitution2: "'c2sc' Capitals to Small Capitals in Latin lookup 17 subtable" uring.smcp
EndChar

StartChar: Uhungarumlaut
Encoding: 330 368 244
Width: 673
VWidth: 0
Flags: HW
LayerCount: 2
Fore
SplineSet
379.1 797 m 1
 481.6 931.5 l 1
 584.1 931.5 l 1
 454.1 797 l 1
 379.1 797 l 1
238.4 797 m 1
 340.9 931.5 l 1
 443.4 931.5 l 1
 313.4 797 l 1
 238.4 797 l 1
74.75 320 m 2
 74.75 732 l 1
 166.75 732 l 1
 166.75 320 l 2
 166.75 87.4502 235.05 84 348.75 84 c 0
 446.25 84 524.75 94.8496 524.75 320 c 2
 524.75 732 l 1
 617.75 732 l 1
 617.75 320 l 2
 617.75 -3 469.75 -5 348.75 -5 c 0
 212.75 -5 74.75 -13 74.75 320 c 2
EndSplineSet
Substitution2: "'c2sc' Capitals to Small Capitals in Latin lookup 17 subtable" uhungarumlaut.smcp
EndChar

StartChar: Tcommaaccent
Encoding: 331 354 245
Width: 582
VWidth: 0
Flags: HW
LayerCount: 2
Fore
SplineSet
153.8 -141.4 m 1
 204.4 -126.4 l 1
 232.4 -114.4 235.8 -85.2002 235.8 -47.2002 c 1
 310.3 -47.2002 l 1
 310.3 -149.2 288.1 -184.7 206.3 -184.7 c 2
 153.8 -184.7 l 1
 153.8 -141.4 l 1
41.25 643 m 1
 41.25 732 l 1
 558.25 732 l 1
 558.25 643 l 1
 342.75 643 l 1
 342.75 0 l 1
 250.75 0 l 1
 250.75 643 l 1
 41.25 643 l 1
EndSplineSet
Substitution2: "'c2sc' Capitals to Small Capitals in Latin lookup 17 subtable" tcommaaccent.smcp
EndChar

StartChar: racute
Encoding: 332 341 246
Width: 423
VWidth: 0
Flags: HW
LayerCount: 2
Fore
SplineSet
208.925 597.7 m 1
 311.425 732.2 l 1
 413.925 732.2 l 1
 283.925 597.7 l 1
 208.925 597.7 l 1
56.0996 0 m 1
 56.0996 531 l 1
 126.1 531 l 1
 148.1 464 l 1
 202.5 499.15 256 536.85 333.65 536.85 c 0
 361 536.85 391 535.15 403.6 529.3 c 1
 403.6 439.35 l 1
 391 441.9 358.15 444.45 328.85 444.45 c 0
 254.85 444.45 213.55 426.6 148.1 386.15 c 1
 148.1 0 l 1
 56.0996 0 l 1
EndSplineSet
AlternateSubs2: "'salt' Access All Alternates in Latin lookup 4-1" racute.salt
Substitution2: "'smcp' Lowercase to Small Capitals lookup 16-1" racute.smcp
EndChar

StartChar: abreve
Encoding: 333 259 247
Width: 519
VWidth: 0
Flags: HW
LayerCount: 2
Fore
SplineSet
157.25 715 m 1
 207.25 715 l 1
 207.25 677.35 238.4 651 271.25 651 c 0
 309.25 651 337.25 675.1 337.25 715 c 1
 387.25 715 l 1
 387.25 640.2 328.65 601 271.25 601 c 0
 214.15 601 157.25 643.6 157.25 715 c 1
129.3 137.6 m 2
 129.3 90.6504 154 78.5 185.75 78.5 c 0
 259.9 78.5 380.45 126.8 380.45 126.8 c 1
 380.45 257.35 l 1
 183.95 243 l 2
 142.6 239.15 129.3 210.6 129.3 181 c 2
 129.3 137.6 l 2
37.2998 128.55 m 2
 37.2998 186.55 l 2
 37.2998 265.8 85.0498 323 176.45 323 c 2
 176.45 323 380.45 322 380.45 323 c 2
 380.45 323 381.45 380 380.45 381 c 1
 380.45 440.8 349.95 458.5 301.45 458.5 c 0
 236.5 458.5 136.9 452.6 54.4502 446.65 c 1
 54.4502 509.5 l 1
 125.15 531.45 209.8 540.15 308.8 541 c 0
 400.35 541.85 472.45 498.35 472.45 382.5 c 2
 472.45 0 l 1
 402.3 0 l 1
 380.45 62.5 l 1
 377.4 59.3496 263.25 -6.4502 174.95 -6 c 0
 94 -5.25 37.2998 47.9004 37.2998 128.55 c 2
EndSplineSet
Substitution2: "'smcp' Lowercase to Small Capitals lookup 16-1" abreve.smcp
EndChar

StartChar: lacute
Encoding: 334 314 248
Width: 303
VWidth: 0
Flags: HW
LayerCount: 2
Fore
SplineSet
91.375 843 m 1
 193.875 977.5 l 1
 296.375 977.5 l 1
 166.375 843 l 1
 91.375 843 l 1
56.0996 189 m 2
 56.0996 783 l 1
 148.1 783 l 1
 148.1 195 l 2
 148.1 110.7 169.9 91.5996 202.1 83 c 2
 202.1 83 278.1 62 285.1 62 c 1
 285.1 0 l 1
 189.6 0 l 2
 109.9 0 56.0996 48 56.0996 189 c 2
EndSplineSet
Substitution2: "'smcp' Lowercase to Small Capitals lookup 16-1" lacute.smcp
EndChar

StartChar: cacute
Encoding: 335 263 249
Width: 498
VWidth: 0
Flags: HW
LayerCount: 2
Fore
SplineSet
232.602 597.729 m 1
 335.102 732.229 l 1
 437.602 732.229 l 1
 307.602 597.729 l 1
 232.602 597.729 l 1
46.7002 266 m 0
 46.7002 494.4 119.7 536 221.7 536 c 0
 273.7 536 379.4 525.7 454.2 508.5 c 1
 454.2 445.5 l 1
 454.2 445.5 327.05 451.5 238.05 451.5 c 0
 176.85 451.5 138.7 442.45 138.7 262.3 c 0
 138.7 113.95 166.05 79.5 238.05 79.5 c 0
 330.05 79.5 461.2 90.0498 461.2 90.0498 c 1
 461.2 25.3496 l 1
 381.1 -2.15039 304.7 -4 221.7 -5 c 1
 122.7 -5 46.7002 36.75 46.7002 266 c 0
EndSplineSet
Substitution2: "'smcp' Lowercase to Small Capitals lookup 16-1" cacute.smcp
EndChar

StartChar: ccaron
Encoding: 336 269 250
Width: 498
VWidth: 0
Flags: HW
LayerCount: 2
Fore
SplineSet
120.526 729.229 m 1
 198.377 729.229 l 1
 273.727 661.229 l 1
 339.877 729.229 l 1
 417.026 729.229 l 1
 313.627 597.729 l 1
 233.627 597.729 l 1
 120.526 729.229 l 1
46.7002 266 m 0
 46.7002 494.4 119.7 536 221.7 536 c 0
 273.7 536 379.4 525.7 454.2 508.5 c 1
 454.2 445.5 l 1
 454.2 445.5 327.05 451.5 238.05 451.5 c 0
 176.85 451.5 138.7 442.45 138.7 262.3 c 0
 138.7 113.95 166.05 79.5 238.05 79.5 c 0
 330.05 79.5 461.2 90.0498 461.2 90.0498 c 1
 461.2 25.3496 l 1
 381.1 -2.15039 304.7 -4 221.7 -5 c 1
 122.7 -5 46.7002 36.75 46.7002 266 c 0
EndSplineSet
Substitution2: "'smcp' Lowercase to Small Capitals lookup 16-1" ccaron.smcp
EndChar

StartChar: eogonek
Encoding: 337 281 251
Width: 525
VWidth: 0
Flags: HW
LayerCount: 2
Fore
SplineSet
138.7 301 m 1
 337.8 301 l 2
 377.75 301 395.7 316.55 395.7 347.45 c 0
 395.7 442.1 378.55 452 281.65 452 c 0
 179.3 452 138.4 450.1 138.7 301 c 1
46.7002 268 m 0
 46.7002 502.6 113.5 535 278.7 535 c 0
 411.5 535 487.7 521.5 487.7 345.5 c 0
 487.7 263.7 443.7 220.5 347.7 220.5 c 2
 138.7 220.5 l 1
 138.7 103.45 165.3 79.3496 242.7 79.3496 c 0
 331.7 79.3496 402.7 78.5 477.7 89.5 c 1
 477.7 23 l 1
 395.6 -42.75 409.65 -94.2002 482.2 -95 c 1
 482.2 -159.5 l 1
 378.427 -176.734 299.54 -63.336 403.583 6.29024 c 1
 343.46 -3.20165 279.957 -5 221.7 -5 c 0
 86.7002 -5 46.7002 63.5996 46.7002 268 c 0
EndSplineSet
Substitution2: "'smcp' Lowercase to Small Capitals lookup 16-1" eogonek.smcp
EndChar

StartChar: ecaron
Encoding: 338 283 252
Width: 525
VWidth: 0
Flags: HW
LayerCount: 2
Fore
SplineSet
127.6 723.25 m 1
 205.45 723.25 l 1
 280.8 655.25 l 1
 346.95 723.25 l 1
 424.1 723.25 l 1
 320.7 591.75 l 1
 240.7 591.75 l 1
 127.6 723.25 l 1
138.7 301 m 1
 337.8 301 l 2
 377.75 301 395.7 316.55 395.7 347.45 c 0
 395.7 442.1 378.55 452 281.65 452 c 0
 179.3 452 138.4 450.1 138.7 301 c 1
46.7002 268 m 0
 46.7002 502.6 113.5 535 278.7 535 c 0
 411.5 535 487.7 521.5 487.7 345.5 c 0
 487.7 263.7 443.7 220.5 347.7 220.5 c 2
 138.7 220.5 l 1
 138.7 103.45 165.3 79.3496 242.7 79.3496 c 0
 331.7 79.3496 402.7 78.5 477.7 89.5 c 1
 477.7 23 l 1
 398.35 -1.34961 304.7 -5 221.7 -5 c 0
 86.7002 -5 46.7002 63.5996 46.7002 268 c 0
EndSplineSet
Substitution2: "'smcp' Lowercase to Small Capitals lookup 16-1" ecaron.smcp
EndChar

StartChar: dcaron
Encoding: 339 271 253
Width: 568
VWidth: 0
Flags: HW
LayerCount: 2
Fore
SplineSet
546.85 780.3 m 1
 627.7 780.3 l 1
 627.7 713.3 l 1
 616.85 579.3 l 1
 557.7 579.3 l 1
 547.7 713.3 l 1
 546.85 780.3 l 1
138.7 264.5 m 0
 138.7 137.65 171.55 80.45 231.15 80.45 c 0
 302.95 80.45 360.25 101.6 407.65 122.85 c 1
 407.65 430.9 l 1
 347.5 447.85 300.35 455.25 231.15 455.25 c 0
 172.55 455.25 138.7 420 138.7 264.5 c 0
46.7 263 m 0
 46.7 408.15 71.3 539 221.25 539 c 0
 266.25 539 347.85 525.45 407.65 500.5 c 1
 407.65 785 l 1
 498.8 785 l 1
 498.8 0 l 1
 428.85 0 l 1
 407.65 57.5 l 1
 379.7 36.4 287.9 -6 221.25 -6 c 0
 80.15 -6 46.7 129.15 46.7 263 c 0
EndSplineSet
AlternateSubs2: "'salt' Access All Alternates in Latin lookup 4-1" dcaron.salt
Substitution2: "'smcp' Lowercase to Small Capitals lookup 16-1" dcaron.smcp
EndChar

StartChar: nacute
Encoding: 340 324 254
Width: 545
VWidth: 0
Flags: HW
LayerCount: 2
Fore
SplineSet
237.125 600 m 1
 339.625 734.5 l 1
 442.125 734.5 l 1
 312.125 600 l 1
 237.125 600 l 1
56.0996 0 m 1
 56.0996 531 l 1
 124.6 531 l 1
 148.1 470.5 l 1
 204.9 504.9 255.6 540 336.6 540 c 0
 447.4 540 499.1 457.1 499.1 365.5 c 2
 499.1 0 l 1
 407.1 0 l 1
 407.1 366.1 l 2
 407.1 428.5 372.3 455.5 325.65 455.5 c 0
 252.1 455.5 215.35 437 148.1 401.5 c 1
 148.1 0 l 1
 56.0996 0 l 1
EndSplineSet
AlternateSubs2: "'salt' Access All Alternates in Latin lookup 4-1" nacute.salt
Substitution2: "'smcp' Lowercase to Small Capitals lookup 16-1" nacute.smcp
EndChar

StartChar: ncaron
Encoding: 341 328 255
Width: 545
VWidth: 0
Flags: HW
LayerCount: 2
Fore
SplineSet
138.7 731.5 m 1
 216.55 731.5 l 1
 291.9 663.5 l 1
 358.05 731.5 l 1
 435.2 731.5 l 1
 331.8 600 l 1
 251.8 600 l 1
 138.7 731.5 l 1
56.0996 0 m 1
 56.0996 531 l 1
 124.6 531 l 1
 148.1 470.5 l 1
 204.9 504.9 255.6 540 336.6 540 c 0
 447.4 540 499.1 457.1 499.1 365.5 c 2
 499.1 0 l 1
 407.1 0 l 1
 407.1 366.1 l 2
 407.1 428.5 372.3 455.5 325.65 455.5 c 0
 252.1 455.5 215.35 437 148.1 401.5 c 1
 148.1 0 l 1
 56.0996 0 l 1
EndSplineSet
AlternateSubs2: "'salt' Access All Alternates in Latin lookup 4-1" ncaron.salt
Substitution2: "'smcp' Lowercase to Small Capitals lookup 16-1" ncaron.smcp
EndChar

StartChar: ohungarumlaut
Encoding: 342 337 256
Width: 565
VWidth: 0
Flags: HW
LayerCount: 2
Fore
SplineSet
315.8 596 m 1
 418.3 730.5 l 1
 520.8 730.5 l 1
 390.8 596 l 1
 315.8 596 l 1
175.1 596 m 1
 277.6 730.5 l 1
 380.1 730.5 l 1
 250.1 596 l 1
 175.1 596 l 1
138.7 258 m 0
 138.7 91.7998 187.75 79.5 282.95 79.5 c 0
 383 79.5 427.2 92.5996 427.2 258 c 0
 427.2 436.75 390.8 451.5 282.95 451.5 c 0
 178.9 451.5 138.7 437.45 138.7 258 c 0
46.7002 258 m 0
 46.7002 475 107.45 536 282.95 536 c 0
 463 536 519.2 469 519.2 258 c 0
 519.2 61 463.75 -5 282.95 -5 c 0
 102.75 -5 46.7002 68 46.7002 258 c 0
EndSplineSet
Substitution2: "'smcp' Lowercase to Small Capitals lookup 16-1" ohungarumlaut.smcp
EndChar

StartChar: rcaron
Encoding: 343 345 257
Width: 423
VWidth: 0
Flags: HW
LayerCount: 2
Fore
SplineSet
81.5996 728.35 m 1
 159.45 728.35 l 1
 234.8 660.35 l 1
 300.95 728.35 l 1
 378.1 728.35 l 1
 274.7 596.85 l 1
 194.7 596.85 l 1
 81.5996 728.35 l 1
56.0996 0 m 1
 56.0996 531 l 1
 126.1 531 l 1
 148.1 464 l 1
 202.5 499.15 256 536.85 333.65 536.85 c 0
 361 536.85 391 535.15 403.6 529.3 c 1
 403.6 439.35 l 1
 391 441.9 358.15 444.45 328.85 444.45 c 0
 254.85 444.45 213.55 426.6 148.1 386.15 c 1
 148.1 0 l 1
 56.0996 0 l 1
EndSplineSet
AlternateSubs2: "'salt' Access All Alternates in Latin lookup 4-1" rcaron.salt
Substitution2: "'smcp' Lowercase to Small Capitals lookup 16-1" rcaron.smcp
EndChar

StartChar: uring
Encoding: 344 367 258
Width: 545
VWidth: 0
Flags: HW
LayerCount: 2
Fore
SplineSet
216.85 698 m 0
 216.85 669.65 240.35 647.15 268.7 647.15 c 0
 297.05 647.15 319.55 669.65 319.55 698 c 0
 319.55 726.35 297.05 749.85 268.7 749.85 c 0
 240.35 749.85 216.85 726.35 216.85 698 c 0
166.7 698 m 0
 166.7 755 212.7 801 268.7 801 c 0
 324.7 801 369.7 755 369.7 698 c 0
 369.7 641 324.7 596 268.7 596 c 0
 212.7 596 166.7 641 166.7 698 c 0
46.7002 165.5 m 2
 46.7002 531 l 1
 138.7 531 l 1
 138.7 164.9 l 2
 138.7 102.5 173.5 75.5 220.15 75.5 c 0
 293.7 75.5 330.45 94 397.7 129.5 c 1
 397.7 531 l 1
 489.7 531 l 1
 489.7 0 l 1
 421.2 0 l 1
 397.7 60.5 l 1
 338.95 26.4004 290.2 -9 209.2 -9 c 0
 98.4004 -9 46.7002 73.9004 46.7002 165.5 c 2
EndSplineSet
AlternateSubs2: "'salt' Access All Alternates in Latin lookup 4-1" uring.salt
Substitution2: "'smcp' Lowercase to Small Capitals lookup 16-1" uring.smcp
EndChar

StartChar: uhungarumlaut
Encoding: 345 369 259
Width: 545
VWidth: 0
Flags: HW
LayerCount: 2
Fore
SplineSet
301.05 596 m 1
 403.55 730.5 l 1
 506.05 730.5 l 1
 376.05 596 l 1
 301.05 596 l 1
160.35 596 m 1
 262.85 730.5 l 1
 365.35 730.5 l 1
 235.35 596 l 1
 160.35 596 l 1
46.7002 165.5 m 2
 46.7002 531 l 1
 138.7 531 l 1
 138.7 164.9 l 2
 138.7 102.5 173.5 75.5 220.15 75.5 c 0
 293.7 75.5 330.45 94 397.7 129.5 c 1
 397.7 531 l 1
 489.7 531 l 1
 489.7 0 l 1
 421.2 0 l 1
 397.7 60.5 l 1
 338.95 26.4004 290.2 -9 209.2 -9 c 0
 98.4004 -9 46.7002 73.9004 46.7002 165.5 c 2
EndSplineSet
AlternateSubs2: "'salt' Access All Alternates in Latin lookup 4-1" uhungarumlaut.salt
Substitution2: "'smcp' Lowercase to Small Capitals lookup 16-1" uhungarumlaut.smcp
EndChar

StartChar: tcommaaccent
Encoding: 346 355 260
Width: 379
VWidth: 0
Flags: HW
LayerCount: 2
Fore
SplineSet
82.4004 -143.1 m 1
 133 -128.1 l 1
 161 -116.1 164.4 -86.9004 164.4 -48.9004 c 1
 238.9 -48.9004 l 1
 238.9 -150.9 216.7 -186.4 134.9 -186.4 c 2
 82.4004 -186.4 l 1
 82.4004 -143.1 l 1
18.6504 449 m 1
 18.6504 511 l 1
 114.05 532 l 1
 133.55 680 l 1
 206.05 680 l 1
 206.05 532 l 1
 351.15 532 l 1
 351.15 449 l 1
 206.05 449 l 1
 206.05 196 l 2
 206.05 111.4 227.7 92.2998 259.9 83.7002 c 2
 259.9 83.7002 335.9 62.7002 342.9 62.7002 c 1
 342.9 0.700195 l 1
 245.6 0.700195 l 2
 168.15 0.700195 114.05 49 114.05 190 c 2
 114.05 449 l 1
 18.6504 449 l 1
EndSplineSet
AlternateSubs2: "'salt' Access All Alternates in Latin lookup 4-1" tcommaaccent.salt
Substitution2: "'smcp' Lowercase to Small Capitals lookup 16-1" tcommaaccent.smcp
EndChar

StartChar: Lslash
Encoding: 347 321 261
Width: 559
VWidth: 0
Flags: HW
LayerCount: 2
Fore
SplineSet
1.65 315.95 m 1
 1.65 379.95 l 1
 83.3 415.2 l 1
 83.3 732 l 1
 175.3 732 l 1
 175.3 454.85 l 1
 307.8 511.55 l 1
 306.95 448.4 l 1
 175.3 390.85 l 1
 175.3 141 l 2
 175.3 88 208.3 89 237.3 89 c 2
 528.3 89 l 1
 528.3 0 l 1
 223.8 0 l 2
 154.043 0 83.3 17.5 83.3 130.5 c 2
 83.3 351.2 l 1
 1.65 315.95 l 1
EndSplineSet
Substitution2: "'c2sc' Capitals to Small Capitals in Latin lookup 17 subtable" lslash.smcp
EndChar

StartChar: uni00AD
Encoding: 173 173 262
Width: 354
VWidth: 0
Flags: HW
LayerCount: 2
Fore
SplineSet
20 247 m 1
 20 333 l 1
 334 333 l 1
 334 247 l 1
 20 247 l 1
EndSplineSet
Substitution2: "'case' Case-Sensitive Forms lookup 1-1" uni00AD.alt
Substitution2: "'c2sc' Capitals to Small Capitals in Latin lookup 17 subtable" uni00AD.smcp
Substitution2: "'smcp' Lowercase to Small Capitals lookup 16-1" uni00AD.smcp
EndChar

StartChar: lslash
Encoding: 348 322 263
Width: 337
VWidth: 0
Flags: HW
LayerCount: 2
Fore
SplineSet
10.15 363.9 m 1
 10.15 427.9 l 1
 88.8 461.3 l 1
 88.8 783 l 1
 180.8 783 l 1
 180.8 500.8 l 1
 316.3 559.5 l 1
 315.45 496.35 l 1
 180.8 437.65 l 1
 180.8 195 l 2
 180.8 110.7 202.6 91.6 234.8 83 c 2
 234.8 83 310.8 62 317.8 62 c 1
 317.8 0 l 1
 222.3 0 l 2
 142.6 0 88.8 48 88.8 189 c 2
 88.8 398.15 l 1
 10.15 363.9 l 1
EndSplineSet
Substitution2: "'smcp' Lowercase to Small Capitals lookup 16-1" lslash.smcp
EndChar

StartChar: Dcroat
Encoding: 349 272 264
Width: 658
VWidth: 0
Flags: HW
LayerCount: 2
Fore
SplineSet
166.75 90.0498 m 1
 355.25 90.0498 l 2
 476 90.0498 521.2 211.95 521.2 364 c 0
 521.2 569.65 454.1 640.25 355.25 640.25 c 2
 166.75 639.4 l 1
 166.75 401.5 l 1
 298.25 401.5 l 1
 298.25 344.5 l 1
 166.75 344.5 l 1
 166.75 90.0498 l 1
9.75 344.5 m 1
 9.75 401.5 l 1
 74.75 401.5 l 1
 74.75 731.15 l 2
 74.75 732 307.25 732 358.25 732 c 0
 579.35 732 615.75 521.55 615.75 363 c 0
 615.75 183.5 547.35 0 358.25 0 c 2
 74.75 0 l 1
 74.75 344.5 l 1
 9.75 344.5 l 1
EndSplineSet
Substitution2: "'c2sc' Capitals to Small Capitals in Latin lookup 17 subtable" dcroat.smcp
EndChar

StartChar: dcroat
Encoding: 350 273 265
Width: 556
VWidth: 0
Flags: HW
LayerCount: 2
Fore
SplineSet
137.8 264.5 m 0
 137.8 137.65 170.65 80.45 230.25 80.45 c 0
 302.05 80.45 359.35 101.6 406.75 122.85 c 1
 406.75 430.9 l 1
 346.6 447.85 299.45 455.25 230.25 455.25 c 0
 171.65 455.25 137.8 420 137.8 264.5 c 0
45.8 263 m 0
 45.8 408.15 70.4 539 220.35 539 c 0
 265.35 539 346.95 525.45 406.75 500.5 c 1
 406.75 613 l 1
 288.95 613 l 1
 288.95 670 l 1
 406.75 670 l 1
 406.75 785 l 1
 497.9 785 l 1
 497.9 670 l 1
 568.1 670 l 1
 568.1 613 l 1
 497.9 613 l 1
 497.9 0 l 1
 427.95 0 l 1
 406.75 57.5 l 1
 378.8 36.4 287 -6 220.35 -6 c 0
 79.25 -6 45.8 129.15 45.8 263 c 0
EndSplineSet
AlternateSubs2: "'salt' Access All Alternates in Latin lookup 4-1" dcroat.salt
Substitution2: "'smcp' Lowercase to Small Capitals lookup 16-1" dcroat.smcp
EndChar

StartChar: questiondown.alt
Encoding: 351 -1 266
Width: 541
VWidth: 0
Flags: HW
LayerCount: 2
Fore
SplineSet
265.4 643.7 m 2
 265.4 709.7 l 2
 265.4 725.15 274.55 732.7 288.55 732.7 c 2
 352.4 732.7 l 2
 366.4 732.7 376.4 723.7 376.4 709.7 c 2
 376.4 643.7 l 2
 376.4 628.7 368.4 618.7 352.4 618.7 c 2
 288.55 618.7 l 2
 273.1 618.7 265.4 629.4 265.4 643.7 c 2
37.3 181.7 m 2
 37.3 275.2 l 2
 37.3 410.2 136.3 458.45 275.95 439.7 c 1
 275.95 442.25 277.65 532.6 275.95 537.7 c 1
 361.3 537.7 l 1
 361.3 366.7 l 1
 312 367.55 276.1 368.4 226.8 366.7 c 0
 177.8 364.7 128.45 339.5 128.45 274.6 c 2
 128.45 186.5 l 2
 128.45 113.6 166.8 82.85 257.8 82.85 c 2
 522.95 83.7 l 1
 522.95 15.2 l 1
 423.35 0.7 355.95 -11.3 240.95 -6.3 c 1
 88.95 -6.3 37.3 83.7 37.3 181.7 c 2
EndSplineSet
EndChar

StartChar: at.alt
Encoding: 352 -1 267
Width: 852
VWidth: 0
Flags: HW
LayerCount: 2
Fore
SplineSet
313.35 206.55 m 0
 313.35 185.55 338.35 159.55 370.45 160.4 c 1
 424.95 159.55 480.6 186.5 525.05 211.4 c 1
 525.05 322.4 l 1
 368.85 307.9 l 2
 331.7 304.2 312.5 279.95 313.35 246.6 c 0
 313.2 245.6 313.2 207.55 313.35 206.55 c 0
60.8 423.9 m 2
 60.8 473.4 72.65 596.9 240.15 596.9 c 2
 448.85 596.9 l 2
 523.6 596.9 607.85 569.6 607.85 452.4 c 2
 607.85 84.9 l 1
 542.55 84.9 l 1
 527.05 147.4 l 1
 525.05 147.4 446.35 75.9 355.35 75.9 c 1
 278.35 74.2 226.5 129.4 227.35 197.4 c 2
 227.35 247.4 l 2
 227.35 330.1 275.3 381.9 360.85 381.9 c 0
 424.2 381.9 525.05 380.9 525.05 381.9 c 2
 525.05 381.9 526.05 448.75 525.05 448.9 c 1
 525.05 501.45 497.6 512.4 447.05 512.4 c 2
 240.15 512.4 l 2
 192.15 512.4 146.15 502.4 146.15 422.4 c 2
 146.15 90.9 l 2
 146.15 0.900001 200.15 -13.6 240.15 -13.6 c 2
 584.65 -13.6 l 2
 666.65 -13.6 687.65 22.9 687.65 90.9 c 2
 687.65 587.9 l 2
 687.65 664.9 645.65 702.65 584.65 702.65 c 2
 180.65 702.65 l 1
 180.65 760.15 l 1
 228.65 770.15 347.15 788.15 473.15 787.15 c 2
 584.65 786.3 l 2
 692 784.6 772.15 724.75 772.15 587.9 c 2
 772.15 90.9 l 2
 772.15 -20.6 725.5 -99.1 586.15 -99.1 c 2
 240.15 -99.1 l 2
 135.15 -99.1 61.65 -37.85 61.65 87.9 c 2
 60.8 423.9 l 2
EndSplineSet
EndChar

StartChar: questiondown
Encoding: 191 191 268
Width: 543
VWidth: 0
Flags: HW
LayerCount: 2
Fore
SplineSet
263.55 384.7 m 2
 263.55 445.6 l 2
 263.55 460.2 275.4 470.3 287.7 471.15 c 2
 346.3 471.15 l 2
 360.3 470.3 370.3 462.15 370.3 448.15 c 2
 370.3 384.7 l 2
 369.45 370.55 362.3 360.55 348.85 359.7 c 2
 284.3 359.7 l 1
 270.55 363.1 264.4 372.1 263.55 384.7 c 2
37.3 17.05 m 1
 35.6 136.75 134.45 196.9 274.1 178.15 c 1
 274.1 180.7 275.8 271.05 274.1 276.15 c 1
 361.3 276.15 l 1
 362.15 105.15 l 1
 312.85 106 276.1 106.85 226.8 105.15 c 0
 177.8 103.15 143.6 62.65 140.2 10.5 c 1
 140.2 10.5 139.35 -59.75 139.35 -76.75 c 0
 139.35 -126.7 171.05 -181.25 257.8 -178.7 c 1
 300.3 -178.7 524.5 -177.85 524.5 -177.85 c 2
 521.95 -177.85 524.5 -247.2 522.8 -246.35 c 1
 423.2 -260.85 355.8 -272.85 240.8 -267.85 c 1
 74.35 -268.7 37.3 -163.4 37.3 -77.3 c 2
 37.3 17.05 l 1
EndSplineSet
Substitution2: "'case' Case-Sensitive Forms lookup 1-1" questiondown.alt
Substitution2: "'smcp' Lowercase to Small Capitals lookup 16-1" questiondown.smcp
EndChar

StartChar: oe
Encoding: 353 339 269
Width: 903
VWidth: 0
Flags: HW
LayerCount: 2
Fore
SplineSet
518.35 301 m 1
 716.6 301 l 2
 756.55 301 774.5 316.55 774.5 347.45 c 0
 774.5 442.1 757.35 452 660.45 452 c 0
 557.25 452 512.95 441.6 518.35 301 c 1
138.7 258 m 0
 138.7 91.8 187.75 79.5 282.95 79.5 c 0
 408.95 79.5 425.5 114.35 425.5 268 c 0
 425.5 421.45 395.75 451.5 282.95 451.5 c 0
 178.9 451.5 138.7 437.45 138.7 258 c 0
46.7 258 m 0
 46.7 475 107.45 536 282.95 536 c 0
 374.4 536 433.45 517.95 468.75 472.05 c 1
 503.75 524.75 565.05 535 657.5 535 c 0
 790.3 535 866.5 521.5 866.5 345.5 c 0
 866.5 263.7 822.5 220.5 726.5 220.5 c 2
 518.35 220.5 l 1
 514.95 113.65 542.4 79.35 621.5 79.35 c 0
 710.5 79.35 781.5 78.5 856.5 89.5 c 1
 856.5 23 l 1
 777.15 -1.35 683.5 -5 600.5 -5 c 0
 534.6 -5 492 12.2 466.3 54.1 c 1
 431.15 12.05 372.4 -5 282.95 -5 c 0
 102.75 -5 46.7 68 46.7 258 c 0
EndSplineSet
Substitution2: "'smcp' Lowercase to Small Capitals lookup 16-1" oe.smcp
EndChar

StartChar: OE
Encoding: 354 338 270
Width: 1042
VWidth: 0
Flags: HW
LayerCount: 2
Fore
SplineSet
60.8 361 m 0
 60.8 704 178.8 737 346.8 737 c 0
 436.6 737 510.05 727.75 559.05 669.6 c 1
 580.3 716.95 626 734.85 675.65 732 c 2
 675.65 732 973.6 718.4 991.15 716 c 1
 991.15 642.25 l 1
 684.65 642.25 l 2
 632.65 642.25 632.65 613.25 632.65 586.25 c 2
 632.65 409.65 l 1
 949.65 399.5 l 1
 949.65 325.2 l 1
 632.65 315.35 l 1
 632.65 138.75 l 2
 633.5 85.75 665.65 86.75 694.65 86.75 c 2
 991.15 86.75 l 1
 991.15 14 l 1
 975.7 11.9 685.65 -3 685.65 -3 c 2
 635.2 -5.85 579.9 2.8 556.45 59.55 c 1
 508.6 6.95 437.3 -4 346.8 -4 c 0
 166.8 -4 60.8 28 60.8 361 c 0
152.8 361 m 0
 152.8 119.6 197.8 85 346.8 85 c 0
 492.3 85 540.65 126.1 540.65 361 c 0
 540.65 640.65 476.05 648 346.8 648 c 0
 220.55 648 152.8 642 152.8 361 c 0
EndSplineSet
EndChar

StartChar: Ydieresis
Encoding: 355 376 271
Width: 637
VWidth: 0
Flags: HW
LayerCount: 2
Fore
SplineSet
402.75 850.25 m 0
 402.75 879.45 426.8 902.5 456 902.5 c 0
 485.2 902.5 508.25 879.45 508.25 850.25 c 0
 508.25 821.05 485.2 797 456 797 c 0
 426.8 797 402.75 821.05 402.75 850.25 c 0
147.75 850.25 m 0
 147.75 879.45 171.8 902.5 201 902.5 c 0
 230.2 902.5 253.25 879.45 253.25 850.25 c 0
 253.25 821.05 230.2 797 201 797 c 0
 171.8 797 147.75 821.05 147.75 850.25 c 0
42 732 m 1
 142.5 732 l 1
 318.9 357 l 1
 513.5 732 l 1
 614 732 l 1
 364.3 251 l 1
 364.3 0 l 1
 272.3 0 l 1
 272.3 251 l 1
 42 732 l 1
EndSplineSet
Substitution2: "'c2sc' Capitals to Small Capitals in Latin lookup 17 subtable" ydieresis.smcp
EndChar

StartChar: guillemotright
Encoding: 187 187 272
Width: 557
VWidth: 0
Flags: HW
LayerCount: 2
Fore
SplineSet
241.85 204.9 m 1
 394.5 354 l 1
 246.25 498.55 l 1
 305 557 l 1
 511 354 l 1
 300 146 l 1
 241.85 204.9 l 1
46.7 204.9 m 1
 199.35 354 l 1
 51.1 498.55 l 1
 109.85 557 l 1
 315.85 354 l 1
 104.85 146 l 1
 46.7 204.9 l 1
EndSplineSet
EndChar

StartChar: cent
Encoding: 162 162 273
Width: 489
VWidth: 0
Flags: HW
LayerCount: 2
Fore
SplineSet
37.3 266 m 0
 37.3 500.35 112.15 541.95 226.05 537.7 c 1
 226.05 634 l 1
 293.25 634 l 1
 293.25 533.15 l 1
 342.65 527.45 399.75 518.45 444.95 508.5 c 1
 444.95 445.5 l 1
 444.95 445.5 317.65 453.2 228.65 453.2 c 0
 167.45 453.2 129.3 442.45 129.3 262.3 c 0
 129.3 113.95 156.65 77.8 228.65 77.8 c 0
 320.65 77.8 451.8 88.35 451.8 88.35 c 1
 451.8 23.65 l 1
 398.15 5.25 346.25 -1.75 292.65 -4.3 c 1
 292.65 -95.85 l 1
 225.45 -95.85 l 1
 225.45 -6.7 l 1
 114 -8.1 37.3 29.55 37.3 266 c 0
EndSplineSet
EndChar

StartChar: sterling
Encoding: 163 163 274
Width: 592
VWidth: 0
Flags: HW
LayerCount: 2
Fore
SplineSet
46.7 0 m 1
 46.7 72.5 l 1
 117.2 89 l 1
 117.2 325.5 l 1
 46.7 325.5 l 1
 46.7 378 l 1
 117.2 396.5 l 1
 117.2 499 l 2
 117.2 714.95 214.65 732 352.7 732 c 0
 409.7 732 545.7 716 545.7 716 c 1
 545.7 644 l 1
 353.2 644 l 2
 240.8 644 209.2 640.4 209.2 502.3 c 2
 209.2 396.5 l 1
 466.7 379.5 l 1
 466.7 325.5 l 1
 209.2 325.5 l 1
 209.2 89 l 1
 544.7 89 l 1
 544.7 0 l 1
 46.7 0 l 1
EndSplineSet
Substitution2: "'smcp' Lowercase to Small Capitals lookup 16-1" sterling.smcp
EndChar

StartChar: yen
Encoding: 165 165 275
Width: 609
VWidth: 0
Flags: HW
LayerCount: 2
Fore
SplineSet
18.65 732 m 1
 119.15 732 l 1
 295.55 396.1 l 1
 487.6 732 l 1
 590.65 732 l 1
 351.55 325.5 l 1
 513.35 325.5 l 1
 513.35 260.5 l 1
 340.95 260.5 l 1
 340.95 214.25 l 1
 513.35 214.25 l 1
 513.35 149.25 l 1
 340.95 149.25 l 1
 340.95 0 l 1
 248.95 0 l 1
 248.95 149.25 l 1
 86.35 149.25 l 1
 86.35 214.25 l 1
 248.95 214.25 l 1
 248.95 260.5 l 1
 86.35 260.5 l 1
 86.35 325.5 l 1
 238.95 325.5 l 1
 18.65 732 l 1
EndSplineSet
Substitution2: "'smcp' Lowercase to Small Capitals lookup 16-1" yen.smcp
EndChar

StartChar: section
Encoding: 167 167 276
Width: 549
VWidth: 0
Flags: HW
LayerCount: 2
Fore
SplineSet
143.4 356.6 m 2
 143.4 314 161.65 310 196.4 310 c 2
 350.05 310 l 2
 404.85 310 405.05 329.6 405.05 357.6 c 1
 406.05 358.6 405.05 413 405.05 413 c 2
 405.05 445.75 403.05 464 350.05 464 c 2
 196.4 464 l 2
 154.45 464 143.4 455.65 143.4 411 c 2
 143.4 356.6 l 2
52.4 348.5 m 2
 52.4 403 l 2
 52.4 450.3 59 488.9 100.9 502 c 1
 61.05 515.75 51.4 555.6 51.4 590 c 2
 51.4 654 l 2
 51.4 752 114.4 784 184.4 784 c 0
 240.75 784 417.7 770.95 459.9 765 c 1
 459.9 698 l 1
 194.9 698 l 2
 162.85 698 144.25 688 143.4 651.9 c 2
 143.4 591.5 l 2
 143.4 557.85 169.2 547.8 195.2 547.8 c 2
 358.9 547.8 l 2
 471.9 547.8 498.75 497.65 497.9 421.1 c 2
 497.9 366.6 l 2
 497.9 336.95 495.3 280.9 451.4 272.5 c 1
 493 265.9 496.9 219 496.9 186 c 2
 496.9 117.5 l 2
 496.9 5.2 422.9 -8 358.9 -8 c 0
 300.6 -8 129.55 4.9 88.4 11 c 1
 88.4 78 l 1
 346.6 78 l 2
 378.8 78 404.2 82.15 405.05 118.55 c 2
 405.05 182.4 l 2
 405.05 220.2 388.7 225.5 351.55 225.5 c 2
 187.4 225.5 l 2
 104.4 225.5 52.4 247.4 52.4 348.5 c 2
EndSplineSet
EndChar

StartChar: g.salt
Encoding: 356 -1 277
Width: 555
VWidth: 0
Flags: HW
LayerCount: 2
Fore
SplineSet
138.7 271.45 m 0
 138.7 180.7 136.05 76.3 240.75 76.3 c 0
 306.65 76.3 334.7 80.3 407.05 100.4 c 1
 407.05 454.9 l 1
 241.05 454.9 l 2
 141.4 454.9 138.7 334 138.7 271.45 c 0
46.7 270.4 m 0
 46.7 441.55 108.55 537.9 233.55 537.9 c 0
 339.55 537.9 451 519.65 499.05 512.95 c 1
 499.05 -92 l 2
 499.05 -219.3 412 -280.65 326.55 -272 c 2
 73.05 -248 l 1
 73.05 -187 l 1
 322.05 -187 l 2
 375.05 -187 407.05 -156 407.05 -92 c 2
 407.05 31.25 l 1
 349.35 4.95 278.55 -7.6 233.55 -7.6 c 0
 80.55 -7.6 46.7 107.3 46.7 270.4 c 0
EndSplineSet
EndChar

StartChar: guillemotleft
Encoding: 171 171 278
Width: 557
VWidth: 0
Flags: HW
LayerCount: 2
Fore
SplineSet
241.85 354 m 1
 447.85 557 l 1
 506.6 498.55 l 1
 358.35 354 l 1
 511 204.9 l 1
 452.85 146 l 1
 241.85 354 l 1
46.7 354 m 1
 252.7 557 l 1
 311.45 498.55 l 1
 163.2 354 l 1
 315.85 204.9 l 1
 257.7 146 l 1
 46.7 354 l 1
EndSplineSet
EndChar

StartChar: paragraph
Encoding: 182 182 279
Width: 579
VWidth: 0
Flags: HW
LayerCount: 2
Fore
SplineSet
118.8 503.7 m 2
 118.8 445.15 166.8 436.5 194.8 436.5 c 2
 247.3 436.5 l 1
 247.3 650.5 l 1
 194.8 650.5 l 2
 133.55 650.5 118.8 615.3 118.8 585.2 c 2
 118.8 503.7 l 2
37.3 499 m 2
 37.3 592 l 2
 37.3 687 113.75 732 193.3 732 c 2
 561.45 732 l 1
 561.45 648.5 l 1
 496.8 648.5 l 1
 496.8 0 l 1
 415.3 0 l 1
 415.3 650.5 l 1
 328.8 650.5 l 1
 328.8 -270 l 1
 247.3 -270 l 1
 247.3 372 l 1
 241.3 370 223.35 354.15 193.3 355 c 0
 88.65 355 37.3 421 37.3 499 c 2
EndSplineSet
EndChar

StartChar: macron
Encoding: 175 175 280
Width: 385
VWidth: 0
Flags: HW
LayerCount: 2
Fore
SplineSet
46.7 531 m 1
 46.7 598.5 l 1
 338.7 598.5 l 1
 338.7 531 l 1
 46.7 531 l 1
EndSplineSet
Substitution2: "'smcp' Lowercase to Small Capitals lookup 16-1" macron.smcp
EndChar

StartChar: copyright
Encoding: 169 169 281
Width: 808
VWidth: 0
Flags: HW
LayerCount: 2
Fore
SplineSet
228.9 365 m 0
 228.9 526 290.55 583 372.9 583 c 0
 413.9 583 496.1 570.8 552.4 559 c 1
 552.4 501 l 1
 489.4 510 411.9 513 378.9 513 c 0
 324.9 513 300.4 465.5 300.4 362 c 0
 300.4 278 315.05 217 379.95 217 c 0
 449.85 217 522.65 227.55 558.4 233 c 1
 558.4 175 l 1
 496.2 155.5 441.25 147 374.25 147 c 0
 295.25 147 228.9 188 228.9 365 c 0
122.9 368 m 0
 122.9 222.6 171.9 70.85 285.9 70 c 2
 543.9 70 l 2
 623.7 70.85 685.4 164 685.4 368 c 0
 685.4 488 676.4 662 545.4 662 c 2
 285.9 662 l 2
 196.9 662 122.9 605.95 122.9 368 c 0
51.4 368 m 0
 51.4 535.8 88.35 732 285.9 732 c 2
 545.4 732 l 2
 742.45 732 756.9 505.65 756.9 368 c 0
 756.9 165.1 696.4 0 545.4 0 c 2
 285.9 0 l 2
 100.55 0 51.4 220.95 51.4 368 c 0
EndSplineSet
EndChar

StartChar: registered
Encoding: 174 174 282
Width: 808
VWidth: 0
Flags: HW
LayerCount: 2
Fore
SplineSet
328.9 382 m 1
 435.9 382 l 2
 487.9 382 498.4 393.65 498.4 449.5 c 0
 498.4 507.85 464.75 510 435.9 510 c 2
 328.9 510 l 1
 328.9 382 l 1
257.4 153 m 1
 257.4 580 l 1
 435.9 580 l 2
 501.9 580 569.9 557.25 569.9 450.5 c 0
 569.9 340.35 514.35 327.85 478.7 319.5 c 1
 568.65 153 l 1
 489.3 153 l 1
 400.4 320 l 1
 328.9 332 l 1
 328.9 153 l 1
 257.4 153 l 1
122.9 368 m 0
 122.9 222.6 171.9 70.85 285.9 70 c 2
 543.9 70 l 2
 623.7 70.85 685.4 164 685.4 368 c 0
 685.4 488 676.4 662 545.4 662 c 2
 285.9 662 l 2
 196.9 662 122.9 605.95 122.9 368 c 0
51.4 368 m 0
 51.4 535.8 88.35 732 285.9 732 c 2
 545.4 732 l 2
 742.45 732 756.9 505.65 756.9 368 c 0
 756.9 165.1 696.4 0 545.4 0 c 2
 285.9 0 l 2
 100.55 0 51.4 220.95 51.4 368 c 0
EndSplineSet
EndChar

StartChar: plusminus
Encoding: 177 177 283
Width: 519
VWidth: 0
Flags: HW
LayerCount: 2
Fore
SplineSet
52.4 385.5 m 1
 52.4 471.5 l 1
 216.4 471.5 l 1
 216.4 636.5 l 1
 302.4 636.5 l 1
 302.4 471.5 l 1
 468.4 471.5 l 1
 468.4 385.5 l 1
 302.4 385.5 l 1
 302.4 220.5 l 1
 216.4 220.5 l 1
 216.4 385.5 l 1
 52.4 385.5 l 1
52.4 82.5 m 1
 52.4 168.5 l 1
 468.4 168.5 l 1
 468.4 82.5 l 1
 52.4 82.5 l 1
EndSplineSet
EndChar

StartChar: logicalnot
Encoding: 172 172 284
Width: 518
VWidth: 0
Flags: HW
LayerCount: 2
Fore
SplineSet
45.5 251.5 m 1
 45.5 336 l 1
 472.5 336 l 1
 472.5 279 472.5 216 472.5 159 c 1
 388 159 l 1
 388 251.5 l 1
 45.5 251.5 l 1
EndSplineSet
EndChar

StartChar: guilsinglleft
Encoding: 357 8249 285
Width: 356
VWidth: 0
Flags: HW
LayerCount: 2
Fore
SplineSet
46.7 354 m 1
 252.7 557 l 1
 311.45 498.55 l 1
 163.2 354 l 1
 315.85 204.9 l 1
 257.7 146 l 1
 46.7 354 l 1
EndSplineSet
EndChar

StartChar: guilsinglright
Encoding: 358 8250 286
Width: 356
VWidth: 0
Flags: HW
LayerCount: 2
Fore
SplineSet
46.7 204.9 m 1
 199.35 354 l 1
 51.1 498.55 l 1
 109.85 557 l 1
 315.85 354 l 1
 104.85 146 l 1
 46.7 204.9 l 1
EndSplineSet
EndChar

StartChar: perthousand
Encoding: 359 8240 287
Width: 1380
VWidth: 0
Flags: HW
LayerCount: 2
Fore
SplineSet
1055.4 133.15 m 2
 1055.4 88.2 1068.75 76.15 1113.65 76.15 c 2
 1207.15 76.15 l 2
 1261.55 76.15 1267.4 91.6 1267.4 133.15 c 2
 1267.4 254.15 l 2
 1267.4 300.75 1252.85 311.15 1209.15 311.15 c 2
 1115.65 311.15 l 2
 1063.05 311.15 1055.4 297.5 1055.4 254.15 c 2
 1055.4 133.15 l 2
981.4 128.65 m 2
 981.4 258.65 l 2
 981.4 343.65 1010.9 385.15 1111.9 385.15 c 2
 1212.9 385.15 l 2
 1310.9 385.15 1341.4 343.65 1341.4 258.65 c 2
 1341.4 128.65 l 2
 1341.4 43.65 1311.9 2.15 1210.9 2.15 c 2
 1109.9 2.15 l 2
 1011.9 2.15 981.4 43.65 981.4 128.65 c 2
631.8 133.15 m 2
 631.8 88.2 645.15 76.15 690.05 76.15 c 2
 783.4 76.15 l 2
 837.8 76.15 843.8 91.6 843.8 133.15 c 2
 843.8 254.15 l 2
 843.8 300.75 829.1 311.15 785.4 311.15 c 2
 692.05 311.15 l 2
 639.45 311.15 631.8 297.5 631.8 254.15 c 2
 631.8 133.15 l 2
557.8 128.65 m 2
 557.8 258.65 l 2
 557.8 343.65 587.15 385.15 688.15 385.15 c 2
 789.3 385.15 l 2
 887.3 385.15 917.8 343.65 917.8 258.65 c 2
 917.8 128.65 l 2
 917.8 43.65 888.3 2.15 787.3 2.15 c 2
 686.15 2.15 l 2
 588.15 2.15 557.8 43.65 557.8 128.65 c 2
221.75 0 m 1
 662.15 732 l 1
 741.1 732 l 1
 301.75 0 l 1
 221.75 0 l 1
113.3 480 m 2
 113.3 435.05 126.65 423 171.55 423 c 2
 265.05 423 l 2
 319.45 423 325.3 438.45 325.3 480 c 2
 325.3 601 l 2
 325.3 647.6 310.75 658 267.05 658 c 2
 173.55 658 l 2
 120.95 658 113.3 644.35 113.3 601 c 2
 113.3 480 l 2
39.3 475.5 m 2
 39.3 605.5 l 2
 39.3 690.5 68.8 732 169.8 732 c 2
 270.8 732 l 2
 368.8 732 399.3 690.5 399.3 605.5 c 2
 399.3 475.5 l 2
 399.3 390.5 369.8 349 268.8 349 c 2
 167.8 349 l 2
 69.8 349 39.3 390.5 39.3 475.5 c 2
EndSplineSet
Substitution2: "'smcp' Lowercase to Small Capitals lookup 16-1" perthousand.smcp
EndChar

StartChar: dagger
Encoding: 360 8224 288
Width: 399
VWidth: 0
Flags: HW
LayerCount: 2
Fore
SplineSet
18.65 479.25 m 1
 18.65 551.75 l 1
 151.65 562.5 l 1
 160.4 770 l 1
 239.9 770 l 1
 248.65 562.5 l 1
 380.65 551.75 l 1
 380.65 479.25 l 1
 248.65 468.5 l 1
 238.9 -72 l 1
 159.4 -72 l 1
 151.65 468.5 l 1
 18.65 479.25 l 1
EndSplineSet
EndChar

StartChar: daggerdbl
Encoding: 361 8225 289
Width: 417
VWidth: 0
Flags: HW
LayerCount: 2
Fore
SplineSet
18.65 166.5 m 1
 18.65 239 l 1
 152.95 250.35 l 1
 151.65 468.5 l 1
 18.65 479.25 l 1
 18.65 551.75 l 1
 151.65 562.5 l 1
 161.25 770 l 1
 239.9 770 l 1
 248.65 562.5 l 1
 380.65 551.75 l 1
 380.65 479.25 l 1
 248.65 468.5 l 1
 245.65 250.2 l 1
 380.65 239 l 1
 380.65 166.5 l 1
 243.05 155.45 l 1
 238.9 -72 l 1
 159.4 -72 l 1
 155.4 155.15 l 1
 18.65 166.5 l 1
EndSplineSet
EndChar

StartChar: trademark
Encoding: 362 8482 290
Width: 695
VWidth: 0
Flags: HW
LayerCount: 2
Fore
SplineSet
316.65 383 m 1
 346.65 732 l 1
 418.35 732 l 1
 502.35 503.7 l 1
 573.65 732 l 1
 647.65 732 l 1
 681.65 383 l 1
 610.15 383 l 1
 592.7 580.2 l 1
 533.8 383 l 1
 473.3 383 l 1
 403.15 580.75 l 1
 388.15 383 l 1
 316.65 383 l 1
18.65 663.5 m 1
 18.65 732 l 1
 283.65 732 l 1
 283.65 663.5 l 1
 187.4 663.5 l 1
 187.4 383 l 1
 115.9 383 l 1
 115.9 663.5 l 1
 18.65 663.5 l 1
EndSplineSet
EndChar

StartChar: notequal
Encoding: 363 8800 291
Width: 464
VWidth: 0
Flags: HW
LayerCount: 2
Fore
SplineSet
18.65 204.5 m 1
 18.65 294.75 l 1
 166.55 294.75 l 1
 236.7 410.75 l 1
 18.65 410.75 l 1
 18.65 501 l 1
 290.7 501 l 1
 334.75 573.45 l 1
 398.75 573.45 l 1
 354.7 501 l 1
 445.65 501 l 1
 445.65 410.75 l 1
 300.7 410.75 l 1
 230.55 294.75 l 1
 445.65 294.75 l 1
 445.65 204.5 l 1
 176.7 204.5 l 1
 126.65 121.05 l 1
 62.65 121.05 l 1
 112.7 204.5 l 1
 18.65 204.5 l 1
EndSplineSet
EndChar

StartChar: infinity
Encoding: 364 8734 292
Width: 779
VWidth: 0
Flags: HW
LayerCount: 2
Fore
SplineSet
429.95 340.85 m 1
 460.4 295.6 500.7 250.35 564.45 250.35 c 0
 631.9 250.35 649.85 290.05 649.85 341 c 0
 649.85 391.95 643.15 432.65 564.45 432.65 c 0
 512 432.65 459.55 387.1 429.95 340.85 c 1
129.55 341 m 0
 129.55 290.05 143.5 250.35 214.65 250.35 c 0
 278.4 250.35 318.4 295.75 348.85 341 c 1
 319.25 387.25 265.6 432.65 214.65 432.65 c 0
 134.1 432.65 129.55 391.95 129.55 341 c 0
46.7 341 m 0
 46.7 428 74.7 514 212.7 514 c 0
 288.7 514 349.75 470 389.1 411.7 c 1
 427.1 470.9 490.7 514 566.7 514 c 0
 704.7 514 732.7 428 732.7 341 c 0
 732.7 249 693.7 169 566.7 169 c 0
 491.8 169 434.05 196 387.95 273.7 c 1
 343.35 196 286.7 169 212.7 169 c 0
 85.7 169 46.7 249 46.7 341 c 0
EndSplineSet
EndChar

StartChar: lessequal
Encoding: 365 8804 293
Width: 468
VWidth: 0
Flags: HW
HStem: 97.85 83<46.7 422.4>
DStem2: 46.7 480.3 159.35 433.85 0.924862 0.380303<86.5206 369.908> 159.35 433.85 46.7 386.8 0.915045 -0.403352<0 287.315>
LayerCount: 2
Fore
SplineSet
46.7 386.8 m 1
 46.7 480.3 l 1
 421.7 634.5 l 1
 421.7 541 l 1
 159.35 433.85 l 1
 421.7 316.7 l 1
 421.7 221.5 l 1
 46.7 386.8 l 1
46.7 97.85 m 1
 46.7 180.85 l 1
 422.4 180.85 l 1
 422.4 97.85 l 1
 46.7 97.85 l 1
EndSplineSet
EndChar

